<svg xmlns="http://www.w3.org/2000/svg" viewBox="0 0 386 100"><path d="M148.75 18.21h2.74l.29 5.33h.22c3.53-3.53 7.13-6.19 11.88-6.19 7.13 0 10.44 4.32 10.44 13.25v22.18h-3.17v-21.75c0-7.34-2.3-10.8-7.92-10.8-4.1 0-7.06 2.16-11.3 6.48v26.07h-3.17V18.21ZM199.21 17.35c8.21 0 13.25 5.83 13.25 15.98 0 .87 0 1.73-.14 2.59h-24.91c.14 8.71 5.26 14.98 13.03 14.98 3.74 0 6.7-1.22 9.29-3.1l1.3 2.45c-2.74 1.66-5.83 3.38-10.87 3.38-8.86 0-15.99-6.77-15.99-18.07s7.34-18.22 15.05-18.22Zm10.23 16.13c0-8.86-3.96-13.39-10.15-13.39s-11.16 5.11-11.88 13.39h22.03ZM222.75 20.95h-5.4v-2.45l5.47-.29.43-10.01h2.74v10.01h10.01v2.74h-10.01v22.54c0 4.39 1.08 7.34 5.83 7.34 1.3 0 3.1-.5 4.32-1.08l.86 2.59c-2.02.72-4.18 1.3-5.62 1.3-6.7 0-8.64-4.25-8.64-10.44v-22.25ZM242.06 18.21h3.46l6.19 22.39c.86 3.17 1.66 6.12 2.38 9.22h.29c.79-3.1 1.66-6.05 2.52-9.22l6.26-22.39h3.82l6.26 22.39c.86 3.17 1.73 6.12 2.59 9.22h.29c.79-3.1 1.66-6.05 2.45-9.22l6.12-22.39h3.24l-9.94 34.56h-4.18l-6.05-21.46c-1.01-3.31-1.66-6.48-2.66-9.86h-.29c-.79 3.38-1.66 6.7-2.74 10.01l-5.98 21.31h-3.82l-10.23-34.56ZM308.52 17.35c8.35 0 15.55 6.62 15.55 18.22s-7.2 18.07-15.55 18.07-15.48-6.62-15.48-18.07 7.2-18.22 15.48-18.22Zm0 33.48c6.98 0 12.24-6.19 12.24-15.27s-5.26-15.41-12.24-15.41-12.17 6.26-12.17 15.41 5.18 15.27 12.17 15.27ZM334.27 18.21h2.74l.29 6.41h.22c2.3-4.25 5.69-7.27 9.79-7.27 1.3 0 2.3.14 3.46.72l-.72 2.88c-1.15-.43-1.8-.58-3.17-.58-3.1 0-6.77 2.38-9.43 8.86v23.54h-3.17V18.21ZM358.08 1h3.17v38.16h.14l17.07-20.95h3.67l-11.23 13.68 13.11 20.88h-3.53l-11.45-18.5-7.78 9.07v9.43h-3.17V1ZM157.25 64.69c-.96-.48-1.92-.67-2.78-.67-2.45 0-3.6 1.92-3.6 5.23v4.99h5.33v1.82h-5.33v21.22h-2.11v-21.22h-3.17v-1.63l3.17-.19v-5.14c0-4.56 2.06-6.91 5.71-6.91 1.06 0 2.3.29 3.36.77l-.58 1.73ZM172.4 73.67c5.57 0 10.37 4.42 10.37 12.15s-4.8 12.05-10.37 12.05-10.32-4.42-10.32-12.05 4.8-12.15 10.32-12.15Zm0 22.32c4.66 0 8.16-4.13 8.16-10.18s-3.5-10.27-8.16-10.27-8.11 4.18-8.11 10.27 3.46 10.18 8.11 10.18ZM192.69 74.24h2.11v14.5c0 4.9 1.54 7.2 5.23 7.2 2.74 0 4.75-1.44 7.44-4.71v-16.99h2.11v23.04h-1.78l-.24-3.84h-.1c-2.26 2.64-4.66 4.42-7.82 4.42-4.75 0-6.96-2.88-6.96-8.83v-14.79ZM221.21 74.24h1.82l.19 3.55h.14c2.35-2.35 4.75-4.13 7.92-4.13 4.75 0 6.96 2.88 6.96 8.83v14.79h-2.11v-14.5c0-4.9-1.54-7.2-5.28-7.2-2.74 0-4.7 1.44-7.54 4.32v17.38h-2.11v-23.04ZM258.4 73.67c2.78 0 4.66 1.06 6.96 2.83l-.1-4.22v-9.5h2.11v34.51h-1.82l-.19-2.98h-.14c-1.87 1.87-4.42 3.55-7.49 3.55-5.81 0-9.55-4.27-9.55-12.05s4.75-12.15 10.23-12.15Zm-.38 22.32c2.54 0 4.8-1.34 7.25-3.79v-13.68c-2.45-2.16-4.46-2.98-6.72-2.98-4.61 0-8.11 4.46-8.11 10.27 0 6.1 2.69 10.18 7.58 10.18ZM292.35 82.84c.1-3.5-.91-7.3-5.42-7.3-3.12 0-5.81 1.54-7.34 2.69l-.96-1.58c1.63-1.15 4.8-2.98 8.54-2.98 5.47 0 7.3 3.94 7.3 8.88v14.74h-1.78l-.24-2.98h-.1c-2.35 1.87-5.14 3.55-8.16 3.55-3.65 0-6.72-1.97-6.72-6.34 0-5.09 4.66-7.54 14.88-8.69Zm-7.82 13.2c2.64 0 4.99-1.3 7.82-3.74v-7.83c-9.46 1.1-12.67 3.31-12.67 6.96 0 3.31 2.21 4.61 4.85 4.61ZM306.09 76.07h-3.6v-1.63l3.65-.19.29-6.67h1.82v6.67h6.67v1.82h-6.67v15.03c0 2.93.72 4.9 3.89 4.9.86 0 2.06-.34 2.88-.72l.58 1.73c-1.34.48-2.78.86-3.74.86-4.46 0-5.76-2.83-5.76-6.96v-14.83ZM323.32 66.8c0-1.2.86-1.92 1.92-1.92s1.92.72 1.92 1.92c0 1.1-.86 1.87-1.92 1.87s-1.92-.77-1.92-1.87Zm.82 7.44h2.11v23.04h-2.11v-23.04ZM346.52 73.67c5.57 0 10.37 4.42 10.37 12.15s-4.8 12.05-10.37 12.05-10.32-4.42-10.32-12.05 4.8-12.15 10.32-12.15Zm0 22.32c4.66 0 8.16-4.13 8.16-10.18s-3.5-10.27-8.16-10.27-8.11 4.18-8.11 10.27 3.46 10.18 8.11 10.18ZM367.04 74.24h1.82l.19 3.55h.14c2.35-2.35 4.75-4.13 7.92-4.13 4.75 0 6.96 2.88 6.96 8.83v14.79h-2.11v-14.5c0-4.9-1.54-7.2-5.28-7.2-2.74 0-4.7 1.44-7.54 4.32v17.38h-2.11v-23.04Z"/><path d="m48.16,52.39c-9.14,0-15.53-6.92-15.53-16.82s6.39-16.97,15.53-16.97,15.53,6.98,15.53,16.97-6.39,16.82-15.53,16.82Z" style="fill:#f7c819"/><path d="M48.16 19.85c7.11 0 14.28 4.86 14.28 15.72s-7.17 15.57-14.28 15.57-14.28-4.82-14.28-15.57 7.17-15.72 14.28-15.72m0-2.5c-9.07 0-16.78 6.62-16.78 18.22s7.71 18.07 16.78 18.07 16.78-6.62 16.78-18.07-7.7-18.22-16.78-18.22h0ZM3.24 46.51c2.95 2.45 6.05 4.39 11.02 4.39 5.4 0 8.21-3.17 8.21-6.84 0-4.32-4.46-6.19-8.42-7.63-5.26-1.87-11.02-3.96-11.02-9.87 0-5.04 3.96-9.22 11.16-9.22 3.67 0 7.34 1.51 9.87 3.6l-1.73 2.23c-2.3-1.73-4.75-3.1-8.28-3.1-5.33 0-7.78 3.1-7.78 6.26 0 3.96 4.03 5.47 8.14 6.98 5.4 2.02 11.3 3.82 11.3 10.59 0 5.18-4.18 9.72-11.66 9.72-5.11 0-9.58-2.16-12.67-4.75l1.87-2.38ZM73.86 1h3.17v47.6c0 1.51.65 2.23 1.51 2.23.29 0 .58 0 1.3-.14l.58 2.59c-.65.22-1.3.36-2.3.36-2.81 0-4.25-1.73-4.25-5.47V1ZM109.88 31.1c.14-5.26-1.37-10.94-8.14-10.94-4.68 0-8.71 2.3-11.02 4.03l-1.44-2.38c2.45-1.73 7.2-4.46 12.82-4.46 8.21 0 10.94 5.9 10.94 13.32v22.11h-2.66l-.36-4.46h-.14c-3.53 2.81-7.7 5.33-12.24 5.33-5.47 0-10.08-2.95-10.08-9.51 0-7.63 6.98-11.3 22.32-13.03Zm-11.74 19.8c3.96 0 7.49-1.95 11.74-5.62v-11.74c-14.19 1.66-19.01 4.97-19.01 10.44 0 4.97 3.31 6.91 7.27 6.91ZM124.94 18.21h2.74l.29 6.41h.22c2.3-4.25 5.69-7.27 9.79-7.27 1.3 0 2.3.14 3.46.72l-.72 2.88c-1.15-.43-1.8-.58-3.17-.58-3.1 0-6.77 2.38-9.43 8.86v23.54h-3.17V18.21Z"/></svg>