<svg xmlns="http://www.w3.org/2000/svg" viewBox="0 0 240 110"><path d="m 48.79,52.89 c -9.14,0 -15.53,-6.92 -15.53,-16.82 0,-9.9 6.39,-16.97 15.53,-16.97 9.14,0 15.53,6.98 15.53,16.97 0,9.99 -6.39,16.82 -15.53,16.82 z" style="fill:#f7c819"/><path d="m 48.79,20.35 c 7.11,0 14.28,4.86 14.28,15.72 0,10.86 -7.17,15.57 -14.28,15.57 -7.11,0 -14.28,-4.82 -14.28,-15.57 0,-10.75 7.17,-15.72 14.28,-15.72 m 0,-2.5 c -9.07,0 -16.78,6.62 -16.78,18.22 0,11.6 7.71,18.07 16.78,18.07 9.07,0 16.78,-6.62 16.78,-18.07 0,-11.45 -7.7,-18.22 -16.78,-18.22 z M 3.87,47.01 c 2.95,2.45 6.05,4.39 11.02,4.39 5.4,0 8.21,-3.17 8.21,-6.84 0,-4.32 -4.46,-6.19 -8.42,-7.63 C 9.42,35.06 3.66,32.97 3.66,27.06 c 0,-5.04 3.96,-9.22 11.16,-9.22 3.67,0 7.34,1.51 9.87,3.6 l -1.73,2.23 c -2.3,-1.73 -4.75,-3.1 -8.28,-3.1 -5.33,0 -7.78,3.1 -7.78,6.26 0,3.96 4.03,5.47 8.14,6.98 5.4,2.02 11.3,3.82 11.3,10.59 0,5.18 -4.18,9.72 -11.66,9.72 -5.11,0 -9.58,-2.16 -12.67,-4.75 L 3.88,46.99 Z M 74.49,1.5 h 3.17 v 47.6 c 0,1.51 0.65,2.23 1.51,2.23 0.29,0 0.58,0 1.3,-0.14 l 0.58,2.59 c -0.65,0.22 -1.3,0.36 -2.3,0.36 -2.81,0 -4.25,-1.73 -4.25,-5.47 V 1.5 Z m 36.02,30.1 c 0.14,-5.26 -1.37,-10.94 -8.14,-10.94 -4.68,0 -8.71,2.3 -11.02,4.03 l -1.44,-2.38 c 2.45,-1.73 7.2,-4.46 12.82,-4.46 8.21,0 10.94,5.9 10.94,13.32 v 22.11 h -2.66 l -0.36,-4.46 h -0.14 c -3.53,2.81 -7.7,5.33 -12.24,5.33 -5.47,0 -10.08,-2.95 -10.08,-9.51 0,-7.63 6.98,-11.3 22.32,-13.03 z M 98.77,51.4 c 3.96,0 7.49,-1.95 11.74,-5.62 V 34.04 C 96.32,35.7 91.5,39.01 91.5,44.48 c 0,4.97 3.31,6.91 7.27,6.91 z m 26.8,-32.69 h 2.74 l 0.29,6.41 h 0.22 c 2.3,-4.25 5.69,-7.27 9.79,-7.27 1.3,0 2.3,0.14 3.46,0.72 l -0.72,2.88 c -1.15,-0.43 -1.8,-0.58 -3.17,-0.58 -3.1,0 -6.77,2.38 -9.43,8.86 v 23.54 h -3.17 V 18.71 Z M 2,73.18 h 2.74 l 0.29,5.33 h 0.22 c 3.53,-3.53 7.13,-6.19 11.88,-6.19 7.13,0 10.44,4.32 10.44,13.25 v 22.18 H 24.4 V 86 c 0,-7.34 -2.3,-10.8 -7.92,-10.8 -4.1,0 -7.06,2.16 -11.3,6.48 v 26.07 H 2 V 73.19 Z m 50.45,-0.87 c 8.21,0 13.25,5.83 13.25,15.98 0,0.87 0,1.73 -0.14,2.59 H 40.65 c 0.14,8.71 5.26,14.98 13.03,14.98 3.74,0 6.7,-1.22 9.29,-3.1 l 1.3,2.45 c -2.74,1.66 -5.83,3.38 -10.87,3.38 -8.86,0 -15.99,-6.77 -15.99,-18.07 0,-11.3 7.34,-18.22 15.05,-18.22 z m 10.23,16.13 c 0,-8.86 -3.96,-13.39 -10.15,-13.39 -6.19,0 -11.16,5.11 -11.88,13.39 z M 76,75.92 h -5.4 v -2.45 l 5.47,-0.29 0.43,-10.01 h 2.74 v 10.01 h 10.01 v 2.74 H 79.24 v 22.54 c 0,4.39 1.08,7.34 5.83,7.34 1.3,0 3.1,-0.5 4.32,-1.08 l 0.86,2.59 c -2.02,0.72 -4.18,1.3 -5.62,1.3 -6.7,0 -8.64,-4.25 -8.64,-10.44 V 75.92 Z m 19.31,-2.74 h 3.46 l 6.19,22.39 c 0.86,3.17 1.66,6.12 2.38,9.22 h 0.29 c 0.79,-3.1 1.66,-6.05 2.52,-9.22 l 6.26,-22.39 h 3.82 l 6.26,22.39 c 0.86,3.17 1.73,6.12 2.59,9.22 h 0.29 c 0.79,-3.1 1.66,-6.05 2.45,-9.22 l 6.12,-22.39 h 3.24 l -9.94,34.56 h -4.18 L 121.01,86.28 C 120,82.97 119.35,79.8 118.35,76.42 h -0.29 c -0.79,3.38 -1.66,6.7 -2.74,10.01 l -5.98,21.31 h -3.82 L 95.29,73.18 Z m 66.46,-0.87 c 8.35,0 15.55,6.62 15.55,18.22 0,11.6 -7.2,18.07 -15.55,18.07 -8.35,0 -15.48,-6.62 -15.48,-18.07 0,-11.45 7.2,-18.22 15.48,-18.22 z m 0,33.48 c 6.98,0 12.24,-6.19 12.24,-15.27 0,-9.08 -5.26,-15.41 -12.24,-15.41 -6.98,0 -12.17,6.26 -12.17,15.41 0,9.15 5.18,15.27 12.17,15.27 z m 25.75,-32.61 h 2.74 l 0.29,6.41 h 0.22 c 2.3,-4.25 5.69,-7.27 9.79,-7.27 1.3,0 2.3,0.14 3.46,0.72 l -0.72,2.88 c -1.15,-0.43 -1.8,-0.58 -3.17,-0.58 -3.1,0 -6.77,2.38 -9.43,8.86 v 23.54 h -3.17 V 73.18 Z m 23.81,-17.21 h 3.17 v 38.16 h 0.14 l 17.07,-20.95 h 3.67 l -11.23,13.68 13.11,20.88 h -3.53 l -11.45,-18.5 -7.78,9.07 v 9.43 h -3.17 z"/></svg>
