<svg viewBox="116 96 890 890" version="1.1" id="svg559" width="890" height="890" xmlns="http://www.w3.org/2000/svg"><defs id="defs385"><style id="style383">.cls-1{fill:#163554}.cls-1,.cls-10,.cls-2,.cls-4,.cls-5,.cls-7,.cls-8,.cls-9{stroke-linecap:round;stroke-linejoin:round}.cls-1,.cls-10,.cls-12,.cls-14,.cls-2,.cls-4,.cls-5,.cls-7,.cls-8,.cls-9{stroke:#000}.cls-2{fill:#bde2ff}.cls-4{fill:#eff8ff}.cls-5{fill:#fcff64}.cls-12{fill:#003657}.cls-7{fill:none}.cls-17,.cls-8{fill:#f9ff5f}.cls-9{fill:#f7e337}.cls-10{fill:#f4c800}.cls-12,.cls-14{stroke-miterlimit:10}.cls-14{fill:#f0f9ff}</style></defs><path class="cls-7" d="m 743.41961,780.86113 82.19,48.91 -165.3,94.46 -33.13,-17.93" id="path387"/><path class="cls-7" d="m 497.98961,962.63113 -374.5,-213.77 c -7.95,-4.54 -8.02,-15.97 -0.13,-20.6 l 197,-115.65 c 3.67,-2.16 8.21,-2.19 11.91,-0.08 l 377.19,214.63 c 8,4.55 8.03,16.08 0.05,20.67 l -199.7,114.79 c -3.66,2.11 -8.17,2.11 -11.83,0.02 z" id="path389"/><path style="fill:#b2e3ff;stroke:#000;stroke-linecap:round;stroke-linejoin:round" d="m 504.63961,927.52113 -369.1,-213.02 193.03,-111.45 369.1,213.02 z" id="path391"/><path class="cls-14" d="m 135.53961,714.50113 v 20.36 l 368.99,213.02 0.11,-20.36 z" id="path393"/><path style="fill:#003657;stroke:#000;stroke-linecap:round;stroke-linejoin:round" d="m 697.72961,815.58113 v 20.28 l -193.15,111.52 0.12,-20.36 z" id="path395"/><circle cx="280.38" cy="247.551" r="104.07" style="fill:#faff3a;stroke:#000;stroke-miterlimit:10" id="circle397"/><path d="m 283.40961,383.09113 -0.71,-31.44 m -67.47,14.79 15.11,-27.58 m -65.83,-20.92 26.88,-16.33 m -46.55,-51.03 31.44,-0.7 m -14.8,-67.48 27.58,15.12 m 20.92,-65.84 16.33,26.88 m 51.04,-46.55 0.7,31.44 m 67.47,-14.8 -15.11,27.58 m 65.83,20.93 -26.87,16.33 m 46.55,51.03 -31.44,0.7 m 14.79,67.48 -27.58,-15.12 m -20.92,65.83 -16.33,-26.87" style="fill:none;stroke:#000;stroke-miterlimit:10" id="path399"/><path class="cls-7" d="m 337.82961,494.13113 276.24,157.86 c 5.6,3.23 12.49,3.23 18.09,0 l 362.79,-209.29 c 12.06999,-6.96 12.06999,-24.37 0.01,-31.34 l -276.56,-158.29 c -5.61,-3.24 -12.52,-3.24 -18.12,0 l -362.47,209.73 c -12.05,6.97 -12.04,24.37 0.01,31.34 z" id="path401"/><path style="fill:#b2e3ff;stroke:#000;stroke-miterlimit:10" d="m 625.25961,602.29113 -275.61,-159.01 364.31,-210.33 275.61,159 z" id="path403"/><path class="cls-14" d="m 349.64961,443.28113 v 38.44 l 275.39,159 0.22,-38.43 z" id="path405"/><path class="cls-12" d="m 989.56961,391.95113 v 38.29 l -364.53,210.48 0.22,-38.43 z" id="path407"/><path class="cls-8" d="m 625.62961,265.65113 195.18,112.7 v 75.4 l -195.18,-112.97 z m 195.18,112.7 97.38,-56.47 0.21,75.25 -97.59,56.62 z" id="path409"/><path class="cls-8" d="m 723.21961,209.30113 -97.59,56.35 195.18,112.7 97.38,-56.47 z" id="path411"/><path class="cls-8" d="m 918.18961,281.86113 -195.08,-112.58 v 40.02 l 195.08,112.58 z" id="path413"/><path class="cls-10" d="m 918.18961,281.86113 -97.38,96.49 97.38,-56.47 z" id="path415"/><path class="cls-8" d="m 723.10961,169.28113 -97.38,96.49 97.38,-56.47 z" id="path417"/><path class="cls-9" d="m 723.10961,169.28113 195.08,112.58 -97.38,96.49 -195.08,-112.58 z" id="path419"/><path class="cls-12" d="m 728.32961,200.06113 48.09,27.75 -24,23.79 -48.09,-27.76 z m -23.98,23.82 48.09,27.75 -24.01,23.79 -48.08,-27.75 z m 72.09,3.93 48.09,27.75 -24.01,23.78 -48.08,-27.75 z" id="path421"/><path class="cls-12" d="m 752.45961,251.60113 48.08,27.75 -24,23.78 -48.09,-27.75 z m 72.09,3.93 48.08,27.75 -24,23.79 -48.09,-27.75 z" id="path423"/><path class="cls-12" d="m 800.62961,279.34113 48.09,27.75 -24,23.79 -48.09,-27.75 z m -119.95,-31.79 48.09,27.75 -24,23.79 -48.09,-27.76 z" id="path425"/><path class="cls-12" d="m 728.78961,275.26113 48.09,27.75 -24.01,23.79 -48.08,-27.75 z m 48.18,27.75 48.09,27.75 -24.01,23.78 -48.09,-27.75 z" id="path427"/><path class="cls-8" d="m 528.03961,322.54113 195.18,112.69 v 75.4 l -195.18,-112.96 z m 195.18,112.69 97.38,-56.47 0.21,75.26 -97.59,56.61 z" id="path429"/><path class="cls-8" d="m 625.62961,266.19113 -97.59,56.35 195.18,112.69 97.38,-56.47 z" id="path431"/><path class="cls-8" d="m 820.59961,338.74113 -195.08,-112.57 v 40.02 l 195.08,112.57 z" id="path433"/><path class="cls-10" d="m 820.59961,338.74113 -97.38,96.49 97.38,-56.47 z" id="path435"/><path class="cls-8" d="m 625.51961,226.17113 -97.38,96.49 97.38,-56.47 z" id="path437"/><path class="cls-9" d="m 625.51961,226.17113 195.08,112.57 -97.38,96.49 -195.08,-112.57 z" id="path439"/><path class="cls-12" d="m 630.23961,249.55113 48.09,27.75 -24.01,23.79 -48.09,-27.75 z m -23.99,23.83 48.09,27.75 -24,23.78 -48.09,-27.75 z m 72.09,3.92 48.09,27.75 -24,23.79 -48.09,-27.75 z" id="path441"/><path class="cls-12" d="m 654.35961,301.09113 48.09,27.75 -24.01,23.79 -48.08,-27.75 z m 72.09,3.94 48.09,27.75 -24.01,23.78 -48.08,-27.75 z" id="path443"/><path class="cls-12" d="m 702.53961,328.84113 48.09,27.75 -24.01,23.78 -48.09,-27.75 z m -119.95,-31.8 48.09,27.75 -24.01,23.79 -48.09,-27.75 z" id="path445"/><path class="cls-12" d="m 630.68961,324.76113 48.09,27.75 -24,23.78 -48.09,-27.75 z m 48.18,27.74 48.09,27.75 -24,23.79 -48.09,-27.75 z" id="path447"/><path class="cls-8" d="m 430.43961,379.44113 195.19,112.7 v 75.4 l -195.19,-112.97 z m 195.19,112.7 97.37,-56.47 0.22,75.25 -97.59,56.62 z" id="path449"/><path class="cls-8" d="m 528.03961,323.09113 -97.6,56.35 195.19,112.7 97.37,-56.47 z" id="path451"/><path class="cls-8" d="m 722.99961,395.65113 -195.07,-112.58 v 40.02 l 195.07,112.58 z" id="path453"/><path class="cls-10" d="m 722.99961,395.65113 -97.37,96.49 97.37,-56.47 z" id="path455"/><path class="cls-8" d="m 527.92961,283.07113 -97.38,96.49 97.38,-56.47 z" id="path457"/><path class="cls-9" d="m 527.92961,283.07113 195.07,112.58 -97.37,96.49 -195.08,-112.58 z" id="path459"/><path class="cls-10" d="m 644.57961,498.83113 63.98,-37.69 0.03,58.01 -64.2,37.84 z m 94.37,-55.31 63.99,-37.7 0.02,58.02 -64.2,37.83 z m 100.1,-58.1 63.98,-37.7 0.03,58.02 -64.2,37.83 z" id="path461"/><path class="cls-12" d="m 540.39961,308.25113 48.09,27.75 -24.01,23.79 -48.08,-27.76 z m -23.98,23.82 48.08,27.75 -24,23.79 -48.09,-27.75 z m 72.09,3.93 48.09,27.75 -24.01,23.78 -48.09,-27.75 z" id="path463"/><path class="cls-12" d="m 564.51961,359.79113 48.09,27.75 -24,23.78 -48.09,-27.75 z m 72.09,3.93 48.09,27.75 -24,23.79 -48.09,-27.75 z" id="path465"/><path class="cls-12" d="m 612.69961,387.53113 48.09,27.75 -24.01,23.79 -48.08,-27.75 z m -119.95,-31.79 48.09,27.75 -24.01,23.79 -48.08,-27.76 z" id="path467"/><path class="cls-12" d="m 540.85961,383.45113 48.08,27.75 -24,23.79 -48.09,-27.75 z m 48.18,27.75 48.08,27.75 -24,23.78 -48.09,-27.75 z" id="path469"/><ellipse class="cls-7" cx="-754.031" cy="719.317" rx="27.19" ry="47.11" transform="rotate(-89.64)" id="ellipse471"/><path class="cls-14" d="m 749.60961,681.50113 h -70.05 v 72.75 0 c 0.08,5.23 3.53,10.46 10.34,14.46 13.73,8.06 35.9,8.11 49.53,0.1 6.83,-4.01 10.21,-9.28 10.17,-14.56 v 0 -72.75 z" id="path473"/><ellipse class="cls-14" cx="-677.663" cy="718.839" rx="20.22" ry="35.03" transform="rotate(-89.64)" id="ellipse475"/><path class="cls-17" d="m 714.67961,684.73113 c -2.56,0 -4.96,-0.58 -6.77,-1.64 -1.7,-1 -2.65,-2.29 -2.67,-3.65 v -5.25 c 0,0 18.73,0 18.73,0 v 5.26 c 0.01,1.37 -0.92,2.67 -2.62,3.67 -1.77,1.04 -4.14,1.61 -6.68,1.61 z" id="path477"/><path d="m 723.47961,674.69113 v 4.77 c 0,1.18 -0.83,2.33 -2.37,3.23 -1.7,1 -3.98,1.55 -6.42,1.55 -2.44,0 -4.79,-0.56 -6.51,-1.57 -1.54,-0.91 -2.4,-2.05 -2.42,-3.23 v -0.1 c 0,0 0,-4.64 0,-4.64 h 17.73 m 1,-1 h -19.73 v 5.76 0 c 0.02,1.47 0.99,2.95 2.91,4.07 1.94,1.14 4.48,1.71 7.02,1.71 2.54,0 5.02,-0.56 6.93,-1.68 1.92,-1.13 2.88,-2.61 2.86,-4.1 v 0 -5.76 0 z" id="path479"/><path class="cls-17" d="m 714.68961,679.07113 c -2.56,0 -4.97,-0.57 -6.77,-1.62 -1.72,-0.99 -2.66,-2.28 -2.66,-3.62 0,-1.34 0.93,-2.59 2.61,-3.57 1.77,-1.02 4.14,-1.59 6.68,-1.59 2.54,0 4.97,0.57 6.77,1.62 1.72,0.99 2.66,2.28 2.66,3.62 0,1.34 -0.93,2.59 -2.61,3.57 -1.77,1.02 -4.14,1.59 -6.68,1.59 z" id="path481"/><path d="m 714.53961,669.18113 v 0 c 2.48,0 4.79,0.55 6.52,1.55 1.56,0.9 2.41,2.03 2.41,3.19 0,1.16 -0.84,2.25 -2.36,3.13 -1.7,0.98 -3.98,1.52 -6.43,1.52 -2.45,0 -4.79,-0.55 -6.52,-1.55 -1.56,-0.9 -2.41,-2.03 -2.41,-3.19 0,-1.16 0.84,-2.25 2.36,-3.13 1.7,-0.98 3.98,-1.52 6.43,-1.52 m 0,-1 c -2.51,0 -5.02,0.55 -6.93,1.65 -3.84,2.22 -3.82,5.82 0.05,8.05 1.94,1.12 4.48,1.68 7.02,1.68 2.54,0 5.02,-0.55 6.93,-1.65 3.84,-2.22 3.82,-5.82 -0.05,-8.05 -1.94,-1.12 -4.49,-1.68 -7.02,-1.68 z" id="path483"/><path class="cls-8" d="m 695.15961,748.97113 v 14.63 c 13.21,5.35 31.2,4.83 43.3,-1.61 v -14.59 c -12.11,6.32 -30.1,6.84 -43.3,1.57 z" id="path485"/><path class="cls-8" d="m 695.15961,734.30113 v 14.63 c 13.21,5.35 31.2,4.83 43.3,-1.61 v -14.59 c -12.11,6.32 -30.1,6.84 -43.3,1.57 z" id="path487"/><path class="cls-8" d="m 695.15961,719.61113 v 14.63 c 13.21,5.35 31.2,4.83 43.3,-1.61 v -14.59 c -12.11,6.32 -30.1,6.84 -43.3,1.57 z" id="path489"/><path class="cls-8" d="m 695.15961,704.89113 v 14.63 c 13.21,5.35 31.2,4.83 43.3,-1.61 v -14.59 c -12.11,6.32 -30.1,6.84 -43.3,1.57 z" id="path491"/><path class="cls-1" d="m 469.08961,743.83113 v 110.75 c 0,0 -65.77,-37.97 -65.77,-37.97 0.24,-1.41 0.39,-2.91 0.39,-4.54 0,-14.78 -10.45,-32.79 -23.34,-40.23 -12.89,-7.44 -23.34,-1.5 -23.34,13.28 0,1.63 0.15,3.3 0.39,4.99 l -83.55,-48.24 c 0.24,-1.41 0.39,-2.91 0.39,-4.54 0,-14.78 -10.45,-32.79 -23.34,-40.24 -12.89,-7.45 -23.34,-1.5 -23.34,13.28 0,1.63 0.15,3.3 0.39,4.99 l -5.95,-3.44 v -110.75 c 0,0 247.08,142.65 247.08,142.65 z" id="path493"/><path class="cls-4" d="m 431.76961,833.03113 20.97,12.11 v -98.81 l -20.97,-12.11 z m -20.97,-12.11 20.97,12.11 v -98.81 l -20.97,-12.11 z m -88.48,-101.82 88.48,51.09 v -48.08 l -88.48,-51.08 z m -90.37,-52.17 48.43,27.96 v -48.07 l -48.43,-27.96 z m 69.4,90.8 20.97,12.11 v -98.81 l -20.97,-12.11 z m -20.97,-12.11 20.97,12.11 v -98.81 l -20.97,-12.1 z" id="path495"/><path class="cls-7" d="m 358.29961,701.98113 14.42,34.48 m -24.08,-22.68 5.28,12.63 m 30.15,-1.28 -5.28,-12.63 m -123.67,-70.09 14.42,34.48 m -24.08,-22.68 5.29,12.63" id="path497"/><ellipse class="cls-1" cx="-75.428" cy="881.328" rx="15.42" ry="26.72" transform="rotate(-30.36)" id="ellipse499"/><ellipse class="cls-1" cx="-149.362" cy="751.405" rx="15.42" ry="26.72" transform="rotate(-30.36)" id="ellipse501"/><path class="cls-1" d="m 469.08961,828.30113 95.49,-55.13 v -84.4 l -95.49,55.13 z" id="path503"/><path class="cls-4" d="m 476.29961,818.90113 79.84,-46.09 v -53.89 l -79.84,46.1 z" id="path505"/><path class="cls-7" d="m 538.07961,758.19113 -15.63,-8.89 m -8.96,35.06 -15.63,-8.9 m 46.94,-1.01 -35.13,-19.99" id="path507"/><path class="cls-2" d="m 466.70961,855.89113 100.25,-57.88 v -26.21 l -100.25,57.88 z m 9.59,-98.57 79.87,-46.11 v -9.68 l -79.87,46.11 z" id="path509"/><ellipse class="cls-8" cx="-404.713" cy="877.948" rx="8.92" ry="5.15" transform="rotate(-59.64)" id="ellipse511"/><ellipse class="cls-9" cx="-404.713" cy="877.948" rx="4.46" ry="2.57" transform="rotate(-59.64)" id="ellipse513"/><ellipse class="cls-8" cx="-478.15" cy="836.165" rx="8.92" ry="5.15" transform="rotate(-59.64)" id="ellipse515"/><ellipse class="cls-9" cx="-478.15" cy="836.165" rx="4.46" ry="2.57" transform="rotate(-59.64)" id="ellipse517"/><path class="cls-2" d="m 456.92961,796.88113 8.1,-4.68 v -20.68 l -8.1,4.68 z m 111.84,-64.57 8.11,-4.68 v -20.68 l -8.11,4.68 z" id="path519"/><path class="cls-7" d="m 572.81961,709.29113 v -12.54 l -7.88,4.55 m -103.85,72.5 v -12.54 l 7.89,-4.55" id="path521"/><path class="cls-2" d="m 466.70961,829.68113 -13.97,-9.83 -0.72,26.36 14.69,9.68 z" id="path523"/><path class="cls-4" d="m 501.99961,829.77113 29.45,-17.01 v -11.64 l -29.45,17.01 z m 37.82,-33.48 v 11.3 m -2.43,-9.9 v 11.3 m -2.43,-9.89 v 11.3 m -36.25,9.62 v 11.3 m -2.43,-9.89 v 11.3 m -2.43,-9.9 v 11.3" id="path525"/><text transform="matrix(.9331 -.53873 .00085 1.0712 0 0)" style="font-weight:600;font-size:6.74923px;font-family:SuisseScreenTrial-SemiBold,&quot;Suisse Screen Trial&quot;;stroke-width:.937393" id="text533" x="541.684" y="1041.905"><tspan x="541.684" y="1041.905" id="tspan527" style="stroke-width:.937393">E</tspan><tspan x="545.621" y="1041.905" style="letter-spacing:-.03em;stroke-width:.937393" id="tspan529">V</tspan><tspan x="549.774" y="1041.905" xml:space="preserve" id="tspan531" style="stroke-width:.937393"> BUS</tspan></text><path class="cls-1" d="m 316.43961,547.48113 248.14,141.29 -95.49,55.13 -247.09,-142.73 z" id="path535"/><path class="cls-5" d="m 474.82961,699.78113 -5.23,-3.02 c -1.14,-0.66 -0.99,-1.81 0.32,-2.57 l 15.53,-8.97 c 1.31,-0.76 3.31,-0.84 4.45,-0.18 l 5.23,3.02 c 1.14,0.66 0.99,1.81 -0.32,2.57 l -15.53,8.97 c -1.31,0.76 -3.31,0.84 -4.45,0.18 z" id="path537"/><path d="m 445.35961,699.94113 -155.12,-89.56 c -5.46,-3.15 -4.77,-8.65 1.53,-12.29 l 27.23,-15.72 c 6.3,-3.64 15.83,-4.03 21.29,-0.88 l 155.12,89.56 c 5.46,3.15 4.77,8.65 -1.53,12.29 l -27.23,15.72 c -6.3,3.64 -15.83,4.03 -21.29,0.88 z" style="fill:#f6fce0;stroke:#000;stroke-linecap:round;stroke-linejoin:round" id="path539"/><path class="cls-5" d="m 448.17961,693.00113 -148.63,-85.81 c -1.87,-1.08 -1.63,-2.98 0.53,-4.23 l 27.36,-15.79 c 2.16,-1.25 5.45,-1.38 7.32,-0.3 l 148.63,85.81 c 1.87,1.08 1.63,2.98 -0.53,4.23 l -27.36,15.79 c -2.16,1.25 -5.45,1.38 -7.32,0.3 z" id="path541"/><path class="cls-7" d="m 354.89961,598.50113 -35.2,20.32 m 62.29,-4.68 -35.2,20.32 m 62.29,-4.69 -35.21,20.33 m 62.29,-4.69 -35.2,20.33 m 62.29,-4.69 -35.21,20.32" id="path543"/><path class="cls-17" d="m 623.56961,665.21113 c -4.02,0 -7.81,-0.9 -10.65,-2.55 -2.76,-1.59 -4.27,-3.67 -4.27,-5.86 0,-2.19 1.49,-4.21 4.2,-5.78 2.79,-1.61 6.52,-2.5 10.5,-2.5 3.98,0 7.81,0.9 10.65,2.54 2.76,1.59 4.27,3.67 4.27,5.86 0,2.19 -1.49,4.21 -4.2,5.78 -2.79,1.61 -6.52,2.5 -10.5,2.5 z" id="path545"/><path d="m 623.34961,649.03113 c 3.94,0 7.63,0.88 10.4,2.48 2.59,1.5 4.02,3.43 4.02,5.43 0,2 -1.4,3.87 -3.95,5.34 -2.72,1.57 -6.36,2.43 -10.25,2.43 -3.89,0 -7.63,-0.88 -10.4,-2.48 -2.59,-1.5 -4.02,-3.43 -4.02,-5.43 0,-2 1.4,-3.87 3.95,-5.34 2.72,-1.57 6.36,-2.43 10.25,-2.43 m 0,-1 c -3.9,0 -7.79,0.85 -10.75,2.57 -5.96,3.44 -5.92,9.04 0.08,12.5 3.01,1.74 6.96,2.61 10.9,2.61 3.94,0 7.79,-0.85 10.75,-2.57 5.96,-3.44 5.92,-9.04 -0.08,-12.5 -3.01,-1.74 -6.96,-2.61 -10.9,-2.61 z" id="path547"/><path class="cls-10" d="m 589.17961,660.40113 45.45,0.09 -5.71,-3.29 31.39,-2.82 -45.9,0.08 5.71,3.3 -30.94,2.64" id="path549"/><path class="cls-17" d="m 616.11961,911.02113 c -4.02,0 -7.81,-0.9 -10.65,-2.54 -2.76,-1.59 -4.27,-3.67 -4.27,-5.86 0,-2.19 1.49,-4.21 4.2,-5.78 2.79,-1.61 6.52,-2.5 10.5,-2.5 3.98,0 7.81,0.9 10.65,2.54 2.76,1.59 4.27,3.67 4.27,5.86 0,2.19 -1.49,4.21 -4.2,5.78 -2.79,1.61 -6.52,2.5 -10.5,2.5 z" id="path551"/><path d="m 615.89961,894.84113 c 3.94,0 7.63,0.88 10.4,2.48 2.59,1.5 4.02,3.43 4.02,5.43 0,2 -1.4,3.87 -3.95,5.34 -2.72,1.57 -6.36,2.43 -10.25,2.43 -3.89,0 -7.63,-0.88 -10.4,-2.48 -2.59,-1.5 -4.02,-3.43 -4.02,-5.43 0,-1.98 1.4,-3.87 3.95,-5.34 2.72,-1.57 6.36,-2.43 10.25,-2.43 m 0,-1 c -3.9,0 -7.79,0.85 -10.75,2.57 -5.96,3.44 -5.92,9.04 0.08,12.5 3.01,1.74 6.96,2.61 10.9,2.61 3.94,0 7.79,-0.85 10.75,-2.57 5.96,-3.44 5.92,-9.04 -0.08,-12.5 -3.01,-1.74 -6.96,-2.61 -10.9,-2.61 z" id="path553"/><path class="cls-10" d="m 581.72961,906.21113 45.45,0.09 -5.71,-3.29 31.39,-2.83 -45.9,0.09 5.71,3.29 -30.94,2.65" id="path555"/><path class="cls-7" d="m 634.62961,660.49113 44.92,25.67" id="path557"/></svg>