<svg xmlns="http://www.w3.org/2000/svg" viewBox="248 244 594 594"><defs><style>.cls-1{fill:#b2e3ff;}.cls-2{fill:none;stroke:#b2e3ff;stroke-miterlimit:10;stroke-width:2px;}</style></defs><g><path class="cls-2" d="m755.85,720.64v48.94c0,33.9-94.28,61.39-210.58,61.39s-210.58-27.48-210.58-61.39v-48.94"/><path class="cls-2" d="m755.85,671.71v48.94c0,33.9-94.28,61.39-210.58,61.39s-210.58-27.48-210.58-61.39v-48.94"/><g><ellipse class="cls-2" cx="545.27" cy="622.77" rx="210.58" ry="61.39"/><path class="cls-2" d="m755.85,622.77v48.94c0,33.9-94.28,61.39-210.58,61.39s-210.58-27.48-210.58-61.39v-48.94"/><ellipse class="cls-2" cx="545.27" cy="622.77" rx="141.88" ry="41.36"/></g></g><path class="cls-1" d="m592.71,479.83v-224.39c0-3.54-2.87-6.41-6.41-6.41h-82.06c-3.54,0-6.41,2.87-6.41,6.41v224.39c0,3.54-2.87,6.41-6.41,6.41h-52.53c-5.71,0-8.57,6.91-4.53,10.95l106.38,106.38c2.5,2.5,6.56,2.5,9.07,0l106.38-106.38c4.04-4.04,1.18-10.95-4.53-10.95h-52.53c-3.54,0-6.41-2.87-6.41-6.41Z"/></svg>
