<svg xmlns="http://www.w3.org/2000/svg" viewBox="196 196 688 688"><defs><style>.cls-1{fill:#faff3a;}.cls-1,.cls-2,.cls-3,.cls-4{stroke:#000;stroke-miterlimit:10;stroke-width:2px;}.cls-2{fill:#f9e32a;}.cls-3{fill:#f7c819;}.cls-4{fill:none;}</style></defs><path class="cls-4" d="m524.89,330.2v-77.42c-71.93,0-140.99,28.6-191.85,79.47-50.86,50.86-79.47,119.92-79.47,191.85h77.42c0-107.09,86.82-193.9,193.91-193.9Z"/><path class="cls-3" d="m718.8,524.11h122.28c0-83.83-33.34-164.3-92.61-223.57-59.27-59.27-139.75-92.6-223.57-92.6v122.28c107.09,0,193.91,86.81,193.91,193.9Z"/><path class="cls-1" d="m330.98,524.12h-123.24c0,84.08,33.44,164.8,92.89,224.25,59.45,59.45,140.17,92.89,224.25,92.89v-123.24c-107.09,0-193.91-86.81-193.91-193.9Z"/><path class="cls-4" d="m718.79,524.72c-.33,106.81-87.01,193.3-193.9,193.3v154.05c92.09,0,180.5-36.62,245.62-101.73,65.12-65.11,101.74-153.52,101.74-245.61h-153.46Z"/><path class="cls-3" d="m524.89,524.71h193.9c0-.2,0-.4,0-.6,0,0,0,0,0,0h-193.91v.61Z"/><polygon class="cls-3" points="330.98 524.11 330.98 524.11 330.98 524.12 524.89 524.11 330.98 524.11"/><path class="cls-2" d="m524.89,330.2c-107.09,0-193.91,86.81-193.91,193.9h193.91s0-193.9,0-193.9Z"/><path class="cls-3" d="m524.89,330.2v193.91h193.91c0-107.1-86.82-193.91-193.91-193.91Z"/><path class="cls-2" d="m524.89,718.02v-193.91h-193.91c0,107.1,86.82,193.91,193.91,193.91Z"/><path class="cls-2" d="m524.89,718.02c106.89,0,193.57-86.49,193.9-193.3h-193.9s0,193.3,0,193.3Z"/></svg>
