<svg xmlns="http://www.w3.org/2000/svg" viewBox="238 238 602 602"><defs><style>.cls-1{fill:#fff;}.cls-2{mix-blend-mode:multiply;}.cls-2,.cls-3,.cls-4,.cls-5,.cls-6{stroke:#000;stroke-linecap:round;stroke-linejoin:round;stroke-width:2px;}.cls-2,.cls-4,.cls-5{fill:none;}.cls-3{fill:#faff3a;}.cls-4{stroke-dasharray:0 0 8 15;}.cls-6{fill:#f7c819;}.cls-7{isolation:isolate;}</style></defs><g class="cls-7"><g><path class="cls-4" d="m827.9,601.64c-5.59-20.87-13.37-41.97-23.13-62.98-8.19-17.64-17.79-35.21-28.66-52.53"/><path class="cls-2" d="m618.66,830.48c72.51,15.27,134.6,1.53,174.81-38.68,21.42-21.42,35.78-50.07,41.54-82.85,5.69-32.36,3.29-68.47-7.12-107.32"/><path class="cls-2" d="m539.98,804.11c20.41,9.31,40.91,16.77,61.19,22.2"/><path class="cls-2" d="m287.58,566.01c24.18,44.76,57.12,88.52,96.9,128.16,47.65,47.47,101.29,85.23,155.51,109.95"/><path class="cls-4" d="m252.08,478.4c5.47,20.41,13.03,41.05,22.49,61.6,4,8.69,8.34,17.37,13.01,26.01"/><path class="cls-2" d="m451.04,248.85c-31.5-6.98-60.87-8.41-87.55-4.24-32.47,5.07-60.63,18.75-81.43,39.55h0c-39.22,39.24-51.27,100.6-33.93,172.79,1.08,4.51,2.26,9.01,3.5,13.38"/><path class="cls-2" d="m468.46,253.09c14.79,3.28,29.26,7.82,43.57,12.79,44.58,15.47,84.92,38.58,122.56,67,21.5,16.23,41.83,33.99,60.91,53.01,31.46,31.35,58.65,65.28,80.6,100.25"/><circle class="cls-3" cx="540" cy="540" r="169.22"/><g><path class="cls-6" d="m539.5,455.78c-27.67.27-49.76,23.23-49.76,50.89v26.12h11.7v-26.76c0-21.21,17.35-38.56,38.56-38.56h0c21.21,0,38.56,17.35,38.56,38.56v26.76h11.7v-26.76c0-27.88-22.81-50.52-50.75-50.25Z"/><rect class="cls-6" x="473.39" y="532.8" width="133.22" height="91.43" rx="4.61" ry="4.61"/></g><path class="cls-4" d="m469.17,315.84c18.55-12.52,37.47-23.61,56.51-33.12l14.26-6.81c11.98-5.46,23.99-10.29,35.97-14.45"/><path class="cls-2" d="m469.17,315.84c-29.48,19.9-58.02,43.43-84.69,70-45.33,45.17-81.79,95.71-106.51,146.96l-3.4,7.2c-4.85,10.53-9.19,21.08-13.02,31.61l-7.36,20.08"/><path class="cls-2" d="m489.75,823.15c-3.65,1.1-7.3,2.15-10.94,3.12-39.34,10.54-75.88,13-108.61,7.31-33.17-5.77-62.1-20.22-83.67-41.79h0c-40.68-40.69-54.09-103.41-37.76-176.62"/><path class="cls-4" d="m586.68,779.39c-13.4,8.02-26.94,15.28-40.53,21.73l-6.15,2.86c-16.75,7.64-33.56,14.03-50.26,19.08"/><path class="cls-2" d="m822.99,495.01c-4.58,14.27-10.16,28.61-16.65,42.91l-9.12,18.88c-24.54,47.93-59.23,94.98-101.72,137.31-33.89,33.77-70.81,62.62-108.82,85.36"/><path class="cls-2" d="m575.9,261.46c8.44-2.93,16.87-5.53,25.27-7.77,5.64-1.51,11.52-2.92,17.49-4.17,72.51-15.27,134.6-1.53,174.81,38.68,21.42,21.42,35.78,50.07,41.54,82.85,5.2,29.59,3.64,62.32-4.62,97.41"/><polyline class="cls-5" points="472.72 260.64 467.32 252.52 475.45 247.12"/><path class="cls-1" d="m936.65,601.37c1.93,0,1.93-3,0-3s-1.93,3,0,3h0Z"/><polyline class="cls-5" points="597.75 818.43 602.79 826.78 594.44 831.82"/><polyline class="cls-5" points="263.03 587.55 254.19 591.69 250.06 582.84"/><polyline class="cls-5" points="814.86 498.13 823.33 493.3 828.17 501.77"/></g></g></svg>
