<svg xmlns="http://www.w3.org/2000/svg" viewBox="219 220 640 640"><defs><style>.cls-1{stroke-dasharray:0 0 0 0 24.06 32.08 4.01 8.02;}.cls-1,.cls-2,.cls-3,.cls-4,.cls-5{stroke-linecap:round;stroke-linejoin:round;}.cls-1,.cls-2,.cls-3,.cls-4,.cls-5,.cls-6{fill:none;stroke:#b2e3ff;stroke-width:2px;}.cls-7{fill:#b2e3ff;}.cls-2{stroke-dasharray:0 0 0 0 27.91 37.22 4.65 9.3;}.cls-3{stroke-dasharray:0 0 4.01 8.02;}.cls-4{stroke-dasharray:0 0 4.65 9.3;}.cls-6{stroke-miterlimit:10;}</style></defs><g><g><circle class="cls-6" cx="540" cy="388.98" r="126.64"/><g><line class="cls-6" x1="460.72" y1="533.67" x2="479.11" y2="500.11"/><line class="cls-6" x1="399" y1="474.65" x2="431.71" y2="454.77"/><line class="cls-6" x1="375.06" y1="392.67" x2="413.32" y2="391.81"/><line class="cls-6" x1="395.31" y1="309.7" x2="428.88" y2="328.09"/><line class="cls-6" x1="454.33" y1="247.98" x2="474.21" y2="280.69"/><line class="cls-6" x1="536.31" y1="224.04" x2="537.17" y2="262.3"/><line class="cls-6" x1="619.28" y1="244.29" x2="600.89" y2="277.86"/><line class="cls-6" x1="681" y1="303.32" x2="648.29" y2="323.19"/><line class="cls-6" x1="704.94" y1="385.3" x2="666.68" y2="386.15"/><line class="cls-6" x1="684.69" y1="468.26" x2="651.13" y2="449.87"/><line class="cls-6" x1="625.67" y1="529.98" x2="605.79" y2="497.28"/></g></g><g><path class="cls-7" d="m636.41,388.98c0-52.84-42.51-95.75-95.2-96.4-52.69-.65-96.48,41.62-97.59,94.31-.61,28.8,11.41,54.8,30.9,72.84,16.58,15.35,26.04,36.9,26.04,59.5h0s85.95,0,85.95,0v-6.91c0-21.11,8.32-41.3,22.96-56.5,16.68-17.33,26.94-40.89,26.94-66.84Z"/><path class="cls-6" d="m592.51,519.23h-98.4c-2.76,0-5,2.24-5,5v28.2c0,.98.29,1.93.83,2.75l9.71,14.73c.54.82.83,1.77.83,2.75v10.97c0,2.76,2.24,5,5,5h75.69c2.76,0,5-2.24,5-5v-10.97c0-.98.29-1.93.83-2.75l9.71-14.73c.54-.82.83-1.77.83-2.75v-28.2c0-2.76-2.24-5-5-5Z"/></g></g><g><line class="cls-5" x1="311.69" y1="731.14" x2="311.69" y2="716.14"/><path class="cls-4" d="m321.24,680.93c1.82-2.53,3.86-4.88,6.1-7.03"/><path class="cls-2" d="m330.84,670.84c8.68-6.93,19.69-11.07,31.66-11.07h354.99c28.06,0,50.81,22.75,50.81,50.81v.9"/><line class="cls-5" x1="768.31" y1="716.14" x2="768.31" y2="731.14"/></g><g><line class="cls-5" x1="540" y1="588.64" x2="540" y2="603.64"/><line class="cls-3" x1="540" y1="635.71" x2="540" y2="643.73"/><line class="cls-1" x1="540" y1="647.74" x2="540" y2="711.9"/><line class="cls-5" x1="540" y1="715.91" x2="540" y2="730.91"/></g><g><circle class="cls-6" cx="311.69" cy="794.21" r="61.78"/><circle class="cls-7" cx="311.69" cy="794.27" r="49.18"/></g><g><circle class="cls-6" cx="540" cy="794.21" r="61.78"/><circle class="cls-7" cx="540" cy="794.27" r="49.18"/></g><g><circle class="cls-6" cx="768.31" cy="794.21" r="61.78"/><circle class="cls-7" cx="768.31" cy="794.27" r="49.18"/></g></svg>
