<svg version="1.1" width="886" height="886" xmlns="http://www.w3.org/2000/svg"><defs id="defs11"><style id="style9">.cls-1,.cls-2,.cls-3,.cls-4,.cls-5{stroke-linecap:round;stroke-linejoin:round}.cls-1,.cls-2,.cls-3,.cls-4,.cls-5,.cls-6,.cls-7,.cls-8{stroke:#000}.cls-1,.cls-7{fill:#d9fc83}.cls-2{fill:#324108}.cls-3{fill:#faff3a}.cls-4,.cls-6{fill:#fff}.cls-5{fill:none}.cls-6,.cls-7,.cls-8{stroke-miterlimit:10}.cls-8{fill:#b2e3ff}</style></defs><g id="g43" transform="translate(-99.79 -78.16)"><path class="cls-5" id="polyline13" d="M507.6 868.86 453.45 837.59 345.14 900.13 399.29 931.4"/><path class="cls-5" id="polyline15" d="M453.45 837.59 399.74 806.1 453.51 775.05 482.28 791.37 453.67 805.81 480.21 821.44"/><path class="cls-5" id="polyline17" d="M507.6 868.86 561.3 899.69 615.48 868.28"/><ellipse class="cls-8" cx="616.8" cy="868.34" rx="9.16" ry="15.87" transform="rotate(-89.64 616.793 868.345)" id="ellipse19"/><ellipse class="cls-8" cx="453.51" cy="775.05" rx="9.16" ry="15.87" transform="rotate(-89.64 453.496 775.052)" id="ellipse21"/><ellipse class="cls-8" cx="507.6" cy="868.34" rx="9.16" ry="15.87" transform="rotate(-89.64 507.594 868.342)" id="ellipse23"/><ellipse cx="507.6" cy="868.86" rx="2.37" ry="4.11" transform="rotate(-89.64 507.596 868.854)" id="ellipse25" style="stroke-miterlimit:10;stroke:#b2e3ff"/><path class="cls-5" id="line27" d="M507.11 618.09 507.6 868.86"/><path class="cls-5" id="polyline29" d="M518.78 861.89 561.54 837.08 534.37 821.44 565.29 802.68"/><ellipse class="cls-8" cx="565.29" cy="802.68" rx="9.16" ry="15.87" transform="rotate(-89.64 565.285 802.68)" id="ellipse31"/><path class="cls-5" id="polyline33" d="M446.25 871.05 415.33 889.81 442.5 905.45 399.74 930.26 453.14 962.15 507.6 930.7"/><ellipse class="cls-8" cx="446.25" cy="871.05" rx="9.16" ry="15.87" transform="rotate(-89.64 446.244 871.048)" id="ellipse35"/><ellipse class="cls-8" cx="398.98" cy="931.4" rx="9.16" ry="15.87" transform="rotate(-89.64 398.98 931.39)" id="ellipse37"/><ellipse class="cls-8" cx="507.6" cy="930.88" rx="9.16" ry="15.87" transform="rotate(-89.64 507.59 930.879)" id="ellipse39"/><ellipse class="cls-8" cx="480.21" cy="822.82" rx="9.16" ry="15.87" transform="rotate(-89.64 480.205 822.814)" id="ellipse41"/></g><g id="g67" transform="translate(-99.79 -78.16)"><g id="g59"><path class="cls-7" id="polygon45" d="M762.79 632.43 310.59 371.35 310.59 87.01 762.79 348.08z"/><g id="g57"><path class="cls-2" id="polygon47" d="M762.79 370.53 310.59 109.46 310.59 87.01 762.79 348.08z"/><g id="g55"><ellipse class="cls-4" cx="320.94" cy="104.34" rx="4.73" ry="8.18" transform="rotate(-30.36 320.94 104.33)" id="ellipse49"/><path class="cls-5" id="line51" d="M318.97 100.9 322.9 107.67"/><path class="cls-5" id="line53" d="M322.9 103.17 318.97 105.4"/></g></g></g><path class="cls-2" id="polygon61" d="M774.46 625.81 762.79 632.55 762.79 347.6 774.46 340.86z"/><path class="cls-2" id="polygon63" d="M762.77 348.21 310.59 87.01 322.28 79.66 774.46 340.86z"/><path class="cls-1" id="polygon65" d="M762.79 370.53 774.46 363.79 774.46 625.81 762.79 632.55z"/></g><g id="g91" transform="translate(-99.79 -78.16)"><g id="g83"><path class="cls-7" id="polygon69" d="M837.25 823.87 385.05 562.8 385.05 278.46 837.25 539.53z"/><g id="g81"><path class="cls-2" id="polygon71" d="M837.25 561.98 385.05 300.91 385.05 278.46 837.25 539.53z"/><g id="g79"><ellipse class="cls-4" cx="395.4" cy="295.79" rx="4.73" ry="8.18" transform="rotate(-30.36 395.4 295.792)" id="ellipse73"/><path class="cls-5" id="line75" d="M393.43 292.35 397.36 299.12"/><path class="cls-5" id="line77" d="M397.36 294.62 393.43 296.85"/></g></g></g><path class="cls-2" id="polygon85" d="M848.92 817.26 837.25 824 837.25 539.05 848.92 532.31z"/><path class="cls-2" id="polygon87" d="M837.23 539.66 385.05 278.46 396.74 271.11 848.92 532.31z"/><path class="cls-1" id="polygon89" d="M837.25 561.98 848.92 555.24 848.92 817.26 837.25 824z"/></g><g id="g123" transform="translate(-99.79 -78.16)"><g id="g97"><path d="m 679.84,722.59 c 1.41,-5.44 2.15,-11.56 2.15,-18.32 0,-43.14 -30.51,-95.73 -68.14,-117.46 -6.32,-3.65 -12.44,-6.17 -18.25,-7.68 -15.1,-43.35 -46.32,-85.17 -82.39,-106 -27.57,-15.92 -52.3,-16.29 -69.17,-4.01 v 0 c 0,0 -10.62,6.55 -10.62,6.55 -0.86,0.49 -1.69,1.01 -2.52,1.55 l -0.13,0.08 v 0 c -9.18,6.14 -16.19,15.87 -20.26,28.76 0,0 0,0 0,0 -16.32,-6.49 -30.71,-5.21 -41.02,2.58 v 0 l -9.92,6.21 c -13.07,6.69 -21.23,22.07 -21.23,44.37 0,41.57 28.33,91.9 64.06,114.95 v 0.15 c 0,0 253.33,146.26 253.33,146.26 v -0.04 c 0.43,0.26 0.85,0.53 1.28,0.77 12.07,6.97 22.93,7.33 30.52,2.28 v 0 c 0,0 13.73,-8.6 13.73,-8.6 v -0.02 c 7.39,-4.33 11.95,-13.47 11.95,-26.49 0,-23.08 -14.34,-50.6 -33.36,-65.93 z" id="path93" style="stroke-miterlimit:10;fill:#324108;stroke:#000"/><path class="cls-1" d="m 665.16,731.22 c 1.41,-5.44 2.15,-11.56 2.15,-18.32 0,-43.14 -30.51,-95.73 -68.14,-117.46 -6.32,-3.65 -12.44,-6.17 -18.25,-7.68 -15.1,-43.35 -46.32,-85.17 -82.39,-106 -46.63,-26.92 -85.16,-9.42 -91.22,38.63 -0.28,-0.17 -0.56,-0.34 -0.84,-0.51 -37.63,-21.73 -68.14,-4.37 -68.14,38.77 0,41.57 28.33,91.9 64.06,114.95 v 0.15 c 0,0 253.33,146.26 253.33,146.26 v -0.04 c 0.43,0.26 0.85,0.53 1.28,0.77 22.93,13.24 41.52,2.66 41.52,-23.62 0,-23.08 -14.34,-50.6 -33.36,-65.93 z" id="path95"/></g><g id="g121"><g id="g113"><ellipse class="cls-3" cx="508.95" cy="631.09" rx="29.19" ry="50.56" transform="rotate(-30.36 508.963 631.096)" id="ellipse99"/><path class="cls-5" id="line101" d="M473.53 612.83 544.59 653.55"/><path class="cls-5" d="m 478.98,591.16 c 0,0 28.54,29.12 59.35,34.27" id="path103"/><path class="cls-5" d="m 479.94,637.49 c 0,0 27.58,3.84 58.39,34.27" id="path105"/><path class="cls-5" id="line107" d="M508.19 671.79 508.19 589.52"/><path class="cls-5" d="m 494.29,660.18 c -3.01,-13.6 -8.79,-47.44 0.47,-75.01" id="path109"/><path class="cls-5" d="m 523.77,677.12 c 3.01,-10.19 8.75,-37.31 -0.49,-75.48" id="path111"/></g><ellipse class="cls-3" cx="550.41" cy="619.58" rx="7.82" ry="13.54" transform="rotate(-30.36 550.427 619.593)" id="ellipse115"/><path class="cls-5" d="m 476.61,657.9 c -4.73,-7.01 -8.86,-14.72 -12.09,-22.85 -14.15,-35.62 -6.1,-66.9 17.84,-69.3 15.92,-1.6 35.77,9.88 51.68,29.89" id="path117"/><path class="cls-5" d="m 556.91,642.87 c 6.31,28.98 -3.17,50.74 -22.95,52.72 -14.07,1.41 -30.7,-7.45 -44.9,-22.23" id="path119"/></g></g><g id="g129" transform="translate(-99.79 -78.16)"><path class="cls-6" d="m 597.92,730.8 c 0,0 -0.08,-0.02 -0.11,-0.04 0.04,0.01 0.08,0.02 0.11,0.04 z m 1.05,0.44 c -0.08,-0.04 -0.16,-0.08 -0.25,-0.12 0.08,0.04 0.16,0.08 0.25,0.12 z m -0.37,-0.18 c -0.07,-0.03 -0.13,-0.06 -0.2,-0.08 0.07,0.03 0.13,0.06 0.2,0.08 z m -0.35,-0.15 c -0.05,-0.02 -0.11,-0.04 -0.16,-0.06 0.05,0.02 0.11,0.04 0.16,0.06 z m 1.15,0.56 c -0.12,-0.07 -0.23,-0.13 -0.35,-0.19 0.11,0.06 0.23,0.12 0.35,0.19 0.03,0.02 0.06,0.04 0.09,0.05 0,0 0,-0.01 0,-0.02 0,0 0,0.01 0,0.02 -0.03,-0.02 -0.06,-0.04 -0.09,-0.05 z m 0.43,-1.53 c 0,0 0,0 0,0 0,0 0,0 0,0 z m -0.14,0.49 c 0,0 0,0.01 0,0.02 0,0 0,-0.01 0,-0.02 z m -0.06,0.24 c 0,0 -0.01,0.05 -0.02,0.07 0,-0.02 0.01,-0.05 0.02,-0.07 z m -0.05,0.25 c 0,0 -0.01,0.06 -0.02,0.09 0,-0.03 0.01,-0.06 0.02,-0.09 z m -0.05,0.26 c 0,0 0,0.06 -0.01,0.08 0,-0.03 0,-0.06 0.01,-0.08 z m 27.39,22.83 c 0,0 -0.06,-0.06 -0.09,-0.09 0.03,0.03 0.06,0.06 0.09,0.09 z m -19.6,-27.29 c 0,0 -0.05,-0.02 -0.08,-0.03 0.03,0 0.05,0.02 0.08,0.03 z m -0.3,-0.11 c 0,0 -0.02,0 -0.03,0 0,0 0.02,0 0.03,0 z m -0.29,-0.09 c 0,0 0,0 0,0 0,0 0,0 0,0 z m -0.26,-0.07 c 0,0 -0.02,0 -0.03,0 0,0 0.02,0 0.03,0 z m -0.27,-0.07 c 0,0 0,0 0,0 0,0 0,0 0,0 z m 1.64,0.56 c 0,0 -0.05,-0.02 -0.07,-0.03 0.02,0.01 0.05,0.02 0.07,0.03 z m -0.26,-0.11 c 0,0 -0.06,-0.02 -0.09,-0.04 0.03,0.01 0.06,0.02 0.09,0.04 z m 11.83,12.49 c -0.66,-0.38 -1.29,-0.64 -1.9,-0.8 -1.57,-4.5 -4.81,-8.85 -8.56,-11.01 -0.04,-0.02 -0.07,-0.04 -0.11,-0.06 0.04,0.02 0.07,0.04 0.11,0.06 3.75,2.16 6.99,6.51 8.56,11.01 0.6,0.16 1.24,0.42 1.9,0.8 3.91,2.26 7.08,7.72 7.08,12.2 0,0.18 0,0.35 -0.01,0.51 0,-0.17 0.01,-0.34 0.01,-0.51 0,-4.48 -3.17,-9.95 -7.08,-12.2 z m -11.34,-12.27 c 0,0 0.08,0.04 0.11,0.05 -0.04,-0.02 -0.08,-0.04 -0.11,-0.05 z m 0.25,0.12 c 0,0 0.08,0.04 0.13,0.06 -0.04,-0.02 -0.08,-0.04 -0.13,-0.06 z m 0.26,0.13 c 0,0 0.09,0.05 0.13,0.07 -0.04,-0.02 -0.09,-0.05 -0.13,-0.07 z m 18.16,26.54 c 0,0 -0.07,-0.06 -0.1,-0.1 0.03,0.03 0.07,0.06 0.1,0.1 z m -0.17,-0.16 c 0,0 -0.08,-0.07 -0.12,-0.11 0.04,0.03 0.08,0.07 0.12,0.11 z m -0.3,-0.26 c 0.06,0.05 0.12,0.1 0.17,0.15 -0.06,-0.05 -0.12,-0.1 -0.17,-0.15 0,0 0,0 0,0 z m 0.74,0.68 c 0,0 0.05,0.05 0.08,0.08 -0.03,-0.03 -0.05,-0.05 -0.08,-0.08 z m 0.18,0.2 c 0,0 0.04,0.05 0.06,0.07 -0.02,-0.02 -0.04,-0.05 -0.06,-0.07 z m 0.18,0.21 c 0,0 0.03,0.03 0.04,0.05 -0.01,-0.02 -0.03,-0.03 -0.04,-0.05 z m 0.18,0.22 c 0,0 0.02,0.02 0.02,0.03 0,0 -0.02,-0.02 -0.02,-0.03 z" id="path125"/><path class="cls-6" d="m 626.27,753.43 c 0.15,-0.57 0.22,-1.2 0.22,-1.9 0,-4.48 -3.17,-9.95 -7.08,-12.2 -0.66,-0.38 -1.29,-0.64 -1.9,-0.8 -1.57,-4.5 -4.81,-8.85 -8.56,-11.01 -4.84,-2.8 -8.85,-0.98 -9.48,4.01 -0.03,-0.02 -0.06,-0.04 -0.09,-0.05 -3.91,-2.26 -7.08,-0.45 -7.08,4.03 0,4.32 2.94,9.55 6.66,11.94 v 0.02 c 0,0 26.32,15.2 26.32,15.2 v 0 c 0,0 0.09,0.05 0.13,0.08 2.38,1.38 4.31,0.28 4.31,-2.45 0,-2.4 -1.49,-5.26 -3.47,-6.85 z" id="path127"/></g><g id="g135" transform="translate(-99.79 -78.16)"><path class="cls-6" d="m 587.36,658.04 c 0,0 -0.08,-0.02 -0.11,-0.04 0.04,0.01 0.08,0.02 0.11,0.04 z m 1.05,0.44 c -0.08,-0.04 -0.16,-0.08 -0.25,-0.12 0.08,0.04 0.16,0.08 0.25,0.12 z m -0.37,-0.18 c -0.07,-0.03 -0.13,-0.06 -0.2,-0.08 0.07,0.03 0.13,0.06 0.2,0.08 z m -0.35,-0.15 c -0.05,-0.02 -0.11,-0.04 -0.16,-0.06 0.05,0.02 0.11,0.04 0.16,0.06 z m 1.15,0.56 c -0.12,-0.07 -0.23,-0.13 -0.35,-0.19 0.11,0.06 0.23,0.12 0.35,0.19 0.03,0.02 0.06,0.04 0.09,0.05 0,0 0,-0.01 0,-0.02 0,0 0,0.01 0,0.02 -0.03,-0.02 -0.06,-0.04 -0.09,-0.05 z m 0.43,-1.53 c 0,0 0,0 0,0 0,0 0,0 0,0 z m -0.14,0.49 c 0,0 0,0.01 0,0.02 0,0 0,-0.01 0,-0.02 z m -0.06,0.24 c 0,0 -0.01,0.05 -0.02,0.07 0,-0.02 0.01,-0.05 0.02,-0.07 z m -0.05,0.25 c 0,0 -0.01,0.06 -0.02,0.09 0,-0.03 0.01,-0.06 0.02,-0.09 z m -0.05,0.26 c 0,0 0,0.06 -0.01,0.08 0,-0.03 0,-0.06 0.01,-0.08 z m 27.39,22.83 c 0,0 -0.06,-0.06 -0.09,-0.09 0.03,0.03 0.06,0.06 0.09,0.09 z m -19.6,-27.29 c 0,0 -0.05,-0.02 -0.08,-0.03 0.03,0 0.05,0.02 0.08,0.03 z m -0.3,-0.11 c 0,0 -0.02,0 -0.03,0 0,0 0.02,0 0.03,0 z m -0.29,-0.09 c 0,0 0,0 0,0 0,0 0,0 0,0 z m -0.26,-0.07 c 0,0 -0.02,0 -0.03,0 0,0 0.02,0 0.03,0 z m -0.27,-0.07 c 0,0 0,0 0,0 0,0 0,0 0,0 z m 1.64,0.56 c 0,0 -0.05,-0.02 -0.07,-0.03 0.02,0.01 0.05,0.02 0.07,0.03 z m -0.26,-0.11 c 0,0 -0.06,-0.02 -0.09,-0.04 0.03,0.01 0.06,0.02 0.09,0.04 z m 11.83,12.49 c -0.66,-0.38 -1.29,-0.64 -1.9,-0.8 -1.57,-4.5 -4.81,-8.85 -8.56,-11.01 -0.04,-0.02 -0.07,-0.04 -0.11,-0.06 0.04,0.02 0.07,0.04 0.11,0.06 3.75,2.16 6.99,6.51 8.56,11.01 0.6,0.16 1.24,0.42 1.9,0.8 3.91,2.26 7.08,7.72 7.08,12.2 0,0.18 0,0.35 -0.01,0.51 0,-0.17 0.01,-0.34 0.01,-0.51 0,-4.48 -3.17,-9.95 -7.08,-12.2 z m -11.34,-12.27 c 0,0 0.08,0.04 0.11,0.05 -0.04,-0.02 -0.08,-0.04 -0.11,-0.05 z m 0.25,0.12 c 0,0 0.08,0.04 0.13,0.06 -0.04,-0.02 -0.08,-0.04 -0.13,-0.06 z m 0.26,0.13 c 0,0 0.09,0.05 0.13,0.07 -0.04,-0.02 -0.09,-0.05 -0.13,-0.07 z m 18.16,26.54 c 0,0 -0.07,-0.06 -0.1,-0.1 0.03,0.03 0.07,0.06 0.1,0.1 z m -0.17,-0.16 c 0,0 -0.08,-0.07 -0.12,-0.11 0.04,0.03 0.08,0.07 0.12,0.11 z m -0.3,-0.26 c 0.06,0.05 0.12,0.1 0.17,0.15 -0.06,-0.05 -0.12,-0.1 -0.17,-0.15 0,0 0,0 0,0 z m 0.74,0.68 c 0,0 0.05,0.05 0.08,0.08 -0.03,-0.03 -0.05,-0.05 -0.08,-0.08 z m 0.18,0.2 c 0,0 0.04,0.05 0.06,0.07 -0.02,-0.02 -0.04,-0.05 -0.06,-0.07 z m 0.18,0.21 c 0,0 0.03,0.03 0.04,0.05 -0.01,-0.02 -0.03,-0.03 -0.04,-0.05 z m 0.18,0.22 c 0,0 0.02,0.02 0.02,0.03 0,0 -0.02,-0.02 -0.02,-0.03 z" id="path131"/><path class="cls-6" d="m 615.71,680.67 c 0.15,-0.57 0.22,-1.2 0.22,-1.9 0,-4.48 -3.17,-9.95 -7.08,-12.2 -0.66,-0.38 -1.29,-0.64 -1.9,-0.8 -1.57,-4.5 -4.81,-8.85 -8.56,-11.01 -4.84,-2.8 -8.85,-0.98 -9.48,4.01 -0.03,-0.02 -0.06,-0.04 -0.09,-0.05 -3.91,-2.26 -7.08,-0.45 -7.08,4.03 0,4.32 2.94,9.55 6.66,11.94 v 0.02 c 0,0 26.32,15.2 26.32,15.2 v 0 c 0,0 0.09,0.05 0.13,0.08 2.38,1.38 4.31,0.28 4.31,-2.45 0,-2.4 -1.49,-5.26 -3.47,-6.85 z" id="path133"/></g><g id="g141" transform="translate(-99.79 -78.16)"><path class="cls-6" d="m 384.55,556.26 c 0,0 -0.08,-0.02 -0.11,-0.04 0.04,0.01 0.08,0.02 0.11,0.04 z m 1.05,0.44 c -0.08,-0.04 -0.16,-0.08 -0.25,-0.12 0.08,0.04 0.16,0.08 0.25,0.12 z m -0.37,-0.18 c -0.07,-0.03 -0.13,-0.06 -0.2,-0.08 0.07,0.03 0.13,0.06 0.2,0.08 z m -0.35,-0.15 c -0.05,-0.02 -0.11,-0.04 -0.16,-0.06 0.05,0.02 0.11,0.04 0.16,0.06 z m 1.15,0.56 c -0.12,-0.07 -0.23,-0.13 -0.35,-0.19 0.11,0.06 0.23,0.12 0.35,0.19 0.03,0.02 0.06,0.04 0.09,0.05 0,0 0,-0.01 0,-0.02 0,0 0,0.01 0,0.02 -0.03,-0.02 -0.06,-0.04 -0.09,-0.05 z m 0.43,-1.53 c 0,0 0,0 0,0 0,0 0,0 0,0 z m -0.14,0.49 c 0,0 0,0.01 0,0.02 0,0 0,-0.01 0,-0.02 z m -0.06,0.24 c 0,0 -0.01,0.05 -0.02,0.07 0,-0.02 0.01,-0.05 0.02,-0.07 z m -0.05,0.25 c 0,0 -0.01,0.06 -0.02,0.09 0,-0.03 0.01,-0.06 0.02,-0.09 z m -0.05,0.26 c 0,0 0,0.06 -0.01,0.08 0,-0.03 0,-0.06 0.01,-0.08 z m 27.39,22.83 c 0,0 -0.06,-0.06 -0.09,-0.09 0.03,0.03 0.06,0.06 0.09,0.09 z m -19.6,-27.29 c 0,0 -0.05,-0.02 -0.08,-0.03 0.03,0 0.05,0.02 0.08,0.03 z m -0.3,-0.11 c 0,0 -0.02,0 -0.03,0 0,0 0.02,0 0.03,0 z m -0.29,-0.09 c 0,0 0,0 0,0 0,0 0,0 0,0 z m -0.26,-0.07 c 0,0 -0.02,0 -0.03,0 0,0 0.02,0 0.03,0 z m -0.27,-0.07 c 0,0 0,0 0,0 0,0 0,0 0,0 z m 1.64,0.56 c 0,0 -0.05,-0.02 -0.07,-0.03 0.02,0.01 0.05,0.02 0.07,0.03 z m -0.26,-0.11 c 0,0 -0.06,-0.02 -0.09,-0.04 0.03,0.01 0.06,0.02 0.09,0.04 z m 11.83,12.49 c -0.66,-0.38 -1.29,-0.64 -1.9,-0.8 -1.57,-4.5 -4.81,-8.85 -8.56,-11.01 -0.04,-0.02 -0.07,-0.04 -0.11,-0.06 0.04,0.02 0.07,0.04 0.11,0.06 3.75,2.16 6.99,6.51 8.56,11.01 0.6,0.16 1.24,0.42 1.9,0.8 3.91,2.26 7.08,7.72 7.08,12.2 0,0.18 0,0.35 -0.01,0.51 0,-0.17 0.01,-0.34 0.01,-0.51 0,-4.48 -3.17,-9.95 -7.08,-12.2 z M 394.7,552.51 c 0,0 0.08,0.04 0.11,0.05 -0.04,-0.02 -0.08,-0.04 -0.11,-0.05 z m 0.25,0.12 c 0,0 0.08,0.04 0.13,0.06 -0.04,-0.02 -0.08,-0.04 -0.13,-0.06 z m 0.26,0.13 c 0,0 0.09,0.05 0.13,0.07 -0.04,-0.02 -0.09,-0.05 -0.13,-0.07 z m 18.16,26.54 c 0,0 -0.07,-0.06 -0.1,-0.1 0.03,0.03 0.07,0.06 0.1,0.1 z m -0.17,-0.16 c 0,0 -0.08,-0.07 -0.12,-0.11 0.04,0.03 0.08,0.07 0.12,0.11 z m -0.3,-0.26 c 0.06,0.05 0.12,0.1 0.17,0.15 -0.06,-0.05 -0.12,-0.1 -0.17,-0.15 0,0 0,0 0,0 z m 0.74,0.68 c 0,0 0.05,0.05 0.08,0.08 -0.03,-0.03 -0.05,-0.05 -0.08,-0.08 z m 0.18,0.2 c 0,0 0.04,0.05 0.06,0.07 -0.02,-0.02 -0.04,-0.05 -0.06,-0.07 z m 0.18,0.21 c 0,0 0.03,0.03 0.04,0.05 -0.01,-0.02 -0.03,-0.03 -0.04,-0.05 z m 0.18,0.22 c 0,0 0.02,0.02 0.02,0.03 0,0 -0.02,-0.02 -0.02,-0.03 z" id="path137"/><path class="cls-6" d="m 412.9,578.89 c 0.15,-0.57 0.22,-1.2 0.22,-1.9 0,-4.48 -3.17,-9.95 -7.08,-12.2 -0.66,-0.38 -1.29,-0.64 -1.9,-0.8 -1.57,-4.5 -4.81,-8.85 -8.56,-11.01 -4.84,-2.8 -8.85,-0.98 -9.48,4.01 -0.03,-0.02 -0.06,-0.04 -0.09,-0.05 -3.91,-2.26 -7.08,-0.45 -7.08,4.03 0,4.48 2.94,9.55 6.66,11.94 v 0.02 c 0,0 26.32,15.2 26.32,15.2 v 0 c 0,0 0.09,0.05 0.13,0.08 2.38,1.38 4.31,0.28 4.31,-2.45 0,-2.4 -1.49,-5.26 -3.47,-6.85 z" id="path139"/></g><g id="g147" transform="translate(-99.79 -78.16)"><path class="cls-6" d="m 739.14,400.67 c -0.12,-0.04 -0.25,-0.08 -0.37,-0.12 0.12,0.04 0.25,0.07 0.37,0.12 z m 3.43,1.45 c -0.27,-0.14 -0.54,-0.27 -0.8,-0.39 0.27,0.12 0.53,0.26 0.8,0.39 z m -1.21,-0.58 c -0.21,-0.1 -0.43,-0.19 -0.64,-0.28 0.21,0.09 0.43,0.18 0.64,0.28 z m -1.13,-0.47 c -0.18,-0.07 -0.35,-0.13 -0.53,-0.2 0.18,0.06 0.35,0.13 0.53,0.2 z m 3.75,1.81 c -0.38,-0.22 -0.75,-0.42 -1.13,-0.62 0.37,0.2 0.75,0.4 1.13,0.62 0.1,0.05 0.19,0.12 0.28,0.17 0,-0.02 0,-0.04 0,-0.06 0,0.02 0,0.04 0,0.06 -0.09,-0.06 -0.19,-0.12 -0.28,-0.17 z m 1.4,-4.98 c 0,0 0,0 0,0 0,0 0,0 0,0 z m -0.46,1.61 c 0,0 -0.01,0.05 -0.02,0.07 0,-0.02 0.01,-0.05 0.02,-0.07 z m -0.18,0.77 c -0.02,0.08 -0.03,0.16 -0.05,0.24 0.02,-0.08 0.03,-0.16 0.05,-0.24 z m -0.16,0.8 c -0.02,0.09 -0.04,0.19 -0.05,0.28 0.02,-0.1 0.04,-0.19 0.05,-0.28 z m -0.15,0.85 c -0.01,0.09 -0.03,0.18 -0.04,0.28 0.01,-0.09 0.03,-0.18 0.04,-0.28 z m 89.46,74.57 c -0.1,-0.1 -0.19,-0.19 -0.29,-0.29 0.1,0.09 0.19,0.19 0.29,0.29 z m -64.03,-89.13 c -0.09,-0.03 -0.17,-0.06 -0.26,-0.1 0.09,0.03 0.17,0.06 0.26,0.1 z m -0.98,-0.35 c 0,0 -0.06,-0.02 -0.08,-0.03 0.03,0 0.06,0.02 0.08,0.03 z m -0.94,-0.3 c 0,0 -0.02,0 -0.03,0 0,0 0.02,0 0.03,0 z m -0.84,-0.24 c 0,0 -0.06,-0.02 -0.09,-0.03 0.03,0 0.06,0.02 0.09,0.03 z m -0.89,-0.22 c 0,0 -0.01,0 -0.02,0 0,0 0.01,0 0.02,0 z m 5.34,1.82 c -0.08,-0.04 -0.16,-0.07 -0.24,-0.1 0.08,0.04 0.16,0.07 0.24,0.1 z m -0.84,-0.36 c -0.1,-0.04 -0.19,-0.08 -0.29,-0.12 0.1,0.04 0.19,0.08 0.29,0.12 z m 38.66,40.81 c -2.15,-1.24 -4.22,-2.1 -6.19,-2.61 -5.12,-14.71 -15.72,-28.9 -27.96,-35.97 -0.11,-0.07 -0.23,-0.13 -0.34,-0.19 0.11,0.06 0.23,0.13 0.34,0.19 12.24,7.07 22.84,21.26 27.96,35.97 1.97,0.51 4.05,1.37 6.19,2.61 12.77,7.37 23.13,25.22 23.13,39.86 0,0.57 -0.02,1.13 -0.05,1.68 0.03,-0.55 0.05,-1.11 0.05,-1.68 0,-14.64 -10.35,-32.49 -23.12,-39.86 z m -37.04,-40.09 c 0.12,0.06 0.25,0.12 0.37,0.18 -0.12,-0.06 -0.25,-0.12 -0.37,-0.18 z m 0.82,0.4 c 0.14,0.07 0.28,0.14 0.41,0.21 -0.14,-0.07 -0.28,-0.14 -0.41,-0.21 z m 0.84,0.43 c 0.14,0.07 0.28,0.15 0.42,0.23 -0.14,-0.08 -0.28,-0.15 -0.42,-0.23 z m 59.32,86.69 c -0.11,-0.11 -0.22,-0.21 -0.33,-0.31 0.11,0.1 0.22,0.21 0.33,0.31 z m -0.56,-0.51 c -0.13,-0.12 -0.26,-0.24 -0.39,-0.35 0.13,0.11 0.26,0.23 0.39,0.35 z m -1,-0.85 c 0.19,0.15 0.38,0.31 0.57,0.48 -0.19,-0.16 -0.38,-0.32 -0.57,-0.47 0,0 0,0 0,0 z m 2.43,2.23 c 0.08,0.09 0.16,0.17 0.25,0.26 -0.08,-0.09 -0.16,-0.17 -0.25,-0.26 z m 0.6,0.64 c 0.07,0.07 0.13,0.15 0.2,0.22 -0.07,-0.07 -0.13,-0.15 -0.2,-0.22 z m 0.6,0.67 c 0.05,0.06 0.1,0.11 0.14,0.17 -0.05,-0.06 -0.1,-0.11 -0.14,-0.17 z m 0.6,0.71 c 0,0 0.05,0.06 0.08,0.09 -0.03,-0.03 -0.05,-0.06 -0.08,-0.09 z" id="path143"/><path class="cls-6" d="m 831.77,474.6 c 0.48,-1.85 0.73,-3.92 0.73,-6.22 0,-14.64 -10.35,-32.49 -23.12,-39.86 -2.15,-1.24 -4.22,-2.1 -6.19,-2.61 -5.12,-14.71 -15.72,-28.9 -27.96,-35.97 -15.82,-9.14 -28.9,-3.2 -30.95,13.11 -0.09,-0.06 -0.19,-0.12 -0.28,-0.17 -12.77,-7.37 -23.12,-1.48 -23.12,13.16 0,14.11 9.61,31.19 21.74,39.01 v 0.05 c 0,0 85.97,49.64 85.97,49.64 v 0 c 0.14,0.08 0.29,0.17 0.43,0.25 7.78,4.49 14.09,0.9 14.09,-8.02 0,-7.83 -4.87,-17.17 -11.32,-22.37 z" id="path145"/></g><g id="g153" transform="translate(-99.79 -78.16)"><path class="cls-6" d="m 254.55,326.52 c -0.12,-0.04 -0.25,-0.08 -0.37,-0.12 0.12,0.04 0.25,0.07 0.37,0.12 z m 3.43,1.45 c -0.27,-0.14 -0.54,-0.27 -0.8,-0.39 0.27,0.12 0.53,0.26 0.8,0.39 z m -1.21,-0.58 c -0.21,-0.1 -0.43,-0.19 -0.64,-0.28 0.21,0.09 0.43,0.18 0.64,0.28 z m -1.13,-0.47 c -0.18,-0.07 -0.35,-0.13 -0.53,-0.2 0.18,0.06 0.35,0.13 0.53,0.2 z m 3.75,1.81 c -0.38,-0.22 -0.75,-0.42 -1.13,-0.62 0.37,0.2 0.75,0.4 1.13,0.62 0.1,0.05 0.19,0.12 0.28,0.17 0,-0.02 0,-0.04 0,-0.06 0,0.02 0,0.04 0,0.06 -0.09,-0.06 -0.19,-0.12 -0.28,-0.17 z m 1.4,-4.98 c 0,0 0,0 0,0 0,0 0,0 0,0 z m -0.46,1.61 c 0,0 -0.01,0.05 -0.02,0.07 0,-0.02 0.01,-0.05 0.02,-0.07 z m -0.18,0.77 c -0.02,0.08 -0.03,0.16 -0.05,0.24 0.02,-0.08 0.03,-0.16 0.05,-0.24 z m -0.16,0.8 c -0.02,0.09 -0.04,0.19 -0.05,0.28 0.02,-0.1 0.04,-0.19 0.05,-0.28 z m -0.15,0.85 c -0.01,0.09 -0.03,0.18 -0.04,0.28 0.01,-0.09 0.03,-0.18 0.04,-0.28 z m 89.46,74.57 c -0.1,-0.1 -0.19,-0.19 -0.29,-0.29 0.1,0.09 0.19,0.19 0.29,0.29 z m -64.03,-89.13 c -0.09,-0.03 -0.17,-0.06 -0.26,-0.1 0.09,0.03 0.17,0.06 0.26,0.1 z m -0.98,-0.35 c 0,0 -0.06,-0.02 -0.08,-0.03 0.03,0 0.06,0.02 0.08,0.03 z m -0.94,-0.3 c 0,0 -0.02,0 -0.03,0 0,0 0.02,0 0.03,0 z m -0.84,-0.24 c 0,0 -0.06,-0.02 -0.09,-0.03 0.03,0 0.06,0.02 0.09,0.03 z m -0.89,-0.22 c 0,0 -0.01,0 -0.02,0 0,0 0.01,0 0.02,0 z m 5.34,1.82 c -0.08,-0.04 -0.16,-0.07 -0.24,-0.1 0.08,0.04 0.16,0.07 0.24,0.1 z m -0.84,-0.36 c -0.1,-0.04 -0.19,-0.08 -0.29,-0.12 0.1,0.04 0.19,0.08 0.29,0.12 z m 38.66,40.81 c -2.15,-1.24 -4.22,-2.1 -6.19,-2.61 -5.12,-14.71 -15.72,-28.9 -27.96,-35.97 -0.11,-0.07 -0.23,-0.13 -0.34,-0.19 0.11,0.06 0.23,0.13 0.34,0.19 12.24,7.07 22.84,21.26 27.96,35.97 1.97,0.51 4.05,1.37 6.19,2.61 12.77,7.37 23.13,25.22 23.13,39.86 0,0.57 -0.02,1.13 -0.05,1.68 0.03,-0.55 0.05,-1.11 0.05,-1.68 0,-14.64 -10.35,-32.49 -23.12,-39.86 z m -37.04,-40.09 c 0.12,0.06 0.25,0.12 0.37,0.18 -0.12,-0.06 -0.25,-0.12 -0.37,-0.18 z m 0.82,0.4 c 0.14,0.07 0.28,0.14 0.41,0.21 -0.14,-0.07 -0.28,-0.14 -0.41,-0.21 z m 0.84,0.43 c 0.14,0.07 0.28,0.15 0.42,0.23 -0.14,-0.08 -0.28,-0.15 -0.42,-0.23 z m 59.32,86.69 c -0.11,-0.11 -0.22,-0.21 -0.33,-0.31 0.11,0.1 0.22,0.21 0.33,0.31 z m -0.56,-0.51 c -0.13,-0.12 -0.26,-0.24 -0.39,-0.35 0.13,0.11 0.26,0.23 0.39,0.35 z m -1,-0.85 c 0.19,0.15 0.38,0.31 0.57,0.48 -0.19,-0.16 -0.38,-0.32 -0.57,-0.47 0,0 0,0 0,0 z m 2.43,2.23 c 0.08,0.09 0.16,0.17 0.25,0.26 -0.08,-0.09 -0.16,-0.17 -0.25,-0.26 z m 0.6,0.64 c 0.07,0.07 0.13,0.15 0.2,0.22 -0.07,-0.07 -0.13,-0.15 -0.2,-0.22 z m 0.6,0.67 c 0.05,0.06 0.1,0.11 0.14,0.17 -0.05,-0.06 -0.1,-0.11 -0.14,-0.17 z m 0.6,0.71 c 0,0 0.05,0.06 0.08,0.09 -0.03,-0.03 -0.05,-0.06 -0.08,-0.09 z" id="path149"/><path class="cls-6" d="m 347.18,400.44 c 0.48,-1.85 0.73,-3.92 0.73,-6.22 0,-14.64 -10.35,-32.49 -23.12,-39.86 -2.15,-1.24 -4.22,-2.1 -6.19,-2.61 -5.12,-14.71 -15.72,-28.9 -27.96,-35.97 -15.82,-9.14 -28.9,-3.2 -30.95,13.11 -0.09,-0.06 -0.19,-0.12 -0.28,-0.17 -12.77,-7.37 -23.12,-1.48 -23.12,13.16 0,14.11 9.61,31.19 21.74,39.01 v 0.05 c 0,0 85.97,49.64 85.97,49.64 v 0 c 0.14,0.08 0.29,0.17 0.43,0.25 7.78,4.49 14.09,0.9 14.09,-8.02 0,-7.83 -4.87,-17.17 -11.32,-22.37 z" id="path151"/></g></svg>