<svg width="596" height="596" xmlns="http://www.w3.org/2000/svg"><defs id="defs36"><style id="style34">.cls-1{fill:#f8ccff}.cls-3{fill:none;stroke-linecap:round;stroke-linejoin:round;stroke-width:2px;stroke:#532e4f}</style></defs><circle class="cls-1" cx="555.884" cy="236.879" r="22.59" id="circle38"/><circle class="cls-1" cx="47.174" cy="312.549" r="22.59" id="circle40"/><circle class="cls-1" cx="80.064" cy="189.699" r="14.04" id="circle42"/><g id="g56" transform="translate(-264.716 -207.961)"><path d="m 806.38,694.73 10.57,18.31 c 8.75,15.16 -2.19,34.12 -19.7,34.12 H 289.48 c -17.51,0 -28.45,-18.95 -19.7,-34.12 L 396.72,493.17 523.66,273.3 c 8.75,-15.16 30.64,-15.16 39.39,0 l 14.11,24.44" id="path44" style="stroke:#f8ccff;fill:none;stroke-linecap:round;stroke-linejoin:round;stroke-width:2px"/><path d="M 620.64,684.92 H 409.49 c -19.78,0 -32.14,-21.41 -22.25,-38.54 L 492.82,463.51 598.4,280.64 c 9.89,-17.13 34.62,-17.13 44.51,0 l 105.58,182.87 105.58,182.87 c 9.89,17.13 -2.47,38.54 -22.25,38.54 H 620.67 Z" id="path46" style="stroke-dasharray:0 0 0 0 30 40 5 10;stroke:#f8ccff;fill:none;stroke-linecap:round;stroke-linejoin:round;stroke-width:2px"/><path class="cls-1" d="m 620.64,660.47 h -183.5 c -12.65,0 -20.56,-13.7 -14.24,-24.66 L 514.65,476.9 606.4,317.99 c 6.33,-10.96 22.15,-10.96 28.47,0 l 91.75,158.91 91.75,158.91 c 6.33,10.96 -1.58,24.66 -14.24,24.66 h -183.5 z" id="path48"/><g id="g54"><path class="cls-3" id="line50" d="M620.64 571.23 620.64 422.25"/><path class="cls-3" id="polyline52" d="M671.28 520.59 620.64 571.23 570 520.59"/></g></g></svg>