<svg version="1.1" id="svg328" width="738" height="738" xmlns="http://www.w3.org/2000/svg"><defs id="defs289"><style id="style287">.cls-1,.cls-3,.cls-5{fill:#e371ff;stroke:#000;stroke-miterlimit:10;stroke-width:2px}.cls-3,.cls-5{fill:none;stroke-linecap:round}.cls-5{stroke-dasharray:0 0 10 20}</style></defs><g transform="translate(-171.17 -170.97)" id="g326" style="isolation:isolate"><path class="cls-3" d="M 734.66,342.23 C 684.6,293.01 615.95,262.64 540.2,262.64 L 540,229.9" id="path291"/><path class="cls-5" d="M 816.83,519.67 C 811.81,450.36 781.31,388.11 734.67,342.23" id="path293"/><path class="cls-3" d="M 367.07,316.69 C 298.79,367.21 254.51,448.34 254.51,539.8 l -32.74,0.2" id="path295"/><path class="cls-5" d="m 511.54,263.17 c -53.88,3.9 -103.5,23.2 -144.47,53.51" id="path297"/><path class="cls-3" d="m 294.14,688.99 c 48.62,80.17 136.72,133.74 237.33,133.74 l 0.2,32.74" id="path299"/><path class="cls-5" d="m 254.84,565.71 c 3.25,44.9 17.2,86.84 39.3,123.28" id="path301"/><path class="cls-3" d="M 704.6,768.69 C 772.88,718.17 817.16,637.04 817.16,545.58 l 32.74,-0.2" id="path303"/><path class="cls-5" d="M 560.13,822.2 C 614.01,818.3 663.63,799 704.6,768.69" id="path305"/><circle cx="540.2" cy="540" r="243.68" id="circle307" style="fill:#f8ccff;mix-blend-mode:multiply;stroke:#000;stroke-miterlimit:10;stroke-width:2px"/><circle cx="540.2" cy="540" r="175.58" id="circle309" style="fill:#db53a3;stroke:#000;stroke-miterlimit:10;stroke-width:2px"/><path class="cls-3" id="polyline311" d="M488.46 545.45 519.32 576.31 591.94 503.69"/><g id="g317"><circle class="cls-1" cx="878.37" cy="545.38" r="28.46" id="circle313"/><circle class="cls-1" cx="201.63" cy="540" r="28.46" id="circle315"/></g><g id="g323"><circle class="cls-1" cx="531.67" cy="878.16" r="28.46" id="circle319"/><circle class="cls-1" cx="540" cy="201.43" r="28.46" id="circle321"/></g></g></svg>