<svg width="920" height="920" xmlns="http://www.w3.org/2000/svg"><defs id="defs339"><style id="style337">.cls-1{fill:#532e4f}.cls-1,.cls-2,.cls-4,.cls-5,.cls-7,.cls-8{stroke-linejoin:round}.cls-1,.cls-2,.cls-4,.cls-5,.cls-7,.cls-8,.cls-9{stroke-linecap:round}.cls-1,.cls-10,.cls-11,.cls-2,.cls-4,.cls-5,.cls-7,.cls-8,.cls-9{stroke:#000}.cls-2{fill:#324108}.cls-10{fill:#faff3a}.cls-4{fill:#edf8ff}.cls-5{fill:#fef5ff}.cls-11,.cls-7,.cls-9{fill:none}.cls-8{fill:#f8ccff}.cls-12{fill:#ffc500}.cls-10,.cls-11,.cls-9{stroke-miterlimit:10}</style></defs><g id="g347" transform="translate(-94.06 -56.059)"><path class="cls-8" id="polygon341" d="M1011.66 699.3 697.08 880.92 95.56 533.76 410.13 352.14z"/><path class="cls-5" id="polygon343" d="M697.08 880.92 95.56 533.76 95.56 566.95 696.9 914.1z"/><path class="cls-1" id="polygon345" d="M697.18 880.11 1011.75 698.49 1011.75 731.55 696.99 913.29z"/></g><g id="g401" transform="translate(-94.06 -56.059)"><path class="cls-5" id="polygon349" d="M305.74 319.41 198.3 305.2 198.3 547.98 410.12 670.36 410.12 427.58z"/><path class="cls-5" id="polygon351" d="M410.12 427.58 621.67 305.43 621.67 548.21 410.12 670.36z"/><g id="g365"><path class="cls-8" id="polygon353" d="M318.85 512.08 318.85 614.78 271.34 587.35 271.34 484.65z"/><path class="cls-2" id="polygon355" d="M327.39 607.23 327.39 623.2 262.81 585.91 262.81 569.94z"/><path class="cls-1" id="polygon357" d="M318.91 615.71 318.91 631.68 254.33 594.39 254.33 578.42z"/><ellipse cx="309.02" cy="555.41" rx="1.6" ry="2.78" transform="rotate(-30.36 309.03 555.423)" id="ellipse359"/><path class="cls-1" id="polygon361" d="M327.39 623.2 327.39 607.23 318.85 614.78 318.91 631.68z"/><path class="cls-1" id="polygon363" d="M327.39 607.23 262.81 569.94 254.33 578.42 318.85 614.78z"/></g><g id="g383"><path class="cls-4" id="polygon367" d="M500 495.91 500 539.49 446.75 570.24 446.75 526.66z"/><path class="cls-4" id="polygon369" d="M500 484.65 500 496.87 446.75 527.62 446.75 515.4z"/><path class="cls-2" id="polygon371" d="M500 539.49 500 551.71 446.75 582.46 446.75 570.24z"/><path class="cls-9" id="line373" d="M473.38 500.02 473.38 554.86"/><g id="g381"><path class="cls-1" id="polygon375" d="M505.15 543.87 505.15 556.09 451.9 586.84 451.9 574.61z"/><path class="cls-1" id="polygon377" d="M446.75 582.46 446.75 570.24 451.9 574.61 451.9 586.84z"/><path class="cls-1" id="polygon379" d="M446.75 570.24 500 539.49 505.15 543.87 451.9 574.61z"/></g></g><g id="g399"><path class="cls-4" id="polygon385" d="M583.7 445.73 583.7 489.31 530.45 520.06 530.45 476.48z"/><path class="cls-4" id="polygon387" d="M583.7 434.47 583.7 446.7 530.45 477.44 530.45 465.22z"/><path class="cls-9" id="line389" d="M557.07 449.85 557.07 504.69"/><g id="g397"><path class="cls-1" id="polygon391" d="M588.85 493.57 588.85 505.79 535.59 536.54 535.59 524.31z"/><path class="cls-1" id="polygon393" d="M530.45 532.16 530.45 519.94 535.59 524.31 535.59 536.54z"/><path class="cls-1" id="polygon395" d="M530.45 519.94 583.7 489.19 588.85 493.57 535.59 524.31z"/></g></g></g><ellipse class="cls-5" cx="-629.338" cy="598.358" rx="88.25" ry="152.86" transform="rotate(-89.64)" id="ellipse403"/><g id="g431" transform="translate(-94.06 -56.059)"><path class="cls-5" id="polygon405" d="M860.22 698.09 859.87 585.42 908.75 613.44 908.75 725.91z"/><path class="cls-1" id="polygon407" d="M908.75 725.91 908.75 613.44 957.36 585.17 957.36 697.64z"/><path class="cls-8" id="polygon409" d="M908.75 613.44 859.87 585.42 908.66 557.05 957.36 585.17z"/><path id="polygon411" style="fill:#003657;stroke:#000;stroke-linecap:round;stroke-linejoin:round" d="M933.06 588.09 908.71 574.03 884.37 588.09 908.71 602.15z"/><path class="cls-8" id="polygon413" d="M933.06 582.25 908.71 568.19 884.37 582.25 908.71 596.31z"/><path class="cls-4" id="polygon415" d="M908.71 596.31 884.37 582.25 884.37 588.09 908.71 602.15z"/><path class="cls-1" id="polygon417" d="M908.69 596.23 933.13 582.32 933.09 588.17 908.65 602.08z"/><path class="cls-4" id="line419" d="M870.38 618.45 894.64 632.46"/><ellipse class="cls-8" cx="871.01" cy="678.37" rx="2.31" ry="4.01" transform="rotate(-30.36 871.02 678.383)" id="ellipse421"/><ellipse class="cls-8" cx="883.22" cy="683.58" rx="2.31" ry="4.01" transform="rotate(-30.36 883.238 683.597)" id="ellipse423"/><ellipse class="cls-8" cx="895.41" cy="689.38" rx="2.31" ry="4.01" transform="rotate(-30.36 895.439 689.38)" id="ellipse425"/><path class="cls-8" id="polygon427" d="M893.97 643.46 893.97 668.11 872.48 655.7 872.48 631.05z"/><path id="polyline429" style="fill:#faff3a;stroke:#000;stroke-linecap:round;stroke-linejoin:round" d="M867.9 664.62 889.85 652.13 884.36 648.95 897.12 636.16 875.09 649.03 880.59 652.21 867.9 664.62"/></g><g id="g453" transform="translate(-94.06 -56.059)"><g id="g443"><path class="cls-8" id="polygon433" d="M699.14 684.68 668.87 632.23 608.31 597.27 578.03 614.75 577.8 649.58 728.96 736.86 728.96 702.16z"/><path class="cls-8" id="polygon435" d="M608.31 597.27 668.87 632.23 729.42 597.27 668.87 562.3z"/><path class="cls-4" id="polygon437" d="M729.42 597.27 756.92 649.71 699.14 684.68 668.87 632.23z"/><path class="cls-8" d="m 699.14,684.68 c 2.95,0.72 29.82,17.48 29.82,17.48 l 61.02,-34.96 -33.06,-17.48 -57.77,34.96 z" id="path439"/><path class="cls-1" id="polygon441" d="M728.96 702.16 789.98 667.2 789.98 702.16 728.96 736.86z"/></g><ellipse class="cls-1" cx="608.31" cy="664.09" rx="13.56" ry="23.49" transform="rotate(-30.36 608.334 664.092)" id="ellipse445"/><ellipse class="cls-1" cx="676.83" cy="707.06" rx="13.56" ry="23.49" transform="rotate(-30.36 676.84 707.074)" id="ellipse447"/><path class="cls-4" id="polygon449" d="M662.16 658.79 587.55 619.65 608.31 606.96 662.16 637.24z"/><path class="cls-4" id="polygon451" d="M681.62 670.03 664.38 638.15 645.09 627.64 644.85 649.71z"/></g><g id="g459" transform="translate(-94.06 -56.059)"><path class="cls-12" d="m 638.48,670.49 c -0.58,0 -1.24,-0.21 -1.91,-0.59 -2.51,-1.45 -4.55,-4.97 -4.55,-7.85 0,-1.81 0.8,-2.89 2.15,-2.89 0.58,0 1.24,0.21 1.91,0.59 2.51,1.45 4.55,4.97 4.55,7.85 0,1.81 -0.8,2.89 -2.15,2.89 z" id="path455"/><path d="m 634.17,659.66 v 0 c 0.49,0 1.06,0.18 1.66,0.53 2.33,1.35 4.3,4.74 4.3,7.41 0,0.72 -0.16,2.39 -1.65,2.39 -0.49,0 -1.06,-0.18 -1.66,-0.53 -2.33,-1.35 -4.3,-4.74 -4.3,-7.41 0,-0.72 0.16,-2.39 1.65,-2.39 m 0,-1 c -1.57,0 -2.65,1.24 -2.65,3.39 0,3.04 2.15,6.75 4.8,8.28 0.78,0.45 1.51,0.66 2.16,0.66 1.57,0 2.65,-1.24 2.65,-3.39 0,-3.04 -2.15,-6.75 -4.8,-8.28 -0.78,-0.45 -1.51,-0.66 -2.16,-0.66 z" id="path457"/></g><path class="cls-7" id="line461" d="M613.8 574.991 610.46 605.641"/><path class="cls-7" id="line463" d="M629.49 564.771 626.14 595.421"/><g id="g473" transform="translate(-94.06 -56.059)"><path class="cls-1" id="polygon465" d="M305.33 307.85 168.87 319.41 175.55 336.58 305.33 325.58 435.11 486.84 441.79 477.4z"/><path class="cls-8" id="polygon467" d="M441.79 477.4 659.71 348.05 523.25 178.49 305.33 307.85z"/><path class="cls-1" id="polygon469" d="M653.03 357.48 659.71 348.05 441.79 477.4 435.11 486.84z"/><path class="cls-8" id="polygon471" d="M305.33 307.85 523.25 178.49 386.79 190.05 168.87 319.41z"/></g><path class="cls-2" id="polygon475" transform="translate(-94.06 -56.059)" d="M428.06 408.58 462.27 388.12 394.04 303.34 359.83 323.8z"/><path class="cls-2" id="polygon477" transform="translate(-94.06 -56.059)" d="M473.56 382.12 507.77 361.65 439.54 276.87 405.33 297.34z"/><path class="cls-2" id="polygon479" transform="translate(-94.06 -56.059)" d="M516.03 356.48 550.24 336.01 482.01 251.23 447.8 271.7z"/><path class="cls-2" id="polygon481" transform="translate(-94.06 -56.059)" d="M562.08 331.17 596.28 310.7 528.05 225.92 493.85 246.39z"/><path class="cls-10" id="line483" d="M282.72 257.601 351.39 341.281"/><path class="cls-10" id="line485" d="M287.59 294.861 320.58 275.111"/><path class="cls-10" id="line487" d="M310.65 324.991 343.64 305.231"/><path class="cls-10" id="line489" d="M328.76 231.091 397.43 314.781"/><path class="cls-10" id="line491" d="M333.63 268.361 366.62 248.601"/><path class="cls-10" id="line493" d="M356.69 298.481 389.68 278.721"/><path class="cls-10" id="line495" d="M371.15 205.141 439.82 288.821"/><path class="cls-10" id="line497" d="M376.02 242.401 409.01 222.641"/><path class="cls-10" id="line499" d="M399.08 272.521 432.07 252.761"/><path class="cls-10" id="line501" d="M416.96 179.041 485.63 262.731"/><path class="cls-10" id="line503" d="M421.83 216.311 454.82 196.551"/><path class="cls-10" id="line505" d="M444.89 246.431 477.88 226.671"/><g id="g511" transform="translate(-94.06 -56.059)"><path class="cls-12" d="m 931.61,665.88 c -1.92,0 -3.1,-1.58 -3.1,-4.12 0,-3.98 2.82,-8.84 6.29,-10.85 0.94,-0.54 1.87,-0.83 2.69,-0.83 1.92,0 3.1,1.58 3.1,4.12 0,3.98 -2.82,8.84 -6.29,10.85 -0.94,0.54 -1.87,0.83 -2.69,0.83 z" id="path507"/><path d="m 937.49,650.58 v 0 c 1.63,0 2.6,1.35 2.6,3.62 0,3.82 -2.71,8.49 -6.04,10.41 -0.87,0.5 -1.71,0.77 -2.44,0.77 -1.63,0 -2.6,-1.35 -2.6,-3.62 0,-3.82 2.71,-8.49 6.04,-10.41 0.87,-0.5 1.71,-0.77 2.44,-0.77 m 0,-1 c -0.88,0 -1.88,0.29 -2.94,0.9 -3.61,2.09 -6.54,7.14 -6.54,11.28 0,2.93 1.47,4.62 3.6,4.62 0.88,0 1.88,-0.29 2.94,-0.9 3.61,-2.09 6.54,-7.14 6.54,-11.28 0,-2.93 -1.47,-4.62 -3.6,-4.62 z" id="path509"/></g><path class="cls-7" d="m 542.27,611.14113 c -3.37,19.74 -7.15,33.34 -6.69,53.35 0.49,21.42 2.37,45.01 13.62,63.82 17.97,30.05 55.96,24.08 84.6,15.37 23.42,-7.12 46.51,-15.42 68.84,-25.46 11.27,-5.07 22.34,-10.58 33.14,-16.58 10.08,-5.61 18.98,-10.57 30.43,-13.07 15.91,-3.47 32.78,-4.29 48.35,-9.02 38.36,-11.66 15.19,-60.87 25.94,-77.61" id="path513"/><g id="g543" transform="translate(-94.06 -56.059)"><circle class="cls-10" cx="834.7" cy="252.61" r="104.07" id="circle515"/><g id="g541"><path class="cls-11" id="line517" d="M837.73 388.15 837.02 356.71"/><path class="cls-11" id="line519" d="M769.55 371.51 784.66 343.93"/><path class="cls-11" id="line521" d="M718.83 323 745.71 306.67"/><path class="cls-11" id="line523" d="M699.16 255.64 730.6 254.94"/><path class="cls-11" id="line525" d="M715.8 187.46 743.38 202.58"/><path class="cls-11" id="line527" d="M764.3 136.74 780.63 163.62"/><path class="cls-11" id="line529" d="M831.67 117.07 832.37 148.51"/><path class="cls-11" id="line531" d="M899.84 133.71 884.73 161.3"/><path class="cls-11" id="line533" d="M950.56 182.22 923.68 198.55"/><path class="cls-11" id="line535" d="M970.23 249.58 938.79 250.28"/><path class="cls-11" id="line537" d="M953.59 317.76 926.01 302.64"/><path class="cls-11" id="line539" d="M905.09 368.48 888.76 341.6"/></g></g></svg>