<svg width="586" height="586" xmlns="http://www.w3.org/2000/svg"><defs id="defs63"><style id="style61">.cls-1{stroke:#f8ccff}.cls-1,.cls-2{fill:none}.cls-1,.cls-2,.cls-3{stroke-linecap:round;stroke-linejoin:round;stroke-width:2px}.cls-2,.cls-3{stroke:#532e4f}.cls-3{fill:#f8ccff}</style></defs><path class="cls-1" id="line65" d="M385.202 553.393 192.102 553.393"/><ellipse class="cls-3" cx="-13.064" cy="245.89" rx="90.2" ry="156.23" transform="rotate(-30.31)" id="ellipse67"/><ellipse class="cls-3" cx="13.374" cy="483.956" rx="223.5" ry="129.03" transform="rotate(-59.69)" id="ellipse69"/><path class="cls-2" d="m 207.49229,328.44327 c -47.51,-69.01 -94.66,-109.58 -94.66,-109.58" id="path71"/><path class="cls-1" d="m 291.89229,552.78327 c -0.94,-82.48 -36.16,-155.36 -77.29,-215.1" id="path73"/><ellipse class="cls-3" cx="-24.599" cy="509.269" rx="27.21" ry="47.12" transform="rotate(-30.31)" id="ellipse75"/><path class="cls-2" d="m 262.20229,481.83327 c -14.37,-20.93 -26.42,-29.77 -26.42,-29.77" id="path77"/><path class="cls-1" d="m 289.79229,552.78327 c -0.28,-24.78 -9.06,-44.06 -21.41,-62.05" id="path79"/><path class="cls-1" d="m 311.83229,430.97327 c -10.73,36.52 -17.14,74.16 -18.79,121.82" id="path81"/><path class="cls-2" d="m 408.48229,254.47327 c 0,0 -60.09,52.17 -93.33,165.25" id="path83"/></svg>