<svg width="660" height="660" xmlns="http://www.w3.org/2000/svg"><g transform="translate(-211.845 -209.808)" style="isolation:isolate"><circle cx="542.11" cy="540" r="328.27" style="fill:none;stroke-dasharray:0 0 10 20;stroke-linecap:round;stroke:#000;stroke-miterlimit:10;stroke-width:2px"/><path d="m 384.72,491.55 c 18.82,0 34.07,15.25 34.07,34.07 H 525.62 V 410.36 c 14.06,0 25.47,-11.4 25.47,-25.47 0,-14.07 -11.4,-25.47 -25.47,-25.47 V 244.16 c -155.44,0 -281.45,126.01 -281.45,281.45 h 106.48 c 0,-18.82 15.25,-34.07 34.07,-34.07 z" style="fill:#db53a3;stroke:#000;stroke-miterlimit:10;stroke-width:2px"/><path d="m 492.37,694.46 c 0,-18.82 15.25,-34.07 34.07,-34.07 V 553.56 H 411.18 c 0,-14.06 -11.4,-25.47 -25.47,-25.47 -14.07,0 -25.47,11.4 -25.47,25.47 H 244.98 c 0,155.44 126.01,281.45 281.45,281.45 V 728.53 c -18.82,0 -34.07,-15.25 -34.07,-34.07 z" style="stroke:#000;stroke-miterlimit:10;stroke-width:2px;fill:#ea90d1"/><path d="m 727.71,551.74 c 0,18.82 -15.25,34.07 -34.07,34.07 -18.82,0 -34.07,-15.25 -34.07,-34.07 H 551.74 V 667 c -14.06,0 -25.47,11.4 -25.47,25.47 0,14.07 11.4,25.47 25.47,25.47 V 833.2 c 155.44,0 281.45,-126.01 281.45,-281.45 H 727.71 Z" style="fill:#f8ccff;mix-blend-mode:multiply;stroke:#000;stroke-miterlimit:10;stroke-width:2px"/><path d="m 585.15,383.72 c 0,18.82 -15.25,34.07 -34.07,34.07 v 107.83 h 115.26 c 0,14.06 11.4,25.47 25.47,25.47 14.07,0 25.47,-11.4 25.47,-25.47 h 115.26 c 0,-155.44 -126.01,-281.45 -281.45,-281.45 v 105.48 c 18.82,0 34.07,15.25 34.07,34.07 z" style="fill:#e371ff;stroke:#000;stroke-miterlimit:10;stroke-width:2px"/></g></svg>