<svg width="590" height="590" xmlns="http://www.w3.org/2000/svg"><defs id="defs11"><style id="style9">.cls-1,.cls-2{stroke-width:2px}.cls-1{fill:none;stroke:#f8ccff;stroke-miterlimit:10}.cls-2{fill:#f8ccff;stroke:#532e4f;stroke-linecap:round;stroke-linejoin:round}</style></defs><g id="g25" transform="translate(-212.87 -246.81)"><path class="cls-1" d="M 605.71,749.58 276.48,559.5 222.76,590.51 c -9.54,5.51 -10.58,13.84 -2.31,18.61 l 385.26,222.43 c 8.26,4.77 22.69,4.17 32.23,-1.34 l 149.9,-86.54 c 9.54,-5.51 10.58,-13.84 2.31,-18.61 l -56.03,-32.35 -96.18,55.53 c -9.54,5.51 -23.97,6.11 -32.23,1.34 z" id="path13"/><path class="cls-1" d="m 269.57,481.51 -46.81,27.02 c -9.54,5.51 -10.58,13.84 -2.31,18.61 l 56.03,32.35" id="path15"/><path class="cls-1" d="m 734.12,692.71 53.72,-31.01 c 9.54,-5.51 10.58,-13.84 2.31,-18.61 l -49.12,-28.36 -70.99,40.99" id="path17"/><path class="cls-1" d="m 670.04,655.72 -32.1,18.53 c -9.54,5.51 -23.97,6.11 -32.23,1.34 L 340.56,522.5 269.57,481.51" id="path19"/><path class="cls-1" d="m 276.48,559.5 329.23,190.08 c 8.26,4.77 22.69,4.17 32.23,-1.34 l 96.18,-55.53" id="path21"/><path class="cls-1" d="m 741.03,614.73 46.81,-27.03 c 9.54,-5.51 10.58,-13.84 2.31,-18.61 L 404.89,346.66 c -8.26,-4.77 -22.69,-4.17 -32.23,1.34 l -149.9,86.54 c -9.54,5.51 -10.58,13.84 -2.31,18.61 l 49.12,28.36" id="path23"/></g><ellipse class="cls-2" cx="-257.137" cy="293.813" rx="54.96" ry="95.19" transform="rotate(-89.69)" id="ellipse27"/><path class="cls-2" d="M 330.91085,138.07 V 8.05 c 0,-2.79 -2.26,-5.05 -5.05,-5.05 h -64.65 c -2.79,0 -5.05,2.26 -5.05,5.05 v 130.02 c 0,2.79 -2.26,5.05 -5.05,5.05 h -41.38 c -4.5,0 -6.75,5.44 -3.57,8.62 l 83.81,83.81 c 1.97,1.97 5.17,1.97 7.14,0 l 83.81,-83.81 c 3.18,-3.18 0.93,-8.62 -3.57,-8.62 h -41.38 c -2.79,0 -5.05,-2.26 -5.05,-5.05 z" id="path29"/></svg>