<svg version="1.1" id="svg283" width="690" height="690" xmlns="http://www.w3.org/2000/svg"><defs id="defs256"><style id="style254">.cls-1{fill:#ea90d1}.cls-1,.cls-3,.cls-4{stroke:#000;stroke-miterlimit:10;stroke-width:2px}.cls-3{fill:#db53a3}.cls-4{fill:none;stroke-linecap:round}</style></defs><g transform="translate(-175.09 -195.966)" id="g281" style="isolation:isolate"><g id="g268"><path d="M 724.75,324.56 H 601.41 c -17.72,0 -32.22,-14.5 -32.22,-32.22 v 0 c 0,-14.89 10.24,-27.51 24.03,-31.15 -17.24,-3.27 -35.03,-5.01 -53.23,-5.01 -156.75,0 -283.82,127.07 -283.82,283.82 0,31.24 5.06,61.3 14.39,89.41 h 39.19 c 14.03,0 25.51,11.48 25.51,25.51 v 0 c 0,14.03 -11.48,25.51 -25.51,25.51 H 293.3 c 48.86,85.65 141.03,143.39 246.69,143.39 156.75,0 283.82,-127.07 283.82,-283.82 0,-86.18 -38.42,-163.39 -99.06,-215.44 z" id="path258" style="fill:#f8ccff;mix-blend-mode:multiply;stroke:#000;stroke-miterlimit:10;stroke-width:2px"/><path class="cls-3" d="m 736.77,324.56 c 17.72,0 32.22,-14.5 32.22,-32.22 v 0 c 0,-17.72 -14.5,-32.22 -32.22,-32.22 H 601.41 c -2.83,0 -5.57,0.37 -8.18,1.06 49.63,9.42 94.68,31.75 131.53,63.37 h 12.02 z" id="path260"/><path class="cls-1" d="m 569.19,292.34 v 0 c 0,17.72 14.5,32.22 32.22,32.22 h 123.34 c -36.85,-31.63 -81.9,-53.96 -131.53,-63.37 -13.79,3.65 -24.03,16.26 -24.03,31.15 z" id="path262"/><path class="cls-3" d="m 202.6,629.41 c -14.03,0 -25.51,11.48 -25.51,25.51 v 0 c 0,14.03 11.48,25.51 25.51,25.51 h 90.71 c -9.18,-16.09 -16.82,-33.16 -22.74,-51.01 H 202.6 Z" id="path264"/><path class="cls-1" d="m 335.27,654.92 v 0 c 0,-14.03 -11.48,-25.51 -25.51,-25.51 h -39.19 c 5.92,17.86 13.56,34.93 22.74,51.01 h 16.45 c 14.03,0 25.51,-11.48 25.51,-25.51 z" id="path266"/></g><path class="cls-4" d="m 780.72,324.56 c 113.72,126.84 109.62,321.95 -12.29,443.87 -126.16,126.16 -330.7,126.16 -456.85,0 -21.97,-21.97 -40.11,-46.31 -54.43,-72.2" id="path270"/><path class="cls-4" d="m 225.67,614.73 c -24.96,-105.41 3.68,-220.93 85.9,-303.15 96.9,-96.9 240.05,-119.37 358.39,-67.41" id="path272"/><rect class="cls-3" x="341.86" y="487.04" width="396.29" height="105.92" rx="52.96" ry="52.96" id="rect274"/><path d="m 591.06,789.54 c -9.69,0 -18.25,-5.82 -21.82,-14.83 l -23.2,-58.64 -18.75,17.39 c -4.62,4.29 -10.61,6.65 -16.87,6.65 -7.26,0 -14.14,-3.16 -18.89,-8.66 -4.5,-5.21 -6.6,-12.05 -5.85,-18.91 l 13.28,-169.67 c 0.04,-0.46 0.09,-0.91 0.15,-1.37 1.82,-12.3 12.17,-21.22 24.6,-21.22 5.57,0 11.05,1.91 15.42,5.39 0.36,0.28 0.71,0.58 1.04,0.89 l 125.79,114.65 c 7.71,6.61 10.65,17.32 7.32,26.98 -3.44,9.96 -12.82,16.68 -23.35,16.74 l -25.57,0.14 23.2,58.64 c 2.31,5.83 2.21,12.2 -0.29,17.95 -2.49,5.75 -7.07,10.19 -12.9,12.49 l -34.69,13.73 c -2.77,1.09 -5.67,1.65 -8.63,1.65 z" id="path276" style="stroke-dasharray:0 0 10 20;fill:none;stroke-linecap:round;stroke:#000;stroke-miterlimit:10;stroke-width:2px"/><path d="m 505.59,714.54 13.32,-170.1 c 0.55,-3.7 4.89,-5.41 7.81,-3.09 l 126.1,114.93 c 3.59,2.85 1.6,8.63 -2.99,8.65 l -49.76,0.28 c -2.43,0.01 -4.09,2.47 -3.2,4.73 l 32.1,81.14 c 0.7,1.78 -0.17,3.79 -1.94,4.49 l -34.7,13.73 c -1.78,0.7 -3.79,-0.17 -4.49,-1.94 l -32.1,-81.14 c -0.9,-2.26 -3.78,-2.92 -5.57,-1.26 l -36.48,33.85 c -3.36,3.12 -8.77,0.27 -8.1,-4.27 z" id="path278" style="fill:#e371ff;stroke:#000;stroke-miterlimit:10;stroke-width:2px"/></g></svg>