<svg viewBox="0 0 38 40" xmlns="http://www.w3.org/2000/svg" xml:space="preserve" style="fill-rule:evenodd;clip-rule:evenodd;stroke-linejoin:round;stroke-miterlimit:2"><path style="fill:none" d="M-.266-.381H37.193V39.418H-.266z" transform="matrix(1.01444 0 0 1.00505 .27 .383)"/><path d="M0 13.353C1.017 13.128 1.919 12.592 2.607 11.855L10.362 16.332 10.362 22.198 2.607 26.676C1.919 25.939 1.017 25.409 0 25.177L0 13.353ZM35.534 25.177C34.517 25.402 33.615 25.939 32.927 26.676L25.172 22.198 25.172 16.332 32.927 11.855C33.615 12.592 34.517 13.122 35.534 13.353L35.534 25.177ZM31.765 9.838 24.01 14.316 18.93 11.385 18.93 2.437C20.112 2.156 21.129 1.474 21.835.53L31.911 6.518C31.68 7.097 31.552 7.724 31.552 8.382 31.552 8.888 31.625 9.369 31.765 9.832L31.765 9.838ZM16.603 2.437 16.603 11.385 11.522 14.316 3.767 9.838C3.901 9.375 3.981 8.894 3.981 8.388 3.981 7.73 3.853 7.103 3.621 6.524L13.697.536C14.403 1.474 15.421 2.163 16.603 2.443L16.603 2.437ZM3.771 28.692 11.526 24.215 16.606 27.145 16.606 36.093C15.425 36.374 14.407 37.056 13.701 38L3.625 32.012C3.856 31.433 3.984 30.806 3.984 30.148 3.984 29.642 3.905 29.155 3.771 28.698L3.771 28.692ZM18.934 36.093 18.934 27.145 24.014 24.215 31.769 28.692C31.635 29.155 31.556 29.636 31.556 30.142 31.556 30.8 31.683 31.427 31.915 32.006L21.839 37.994C21.133 37.056 20.115 36.367 18.934 36.087L18.934 36.093Z" style="fill:#0075ff;fill-rule:nonzero" transform="translate(1.233 .735)"/></svg>