<svg xmlns="http://www.w3.org/2000/svg" width="2390" height="560" xml:space="preserve"><g fill-rule="evenodd" clip-rule="evenodd" fill="#009ACE"><path d="M299.023,489.53c0-40.027,0-79.654,0-119.66 c7.044,0,13.926,0,21.312,0c0,32.555,0,64.982,0,97.769c125.545,0,250.592,0,375.896,0c0-20.788,0-41.4,0-62.639 c-38.276,0-76.498,0-115.056,0c0-114.871,0-229.118,0-344.163c1.504,0,3.086,0,4.668,0c48.998,0,97.997-0.056,146.995,0.031 c16.995,0.03,34.056,0.332,50.675,4.23c34.861,8.178,57.789,29.51,66.508,64.36c8.821,35.263-7.935,71.595-39.719,89.17 c-1.699,0.939-3.401,1.873-5.453,3.003c4.878,1.919,9.416,3.535,13.817,5.464c40.628,17.804,53.736,55.345,49.612,89.198 c-2.523,20.712-10.265,39.15-23.8,55.084c-13.82,16.268-31.319,26.379-52.373,29.434c-13.143,1.906-26.493,2.517-39.775,3.282 c-11.122,0.642-22.28,0.665-33.793,0.972c0,20.82,0,41.547,0,62.605c103.429,0,206.826,0,310.588,0c0-46.766,0-93.466,0-140.418 c-16.319,0-32.438,0-49.223,0c-9.34,25.583-18.778,51.435-28.248,77.37c-24.596,0-48.89,0-73.186,0 c0.07-4.229,120.405-315.104,132.928-343.466c24.291,0,48.727,0,73.867,0c45.76,114.156,91.642,228.613,137.693,343.495 c-25.739,0-50.705,0-76.184,0c-9.838-25.658-19.708-51.4-29.66-77.354c-21.867,0-43.604,0-65.646,0c0,46.722,0,93.312,0,140.303 c106.835,0,213.693,0,320.716,0c0-19.087,0-38.005,0-57.007c-7.168-1.053-14.118-1.734-20.922-3.127 c-54.292-11.11-90.464-43.457-110.271-94.711c-8.616-22.294-12.294-45.602-12.938-69.377c-0.81-29.871,2.692-59.18,12.885-87.448 c11.013-30.544,28.532-56.325,55.584-74.975c19.288-13.297,40.794-20.811,63.89-24.013c23.994-3.327,47.864-2.86,71.426,3.116 c27.545,6.986,51.174,20.572,69.422,42.679c12.747,15.443,19.802,33.638,25.152,53.328c-23.076,5.488-45.784,10.888-68.57,16.307 c-1.496-4.503-2.568-8.524-4.141-12.34c-11.732-28.479-33.361-43.066-63.807-45.028c-11.921-0.768-23.626,0.581-34.93,4.572 c-20.406,7.205-33.959,21.658-42.764,40.963c-7.712,16.908-11.017,34.898-11.967,53.288c-1.049,20.322-0.681,40.637,2.728,60.788 c2.318,13.704,5.862,27.022,12.983,39.1c12.654,21.461,31.933,32.785,56.217,36.294c10.341,1.495,20.623,1.118,30.754-1.415 c20.972-5.244,35.145-18.794,45.098-37.37c4.898-9.143,8.316-18.856,10.938-28.869c0.327-1.25,0.78-2.466,1.281-4.028 c22.446,7.052,44.597,14.011,67.153,21.097c-8.007,31.373-21.348,59.137-46.333,80.148c-24.892,20.934-54.438,29.174-86.553,30.824 c0,19.203,0,38.101,0,57.303c121.036,0,241.954,0,363.27,0c0-20.664,0-41.385,0-62.77c-3.941,0-7.993,0-12.603,0 c0-2.604,0-4.554,0-6.504c0-42.498,0.15-84.998-0.098-127.495c-0.068-11.794-1.041-23.607-2.161-35.358 c-0.449-4.717-2.06-9.424-3.757-13.903c-4.713-12.437-14.192-19.055-27.152-20.512c-26.948-3.03-54.485,11.749-58.827,44.615 c-1.848,13.988-2.728,28.186-2.877,42.302c-0.391,36.661-0.131,73.329-0.132,109.995c0,1.988,0,3.976,0,6.364 c-22.006,0-43.703,0-65.699,0c0-82.729,0-165.306,0-248.238c20.37,0,40.611,0,61.286,0c0,11.692,0,23.455,0,35.219 c0.331,0.169,0.663,0.339,0.994,0.508c0.986-1.168,2.006-2.312,2.954-3.51c15.711-19.852,35.645-32.962,60.863-36.879 c26.856-4.172,52.124-0.009,74.416,16.599c13.285,9.897,19.751,23.904,23.025,39.677c2.827,13.619,3.126,27.445,3.14,41.272 c0.052,50.332,0.021,100.664,0.021,150.996c0,1.321,0,2.643,0,4.52c-10.363,0-20.433,0-30.829,0c0,21.292,0,42.03,0,63.089 c60.577,0,121.163,0,182.125,0c0-19.021,0-38.101,0-57.783c-3.307-0.586-6.841-1.186-10.364-1.839 c-22.168-4.109-41.839-13.122-57.705-29.531c-9.753-10.086-16.842-21.883-21.759-34.956 c-16.385-43.565-16.521-87.098,2.322-129.826c15.586-35.343,42.906-56.665,81.447-62.348c22.584-3.331,44.909-1.436,66.383,6.742 c27.825,10.596,45.992,30.945,57.311,57.942c7.809,18.627,11.451,38.207,12.855,58.243c0.454,6.473,0.396,12.982,0.554,19.476 c0.039,1.629,0.006,3.261,0.006,5.403c-55.148,0-109.739,0-164.867,0c0.126,2.797,0.079,5.079,0.354,7.322 c1.856,15.078,6.582,29.043,17.93,39.667c14.98,14.023,32.74,17.055,51.967,10.87c11.031-3.548,17.687-12.042,22.049-22.445 c1.214-2.896,2.227-5.875,3.492-9.244c21.831,3.661,43.574,7.309,65.791,11.034c-7.686,22.899-20.13,41.663-39.853,55.171 c-19.614,13.434-41.792,18.361-65.487,19.032c0,19.133,0,37.89,0,57.018c65.824,0,131.703,0,197.85,0c0-20.663,0-41.268,0-62.271 c-0.325-0.177-0.849-0.547-1.43-0.768c-17.064-6.481-25.893-19.523-29.397-36.831c-2.595-12.811-2.842-25.807-2.874-38.791 c-0.094-37.999-0.033-75.998-0.033-113.997c0-1.962,0-3.925,0-6.46c-10.229,0-19.98,0-29.939,0c0-17.694,0-34.812,0-52.5 c9.807,0,19.542,0,29.711,0c0-16.816,0-33.073,0-49.476c22.049-12.949,43.832-25.741,66.535-39.074 c0.388,6.35,0.151,12.055,0.193,17.738c0.042,5.833,0.009,11.667,0.009,17.5s0,11.667,0,17.5s0,11.667,0,17.5 c0,5.81,0,11.62,0,18.052c15.031,0,29.59,0,44.395,0c0,17.73,0,34.832,0,52.622c-14.59,0-29.132,0-44.108,0 c-0.116,2.433-0.274,4.206-0.275,5.98c-0.015,35.166-0.091,70.332,0.055,105.497c0.031,7.303,0.487,14.659,1.485,21.89 c1.378,9.982,6.101,13.616,16.279,13.762c7.11,0.102,13.853-1.56,20.452-4.016c1.85-0.688,3.719-1.326,6.338-2.257 c1.975,17.223,3.9,34.014,5.875,51.229c-19.532,7.974-39.728,10.788-61.127,9.867c0,26.436,0,52.674,0,79.205 C1569.391,489.53,934.496,489.53,299.023,489.53z M650.251,346.193c1.678,0.108,3.133,0.284,4.589,0.285 c23.809,0.017,47.618,0.166,71.425-0.059c10.467-0.099,20.936-0.829,31.387-1.533c8.468-0.57,16.275-3.388,23.185-8.341 c12.354-8.856,16.813-21.347,16.324-36.079c-0.7-21.133-10.435-33.664-30.693-39.646c-11.445-3.38-23.225-4.406-35.017-4.566 c-25.801-0.349-51.608-0.205-77.413-0.239c-1.267-0.002-2.532,0.217-3.786,0.332C650.251,286.436,650.251,316.179,650.251,346.193z M650.16,197.223c1.733,0.106,3.043,0.256,4.353,0.257c25.827,0.014,51.658,0.305,77.477-0.157 c8.562-0.153,17.309-1.433,25.583-3.647c13.851-3.707,23.507-12.366,25.937-27.229c0.69-4.225,0.742-8.652,0.395-12.93 c-1.281-15.747-11.401-28.105-26.752-31.635c-7.712-1.773-15.803-2.494-23.737-2.602c-26.486-0.358-52.98-0.23-79.472-0.263 c-1.26-0.001-2.52,0.233-3.782,0.357C650.16,145.389,650.16,171.017,650.16,197.223z M1047.535,141.532 c-15.641,42.905-30.916,84.806-46.307,127.023c31.459,0,62.175,0,93.576,0C1079.057,226.238,1063.484,184.392,1047.535,141.532z M1930.295,258.078c32.653,0,65.032,0,97.864,0c-0.481-4.562-0.659-8.719-1.417-12.769c-0.822-4.397-1.883-8.799-3.359-13.018 c-9.827-28.077-37.361-35.667-58.346-29.55C1943.127,209.128,1927.6,233.621,1930.295,258.078z"/><path d="M168.413,279.115c7.969,0,15.118,0,22.751,0 c0.82,1.344,1.786,2.856,2.683,4.408c11.071,19.167,22.248,38.274,33.118,57.554c2.774,4.921,6.134,7.054,11.928,7.03 c47.324-0.19,94.65-0.19,141.975-0.001c5.785,0.023,9.148-2.11,11.953-7.003c23.337-40.72,46.771-81.384,70.418-121.924 c3.162-5.42,3.325-9.682,0.108-15.19c-23.832-40.817-47.417-81.779-70.941-122.776c-2.536-4.419-5.647-6.31-10.799-6.295 c-47.825,0.137-95.65,0.142-143.475-0.006c-5.198-0.016-8.306,1.97-10.792,6.344c-10.609,18.663-21.414,37.215-32.15,55.806 c-0.992,1.718-2.007,3.422-3.06,5.216c-7.459,0-14.732,0-22.543,0c0.634-1.465,1.017-2.657,1.628-3.716 c13.725-23.785,27.553-47.511,41.177-71.354c4.875-8.533,11.863-12.312,21.689-12.282c50.657,0.158,101.316,0.151,151.974,0.006 c9.887-0.028,16.659,4.087,21.53,12.568c25.279,44.017,50.688,87.96,76.125,131.888c4.696,8.111,4.729,16.006,0.058,24.086 c-25.576,44.231-51.143,88.467-76.646,132.741c-4.592,7.972-11.277,11.816-20.461,11.808c-51.158-0.05-102.316-0.046-153.474-0.003 c-9.166,0.008-15.866-3.779-20.458-11.791c-14.152-24.69-28.452-49.295-42.688-73.938 C169.557,281.453,169.154,280.567,168.413,279.115z"/><path d="M276.896 209.686c10.273 3.421 13.129 10.642 12.963 19.816-.13 7.161-.147 14.33.038 21.488.074 2.853.828 5.688 1.272 8.531.493-.004.986-.009 1.48-.014 6.536-33.617 13.071-67.233 19.648-101.063 7.521 0 14.774 0 22.381 0 6.503 34.779 12.977 69.397 19.521 104.396-6.759 0-13.152 0-19.766 0-.887-5.594-1.739-10.971-2.628-16.58-5.73 0-11.333 0-17.386 0-.931 5.308-1.87 10.659-2.938 16.748-12.81.351-25.691.052-38.567.169-2.232-3.689-2.932-7.366-2.921-11.249.02-7.33.018-14.66-.004-21.99-.005-1.831.012-3.677-.21-5.488-.558-4.542-2.423-6.452-6.917-7.208-1.143-.192-2.321-.216-3.484-.23-2.627-.032-5.254-.01-8.364-.01 0 15.504 0 30.574 0 45.898-6.74 0-12.981 0-19.537 0 0-34.921 0-69.637 0-104.641 1.46-.093 2.748-.245 4.035-.247 10.995-.019 21.99-.07 32.985.004 15.201.102 20.45 5.39 20.499 20.487.015 4.831.047 9.663-.008 14.493C288.875 202.964 286.876 205.824 276.896 209.686zM251.275 201.705c4.209 0 8.178.262 12.096-.076 3.661-.316 5.7-2.235 5.871-5.671.279-5.629.226-11.292-.026-16.925-.144-3.206-2.205-5.22-5.513-5.339-4.086-.146-8.181-.035-12.427-.035C251.275 183.222 251.275 192.279 251.275 201.705zM316.825 229.411c4.556 0 8.549 0 12.899 0-1.978-13.876-3.888-27.282-5.799-40.688-.262.001-.524.003-.787.004C321.044 202.229 318.948 215.73 316.825 229.411zM220.86 262.973c-6.334 0-12.288 0-18.901 0 0-15.786 0-31.497 0-47.501-6.082 0-11.51 0-17.603 0 0 15.681 0 31.391 0 47.392-6.726 0-12.797 0-19.196 0 0-34.7 0-69.283 0-104.282 6.02 0 12.075 0 18.774 0 0 13.255 0 26.637 0 40.459 6.161 0 11.7 0 17.832 0 0-13.474 0-26.886 0-40.579 6.652 0 12.72 0 19.094 0C220.86 193.264 220.86 227.845 220.86 262.973zM155.809 188.955c-6.592 0-12.543 0-19.356 0 0-3.341.165-6.597-.036-9.83-.381-6.164-3.327-8.607-9.431-8.111-4.083.332-6.297 2.307-7.154 6.379-1.76 8.361.241 13.404 7.397 18.356 5.472 3.787 11.111 7.342 16.453 11.301 3.182 2.358 6.159 5.094 8.818 8.031 2.967 3.278 4.525 7.33 4.523 11.861-.002 5.159.164 10.323-.03 15.474-.484 12.809-6.215 19.723-18.696 22.136-7.405 1.432-14.924 1.305-22.255-.7-10.053-2.75-15.455-9.172-16.171-19.644-.405-5.922-.073-11.896-.073-18.024 6.38 0 12.486 0 18.923 0 .099 1.586.239 3.026.268 4.469.071 3.495-.06 7 .163 10.484.492 7.703 5.914 11.181 13.208 8.583 2.559-.911 4.432-2.752 4.577-5.418.278-5.108.369-10.257.038-15.357-.231-3.55-2.881-5.881-5.713-7.792-5.655-3.814-11.229-7.761-17.025-11.351-9.1-5.635-13.973-13.621-13.975-24.329 0-4.138.27-8.35 1.078-12.396 1.165-5.836 4.609-10.387 9.983-13.025 10.746-5.277 21.821-5.643 32.801-.884 7.171 3.108 10.951 9.075 11.623 16.78C156.104 180.059 155.809 184.224 155.809 188.955zM54.577 262.878c-6.609 0-12.868 0-19.462 0 6.778-34.925 13.49-69.512 20.256-104.379 7.45 0 14.696 0 22.405 0 6.486 34.659 12.964 69.276 19.521 104.309-6.643 0-12.894 0-19.701 0-.882-5.37-1.786-10.87-2.723-16.569-5.787 0-11.388 0-17.363 0C56.551 251.681 55.606 257.039 54.577 262.878zM59.889 229.553c4.682 0 8.604 0 12.943 0-1.969-13.805-3.89-27.27-5.811-40.735-.278.024-.556.048-.833.073C64.111 202.302 62.033 215.713 59.889 229.553zM378.097 214.847c0 10.785 0 21.042 0 31.868 10.687 0 21.269 0 32.125 0 0 5.661 0 10.756 0 16.151-17.274 0-34.345 0-51.736 0 0-34.873 0-69.589 0-104.586 16.758 0 33.343 0 50.303 0 0 5.054 0 10.108 0 15.707-10.026 0-20.098 0-30.557 0 0 8.411 0 16.294 0 24.704 9.417 0 18.833 0 28.585 0 0 5.553 0 10.588 0 16.156C397.164 214.847 387.753 214.847 378.097 214.847zM2339.562 135.161c5.027-13.245 9.727-25.621 14.445-38.051 2.811 0 5.406 0 8.25 0 0 15.712 0 31.153 0 46.992-1.998 0-3.874 0-5.842 0 0-12.037 0-23.963 0-35.89-.155-.097-.312-.194-.468-.291-4.619 12.104-9.239 24.208-13.882 36.373-1.771 0-3.231 0-5.075 0-4.387-11.562-8.785-23.153-13.184-34.745-.259.042-.519.084-.778.127 0 11.44 0 22.881 0 34.545-2.184 0-3.937 0-5.941 0 0-15.708 0-31.147 0-46.985 2.571 0 5.132 0 8.225 0C2329.88 109.391 2334.543 121.8 2339.562 135.161zM2311.227 97.177c0 1.865 0 3.301 0 5.3-4.49 0-8.741 0-13.549 0 0 14.125 0 27.697 0 41.642-2.456 0-4.342 0-6.771 0 0-13.658 0-27.234 0-41.377-4.751 0-8.999 0-13.664 0-.176-2.087-.307-3.642-.469-5.564C2288.352 97.177 2299.597 97.177 2311.227 97.177z"/></g></svg>