<svg xmlns="http://www.w3.org/2000/svg" width="294" height="294" xml:space="preserve"><circle fill="#215899" cx="147" cy="147" r="143.576"/><path d="M232.636 137.67v-34.11h27.157v71.772c-.006 9.224-3.509 14.662-10.625 16.592-7.356 1.995-15.295-1.508-19.484-8.793l-14.619-26.956v34.112h-27.318v-71.37c-.098-9.408 4.001-14.591 10.082-16.455 7.531-2.309 15.854 1.167 19.975 8.626L232.636 137.67zM172.954 190.379h-26.839v-25.992l-8.124-.426v-21.75l7.814-.469v-4.963c-.003-1.54.049-3.199-.062-4.34-.331-3.393-2.889-5.39-6.118-5.32-3.031.065-5.225 1.953-5.748 5.175-.237 1.466-.175 2.988-.176 4.485v53.571h-27.206v-55.113c.143-16.273 10.151-29.145 24.989-32.614 22.272-5.208 41.339 9.873 41.47 32.767V190.379zM94.598 165.866v24.064c-28.61 5.07-51.375-8.92-55.8-35.369-3.848-23.001 9.031-44.113 30.391-49.552 7.923-2.018 14-2.468 25.149-2.468V128.3c-3.004 0-6.11-.141-9.201.025-11.547.62-19.127 8.69-18.665 19.747.38 9.101 6.968 16.154 16.352 17.221C86.591 165.721 90.411 165.678 94.598 165.866z" fill-rule="evenodd" clip-rule="evenodd" fill="#FFF"/></svg>