<svg xmlns="http://www.w3.org/2000/svg" width="200" height="104" xml:space="preserve"><path fill-rule="evenodd" clip-rule="evenodd" fill="#D40202" d="M63.421,81.3H44.808v-7.835c0,0-1.593,1.869-2.121,2.377	C31.252,86.856,14.881,84.958,6.43,71.621c-7.652-12.076-6.375-32.125,2.681-42.084c9.304-10.232,23.1-10.703,33.08-1.117	c0.594,0.57,2.617,2.387,2.617,2.387V0.865h18.613V81.3z M33.921,35.405c-6.735-0.393-10.76,2.823-12.472,10.115	c-1.317,5.61-1.25,11.2,0.922,16.612c2.003,4.99,5.597,7.363,10.701,7.284c4.803-0.075,8.757-2.925,10.542-7.604	c1.144-2.999,1.934-13.376,0.309-18.251C42.756,40.062,39.73,35.743,33.921,35.405z"/><path fill="#FEFEFE" d="M89.759,81.315c0-10.175-0.077-19.973,0.032-29.768c0.057-5.118,1.257-9.905,5.496-13.352	c3.09-2.512,6.616-3.037,10.275-1.678c3.547,1.317,4.855,4.349,5.04,7.887c0.155,2.991,0.139,5.993,0.144,8.991	c0.016,9.266,0.006,18.53,0.006,27.725c6.608,0,12.664,0,18.868,0c0-10.66-0.029-20.974,0.014-31.286	c0.018-4.333-0.027-8.642-1.017-12.896c-2.425-10.429-10.97-16.812-23.295-14.876c-6.223,0.978-10.687,4.686-15.689,9.28	c0-3.206,0-5.463,0-7.738c-6.269,0-12.167,0-18.187,0c0,19.388,0,38.473,0,57.71C77.491,81.315,83.286,81.315,89.759,81.315z"/><path fill-rule="evenodd" clip-rule="evenodd" fill="#D40202" d="M193.586 72.35c-8.853 10.002-17.345 12.773-27.642 9.209-4.209-1.457-7.191-4.521-10.816-7.953 0 10.164 0 19.681 0 29.529-6.266 0-12.153 0-18.313 0 0-26.383 0-52.756 0-79.48 5.804 0 18.313 0 18.313 0v7.16c0 0 8.339-7.541 14.262-8.571 9.965-1.733 17.604 1.465 23.321 9.473 5.715 8.003 6.415 19.354 5.579 26.614s-4.68 13.744-4.743 14.072L193.586 72.35zM178.156 43.423c-2.006-5.304-5.338-7.955-10.57-8.028-5.688-.079-9.056 2.356-11.148 7.884-1.648 4.354-1.648 13.771-.05 17.997 2.086 5.516 5.601 8.196 11.051 8.142 5.331-.054 8.751-3.022 10.825-8.438C179.705 57.215 179.622 47.299 178.156 43.423zM89.759 81.315c-6.474 0-12.269 0-18.315 0 0-19.237 0-38.322 0-57.71 6.021 0 11.918 0 18.187 0 0 2.275 0 4.532 0 7.738 5.003-4.595 9.467-8.303 15.689-9.28 12.325-1.936 20.87 4.447 23.295 14.876.989 4.254 1.035 8.562 1.017 12.896-.042 10.312-.014 20.626-.014 31.286-6.204 0-12.259 0-18.868 0 0-9.194.01-18.459-.006-27.725-.005-2.998.012-6-.144-8.991-.184-3.538-1.492-6.569-5.04-7.887-3.659-1.359-7.185-.834-10.275 1.678-4.239 3.446-5.439 8.233-5.496 13.352C89.683 61.343 89.759 71.141 89.759 81.315z"/><path fill-rule="evenodd" clip-rule="evenodd" fill="#FEFEFE" d="M193.931,71.5c0.029,0.252,0.092,0.509,0.064,0.755	c-0.008,0.065-0.291,0.099-0.448,0.147C193.611,72.074,193.74,71.773,193.931,71.5z"/></svg>