<svg xmlns="http://www.w3.org/2000/svg" width="1600" height="390" xml:space="preserve"><path fill-rule="evenodd" clip-rule="evenodd" fill="#95C05C" d="M1578.066 85.396 1425.484 85.396 1444.656 113.731 1444.656 157.932 1530.387 157.932 1530.387 213.574 1444.99 213.574 1444.99 304.887 1578.145 304.887 1578.145 360.786 1405.629 360.791 1385.662 329.606 1385.662 30.095 1578.066 30.095zM1327.168 360.309 1261.678 360.309 1134.816 111.273 1134.816 360.179 1080.961 360.179 1080.961 30.254 1152.566 30.254 1273.498 267.606 1273.498 30.113 1327.168 30.113zM1026.4 257.638c-.293 23.705-6.758 45.701-20.172 65.34-16.648 24.365-40.371 37.95-69.092 42.294-25.312 3.829-50.777 3.961-75.836-2.589-42.291-11.051-71.285-43.625-76.975-86.689-1.174-8.883-1.793-17.897-1.836-26.855-.188-38.484-.355-76.973.053-115.454.254-23.94 6.467-46.438 20.074-66.428 17.041-25.033 41.285-39.093 70.85-42.891 25.625-3.292 51.439-3.737 76.795 3.431 41.604 11.762 70.479 45.693 75.041 88.47.266 2.48.852 4.953.857 7.43C1026.227 147.185 1026.662 236.482 1026.4 257.638zM836.307 194.102c-.006.001-.01.001-.016.001 0 21.986-.383 43.981.096 65.957.613 28.122 16.42 48.003 43.678 51.966 15.92 2.314 32.648 1.979 48.666.014 22.211-2.728 36.82-16.236 42.043-38.409 1.697-7.21 2.301-14.818 2.35-22.252.232-35.81.15-71.624.064-107.437-.018-6.645-.326-13.311-.92-19.929-2.182-24.359-17.887-42.35-41.982-46.039-13.053-1.998-26.514-1.86-39.781-1.727-9.652.098-19.17 2.294-27.811 7.048-17.85 9.823-25.465 26.04-26.197 45.355C835.672 150.438 836.307 172.282 836.307 194.102zM492.795 360.872l107.406-165.471L492.707 29.856h62.07c2.021.031 4.828 1.498 5.904 3.144 34.6 52.958 105.484 162.534 105.484 162.534l-104.43 161.16c-2.088 3.23-4.277 4.214-8.035 4.178H492.795zM681.131 172.612l-30.447-46.361c-2.236-3.332-2.039-5.618.088-8.861 18.338-27.965 36.469-56.066 54.787-84.043 1.018-1.555 3.152-3.472 4.783-3.49h63.488L681.131 172.612zM681.098 218.044l92.656 142.828h-61.062c-3.539.033-5.697-.863-7.682-3.948-18.102-28.146-36.375-56.184-54.643-84.224-1.447-2.222-2.338-4-.545-6.709L681.098 218.044zM483.834 257.638c-.294 23.705-6.758 45.701-20.173 65.34-16.647 24.365-40.371 37.95-69.091 42.294-25.312 3.829-50.778 3.961-75.837-2.589-42.291-11.051-71.284-43.625-76.974-86.69-1.174-8.882-1.793-17.897-1.836-26.855-.188-38.484-.356-76.973.052-115.454.255-23.94 6.468-46.438 20.076-66.428 17.04-25.033 41.285-39.093 70.85-42.891 25.625-3.292 51.438-3.737 76.795 3.431 41.602 11.762 70.478 45.693 75.041 88.47.264 2.48.851 4.953.857 7.43C483.66 147.185 484.096 236.482 483.834 257.638zM293.74 194.102c-.006.001-.011.001-.016.001 0 21.986-.384 43.981.096 65.958.613 28.122 16.42 48.002 43.677 51.965 15.921 2.314 32.648 1.979 48.667.014 22.211-2.728 36.821-16.236 42.043-38.409 1.698-7.21 2.301-14.818 2.35-22.251.232-35.811.15-71.625.063-107.438-.017-6.645-.325-13.311-.919-19.929-2.182-24.359-17.887-42.35-41.984-46.039-13.052-1.998-26.513-1.86-39.78-1.727-9.652.098-19.17 2.294-27.81 7.048-17.85 9.823-25.465 26.04-26.198 45.355C293.104 150.438 293.74 172.282 293.74 194.102zM22.043 30.031 81.318 30.031 81.318 304.827 214.421 304.827 214.421 360.715 41.816 360.793 21.856 329.023z"/></svg>