<svg xmlns="http://www.w3.org/2000/svg" width="2784" height="872" xml:space="preserve"><g fill-rule="evenodd" clip-rule="evenodd" fill="#0432FE"><path d="M916.84,138.493c-1.434,4.814-2.826,9.641-4.309,14.439 c-4.028,13.047-8.174,26.059-12.127,39.129c-4.853,16.045-9.521,32.145-14.333,48.202c-5.287,17.639-10.655,35.253-15.972,52.883 c-5.362,17.781-10.695,35.571-16.058,53.353c-5.316,17.634-10.652,35.263-15.981,52.894c-5.326,17.62-10.653,35.24-15.979,52.86 c-5.327,17.623-10.662,35.244-15.978,52.87c-5.362,17.78-10.698,35.568-16.061,53.349c-5.315,17.626-10.649,35.246-15.976,52.869 c-5.326,17.626-10.659,35.25-15.975,52.88c-5.362,17.783-10.697,35.574-16.061,53.357c-5.317,17.628-10.656,35.25-15.984,52.875 c-5.327,17.62-10.581,35.262-16.013,52.85c-2.229,7.221-3.963,14.587-7.698,21.336c-7.972,14.401-20.074,22.013-36.24,24.557 c-15.161,2.386-28.58-1.441-40.922-9.61c-11.749-7.775-19.052-19.055-23.055-32.488c-6.57-22.048-13.108-44.106-19.66-66.161 c-5.898-19.855-11.765-39.721-17.703-59.564c-5.187-17.327-10.488-34.619-15.676-51.945c-5.564-18.583-11.032-37.194-16.584-55.78 c-5.13-17.179-10.35-34.331-15.468-51.515c-5.491-18.435-10.873-36.902-16.371-55.335c-5.168-17.324-10.442-34.617-15.637-51.934 c-5.574-18.578-11.124-37.163-16.657-55.753c-4.928-16.557-9.782-33.135-14.733-49.684c-5.75-19.214-11.584-38.403-17.357-57.611 c-5.016-16.689-10.004-33.387-14.992-50.085c-5.648-18.905-11.294-37.812-16.919-56.723c-2.579-8.669-5.108-17.353-8.437-26.126 c-0.631,3.795-1.296,7.584-1.885,11.385c-0.907,5.859-1.793,11.723-2.63,17.593c-1.166,8.173-2.271,16.355-3.416,24.531 c-0.732,5.228-1.462,10.457-2.244,15.678c-0.877,5.859-1.82,11.709-2.721,17.565c-1.252,8.139-2.509,16.277-3.73,24.42 c-0.783,5.218-1.486,10.448-2.259,15.667c-0.917,6.191-1.907,12.372-2.796,18.567c-1.103,7.687-2.096,15.39-3.21,23.075 c-0.85,5.867-1.847,11.712-2.719,17.576c-0.801,5.38-1.5,10.774-2.286,16.157c-0.881,6.031-1.832,12.053-2.713,18.084 c-0.786,5.38-1.488,10.772-2.285,16.151c-0.893,6.029-1.894,12.044-2.769,18.076c-1.114,7.687-2.114,15.39-3.229,23.076 c-0.852,5.868-1.834,11.718-2.707,17.583c-0.8,5.38-1.512,10.773-2.297,16.155c-0.879,6.033-1.813,12.058-2.694,18.09 c-0.786,5.381-1.497,10.772-2.303,16.15c-1.271,8.472-2.631,16.931-3.88,25.406c-0.772,5.241-1.358,10.51-2.116,15.752 c-0.849,5.868-1.824,11.718-2.696,17.582c-0.801,5.38-1.515,10.773-2.308,16.154c-1.224,8.311-2.493,16.614-3.725,24.923 c-0.772,5.216-1.493,10.439-2.269,15.655c-0.969,6.519-2.004,13.027-2.946,19.549c-0.733,5.08-1.324,10.181-2.055,15.261 c-0.844,5.865-1.798,11.714-2.658,17.577c-0.814,5.546-1.544,11.105-2.355,16.652c-0.857,5.864-1.78,11.718-2.648,17.58 c-0.797,5.386-1.537,10.779-2.341,16.163c-0.9,6.021-1.877,12.032-2.76,18.056c-1.103,7.526-2.115,15.065-3.22,22.591 c-0.908,6.187-1.95,12.354-2.832,18.543c-1.118,7.84-2.084,15.7-3.209,23.539c-0.818,5.7-1.821,11.374-2.678,17.069 c-0.81,5.383-1.586,10.771-2.292,16.168c-1.99,15.21-7.451,28.735-19.248,39.062c-4.645,4.066-10.142,6.573-16.108,8.379 c-10.969,3.32-22.189,3.796-33.48,3.803c-54.999,0.033-109.998,0.116-164.996-0.054c-13.456-0.042-26.244-3.159-37.093-11.747 C14.221,849.5,7.384,838.43,4.903,824.606c-2.642-14.719,0.97-27.939,9.375-39.86c8.269-11.728,26.388-21.632,33.895-21.632h123.88 c13.673-0.029,24.689-10.854,26.9-24.261c1.847-11.201,3.962-22.357,5.862-33.55c1.79-10.546,3.368-21.128,5.199-31.666 c1.804-10.383,3.873-20.72,5.703-31.099c1.514-8.591,2.787-17.224,4.281-25.818c1.492-8.585,3.175-17.137,4.684-25.72 c1.485-8.448,2.813-16.925,4.289-25.376c1.527-8.75,3.197-17.476,4.714-26.229c1.49-8.597,2.803-17.224,4.309-25.817 c1.589-9.076,3.364-18.12,4.965-27.194c1.404-7.962,2.638-15.953,4.023-23.917c1.521-8.745,3.175-17.467,4.689-26.213 c1.488-8.595,2.83-17.214,4.319-25.809c0.87-5.022,1.969-10.007,2.847-15.028c1.108-6.344,2.064-12.715,3.145-19.063 c1.463-8.595,2.978-17.181,4.476-25.77c1.499-8.593,2.983-17.188,4.515-25.773c1.301-7.287,2.7-14.557,3.982-21.847 c1.059-6.018,2.008-12.054,3.012-18.081c1.108-6.659,2.198-13.32,3.342-19.973c1.533-8.911,3.076-17.819,4.677-26.718 c1.602-8.901,3.326-17.78,4.911-26.684c1.099-6.173,2.032-12.375,3.075-18.559c1.451-8.599,2.913-17.196,4.412-25.787 c1.499-8.589,3.039-17.171,4.578-25.753c1.337-7.451,2.746-14.888,4.035-22.347c1.377-7.965,2.774-15.931,3.943-23.928 c2.202-15.059,5.858-29.678,12.452-43.473c2.7-5.648,5.151-11.424,8.039-16.974c3.71-7.132,8.873-13.016,15.438-17.829 c10.035-7.356,21.126-12.11,33.198-14.746c1.119-0.244,2.325-0.108,3.491-0.11c5.833-0.008,11.667-0.041,17.5,0.003 c16.266,0.123,30.507,5.875,43.589,15.271c9.986,7.172,17.509,16.335,22.208,27.51c3.361,7.994,5.606,16.476,8.092,24.817 c8.073,27.089,16.059,54.205,24.015,81.329c5.46,18.615,10.789,37.269,16.225,55.891c5.301,18.16,10.653,36.306,16,54.452 c5.342,18.13,10.709,36.253,16.056,54.382c5.069,17.188,10.11,34.384,15.192,51.568c5.689,19.235,11.418,38.459,17.117,57.691 c5.136,17.331,10.281,34.658,15.376,52c5.563,18.939,11.062,37.896,16.608,56.84c5.173,17.67,10.367,35.334,15.557,52.999 c5.42,18.449,10.835,36.9,16.27,55.346c3.534,11.991,7.088,23.977,10.674,35.953c0.298,0.993,0.911,1.891,1.826,3.738 c1.504-4.315,2.823-7.623,3.812-11.026c4.681-16.099,9.255-32.228,13.897-48.337c5.461-18.95,10.916-37.902,16.443-56.833 c5.252-17.991,10.616-35.949,15.892-53.935c5.367-18.303,10.688-36.619,16.025-54.931c5.338-18.306,10.695-36.605,16.001-54.921 c5.396-18.63,10.673-37.295,16.123-55.908c5.171-17.656,10.559-35.249,15.739-52.902c5.463-18.614,10.767-37.274,16.188-55.9 c5.286-18.158,10.634-36.298,15.952-54.447c5.271-17.984,10.569-35.959,15.797-53.956c5.457-18.783,10.788-37.603,16.287-56.373 c2.444-8.343,4.95-16.681,7.812-24.886c5.175-14.834,15.301-25.521,28.545-33.663c9.428-5.796,19.618-9.332,30.337-11.595 c1.282-0.271,2.65-0.172,3.979-0.176c5.833-0.016,11.666-0.01,17.499-0.006c16.287,0.009,30.454,5.856,43.513,15.265 c16.304,11.747,25.507,27.929,29.9,47.072c1.95,8.496,2.988,17.202,4.429,25.814c1.113,6.653,2.188,13.312,3.314,19.963 c1.208,7.135,2.471,14.261,3.682,21.396c1.487,8.768,2.954,17.54,4.413,26.313c1.543,9.276,3.034,18.562,4.61,27.833 c1.157,6.811,2.451,13.599,3.616,20.409c1.164,6.81,2.247,13.633,3.358,20.451c1.428,8.767,2.827,17.539,4.275,26.303 c1.56,9.437,3.128,18.872,4.752,28.298c1.538,8.924,3.198,17.827,4.724,26.753c1.472,8.607,2.806,17.238,4.262,25.849 c1.566,9.262,3.266,18.501,4.796,27.769c1.475,8.924,2.735,17.883,4.221,26.804c1.485,8.923,3.171,17.811,4.698,26.727 c1.474,8.605,2.832,17.23,4.286,25.839c1.564,9.273,3.23,18.53,4.761,27.809c1.474,8.935,2.778,17.897,4.254,26.832 c1.125,6.807,2.482,13.574,3.591,20.383c1.533,9.421,2.873,18.874,4.406,28.295c1.033,6.356,2.277,12.678,3.388,19.021 c1.221,6.972,2.396,13.952,3.591,20.929c1.558,9.089,3.182,18.167,4.656,27.27c1.528,9.43,2.861,18.89,4.38,28.32 c0.996,6.187,2.179,12.343,3.259,18.516c1.246,7.118,2.472,14.241,3.706,21.361c1.574,9.077,3.227,18.141,4.7,27.233 c1.529,9.436,2.713,18.93,4.369,28.342c1.462,8.312,3.002,16.658,10.07,22.59c3.836,3.218,8.115,4.966,13.06,5.163 c0,0,1596.803,0.136,1600.464,0c22.969,0,44.959,16.644,51.207,38.674c1.768,6.229,0.729,12.553,1.119,18.824 c0.305,4.909-0.727,9.517-2.54,14.029c-6.26,15.576-16.873,26.496-33.004,32.053c-6.274,2.161-13.083,2.569-19.011,2.585H1069.196 c-14.862-0.069-28.28-4.377-38.868-15.281c-8.057-8.298-12.766-18.336-14.415-29.84c-1.146-7.989-2.707-15.919-3.837-23.91 c-1.504-10.628-2.67-21.303-4.17-31.932c-1.127-7.984-2.664-15.91-3.815-23.892c-1.177-8.153-2.007-16.355-3.171-24.511 c-1.162-8.139-2.632-16.233-3.811-24.371c-0.829-5.732-1.315-11.514-2.1-17.253c-1.295-9.463-2.661-18.917-4.083-28.362 c-1.225-8.137-2.67-16.242-3.833-24.388c-1.165-8.158-2.004-16.363-3.166-24.522c-1.138-7.987-2.59-15.931-3.742-23.916 c-1.181-8.181-2.09-16.4-3.256-24.583c-1.162-8.153-2.529-16.278-3.739-24.425c-0.801-5.386-1.452-10.793-2.228-16.182 c-0.892-6.197-1.891-12.379-2.761-18.579c-0.803-5.721-1.435-11.465-2.252-17.183c-1.168-8.178-2.468-16.336-3.652-24.512 c-0.828-5.715-1.548-11.444-2.334-17.165c-0.786-5.72-1.57-11.44-2.402-17.154c-0.832-5.71-1.729-11.411-2.585-17.118 c-0.93-6.193-1.886-12.384-2.756-18.585c-0.803-5.72-1.449-11.462-2.269-17.18c-1.171-8.173-2.457-16.329-3.653-24.499 c-0.812-5.547-1.533-11.108-2.331-16.658c-0.89-6.196-1.842-12.383-2.725-18.58c-0.79-5.549-1.485-11.111-2.288-16.658 c-0.873-6.024-1.867-12.032-2.725-18.059c-0.812-5.71-1.466-11.444-2.279-17.154c-1.164-8.171-2.432-16.327-3.613-24.495 c-0.826-5.706-1.554-11.426-2.377-17.132c-0.868-6.023-1.815-12.035-2.695-18.056c-0.786-5.38-1.514-10.77-2.295-16.151 c-0.922-6.354-1.922-12.697-2.799-19.057c-0.878-6.369-1.646-12.753-2.461-19.131C917.421,138.573,917.13,138.533,916.84,138.493z"/><path d="M1700.385 392.92c7.816 3.186 14.98 6.048 22.1 9.021 9.48 3.959 18.423 8.879 26.986 14.598 8.611 5.752 16.497 12.294 23.474 19.896 10.271 11.19 18.194 23.75 23.435 38.177 3.637 10.014 6.305 20.209 7.382 30.655 1.086 10.534 1.74 21.127.502 31.868-1.271 11.023-2.956 21.846-6.187 32.45-5.662 18.586-14.888 35.193-27.19 50.203-13.134 16.025-29.145 28.302-47.828 37.062-13.319 6.247-27.436 10.187-41.81 13.143-13.134 2.702-26.485 3.769-39.807 5.146-18.916 1.956-37.862 1.927-56.825 1.922-56.165-.015-112.332.175-168.495-.167-12.931-.079-25.56-2.917-36.557-10.581-7.452-5.193-12.365-12.238-15.599-20.627-2.988-7.754-4.869-15.697-5.091-24.041-.123-4.633-.858-9.256-.86-13.884-.048-134.496-.094-268.992.052-403.489.015-13.073 1.934-26.07 8.186-37.845 5.299-9.981 13.432-16.703 24.239-20.733 12.047-4.493 24.44-5.645 37.014-5.669 57.331-.111 114.663-.098 171.995 0 10.654.019 21.355.112 31.948 1.108 11.994 1.128 23.987 2.353 35.914 4.438 14.447 2.526 28.202 6.848 41.048 13.633 22.455 11.861 40.521 28.705 53.535 50.588 7.283 12.246 12.364 25.478 15.062 39.536 1.247 6.494 1.662 13.074 2.249 19.655.643 7.203.103 14.332-.428 21.387-.8 10.646-3.233 21.141-7.075 31.153-5.756 15.004-14.308 28.381-25.63 39.746-9.968 10.007-21.164 18.548-33.844 25.003C1708.443 388.227 1704.753 390.468 1700.385 392.92zM1468.135 594.96c2.282 0 4.086 0 5.89 0 34.822 0 69.645 0 104.467-.002 14.445 0 28.835-.214 43.151-2.868 12.887-2.389 25.275-5.844 36.917-11.987 10.39-5.483 18.834-13.133 24.999-22.954 7.192-11.459 9.595-24.49 10.389-37.829.457-7.673-.533-15.257-2.037-22.737-2.575-12.811-8.228-24.109-18.051-32.902-7.467-6.684-16.26-11.224-25.678-14.697-18.994-7.005-38.848-9.426-58.791-9.738-39.145-.614-78.306-.196-117.46-.183-1.256 0-2.512.24-3.796.372C1468.135 491.309 1468.135 542.77 1468.135 594.96zM1468.158 360.427c1.978.091 3.451.225 4.924.216 35.298-.211 70.596-.53 105.895-.612 13.124-.03 26.051-1.386 38.883-4.041 12.518-2.589 24.098-7.209 33.206-16.423 13.289-13.442 21.115-29.402 20.913-48.724-.031-2.997.076-5.998-.031-8.992-.271-7.473-1.827-14.793-4.716-21.586-5.134-12.069-13.856-20.761-26.347-25.485-11.277-4.266-22.725-7.681-34.797-8.84-8.041-.772-16.024-2.258-24.075-2.789-9.459-.624-18.963-.731-28.448-.763-26.979-.093-53.957-.038-80.936-.021-1.447.001-2.896.186-4.471.294C1468.158 268.676 1468.158 314.281 1468.158 360.427zM2150.958 618.044c-2.307 2.555-4.011 4.534-5.812 6.42-7.472 7.813-14.603 16.003-22.55 23.3-11.734 10.773-24.947 19.612-39.698 25.774-10.927 4.564-22.243 7.946-34.071 9.626-7.562 1.074-15.156 1.344-22.703 2.119-8.392.861-16.677.366-24.884-.442-8.957-.883-17.964-2.55-26.605-5.061-14.198-4.126-27.398-10.563-39.367-19.477-20.916-15.574-33.856-36.298-40.238-61.327-2.652-10.406-4.422-21.003-5.041-31.726-.843-14.604-1.864-29.228-1.916-43.846-.214-60.157-.154-120.316-.03-180.475.022-10.768.923-21.562 4.455-31.845 5.119-14.901 15.105-25.106 30.494-29.267 12.965-3.506 25.852-3.098 38.201 2.73 13.105 6.184 20.896 16.805 24.814 30.491 2.582 9.021 2.891 18.319 2.904 27.604.061 43.16-.08 86.321.078 129.481.068 18.465.007 36.975 1.268 55.378 1.042 15.229 3.312 30.468 9.628 44.695 7.388 16.643 19.06 28.646 37.142 33.079 9.121 2.236 18.339 3.087 27.975 1.991 13.857-1.575 26.332-6.241 37.867-13.55 10.327-6.542 19.002-15.005 25.843-25.247 6.895-10.324 10.827-21.631 12.362-33.972 1.534-12.338 2.438-24.679 3.014-37.102 1.869-40.309.364-80.626.852-120.936.159-13.163-.004-26.329.043-39.494.034-9.331 1.644-18.428 4.926-27.145 5.931-15.745 17.297-25.433 33.725-28.843 10.877-2.259 21.826-2.003 32.164 2.417 13.597 5.813 22.068 16.323 26.25 30.442 2.236 7.549 2.936 15.32 2.943 23.079.097 98.319.117 196.64-.006 294.959-.015 12.17-1.812 24.115-8.749 34.656-8.101 12.31-19.437 18.955-34.213 19.485-6.623.238-13.253.297-19.59-2.188-14.565-5.714-23.778-16.375-28.401-31.099-2.135-6.8-3.255-13.814-3.09-20.999C2151.039 627.447 2150.958 623.154 2150.958 618.044zM2491.836 686.035c-4.833 0-9.68.229-14.496-.054-7.27-.426-14.512-1.339-21.78-1.807-8.432-.542-16.627-2.335-24.852-4.086-14.403-3.065-28.17-7.989-41.38-14.387-9.989-4.838-19.494-10.551-28.242-17.466-18.971-14.997-32.326-33.87-36.677-57.781-2.349-12.912-1.705-26.244 7.985-37.13 7.606-8.544 16.813-13.959 28.414-14.289 5.265-.149 10.596.294 15.822 1.015 5.02.691 9.347 3.258 13.019 6.763 5.673 5.416 10.414 11.549 14.268 18.406 7.526 13.396 16.616 25.594 28.453 35.522 10.991 9.22 23.708 14.71 37.815 17.293 11.614 2.126 23.295 3.451 35.064 2.835 17.2-.899 33.59-4.693 47.517-15.675 6.073-4.789 11.423-10.271 13.986-17.749 1.602-4.671 2.75-9.489 1.541-14.594-.795-3.354-.694-6.933-1.583-10.254-3.142-11.754-10.768-19.864-21.384-25.392-11.745-6.116-24.144-10.578-36.854-14.135-15.993-4.476-32.119-8.481-48.082-13.06-12.157-3.487-24.249-7.264-36.185-11.442-10.864-3.804-21.692-7.856-32.152-12.638-14.853-6.787-28.123-16.094-39.53-27.883-11.65-12.041-19.402-26.056-22.792-42.663-2.058-10.082-2.357-20.188-1.526-30.198.957-11.503 4.336-22.576 9.622-33.02 5.734-11.329 12.865-21.523 21.884-30.515 9.395-9.365 20.288-16.497 31.898-22.636 14.98-7.92 31.026-12.946 47.629-15.82 12.049-2.086 24.238-3.658 36.572-3.279 6.992.215 14.009-.21 20.994.111 8.101.372 16.175 1.295 24.268 1.891 11.215.826 22.146 3.157 32.987 6.016 19.741 5.206 38.546 12.52 55.322 24.441 14.284 10.151 26.226 22.352 33.332 38.647 4.332 9.933 5.968 20.29 3.342 30.982-3.798 15.459-14.207 24.481-29.235 27.825-10.19 2.267-20.78 2.811-30.657-1.786-4.449-2.071-8.822-4.746-12.481-7.99-9.718-8.617-17.651-18.914-26.165-28.687-11.263-12.929-24.873-22.475-42.479-25.5-9.42-1.619-18.824-2.312-28.238-1.717-15.003.947-29.473 4.275-41.69 13.733-6.21 4.807-10.892 10.651-13.535 18.527-3.446 10.268 2.327 25.284 10.478 31.67 10.882 8.526 23.373 13.588 36.34 17.661 9.094 2.857 18.274 5.474 27.504 7.857 12.73 3.288 25.558 6.207 38.32 9.373 19.966 4.952 39.604 10.985 58.422 19.334 14.216 6.307 27.883 13.779 39.84 23.833 15.849 13.328 27.838 29.455 32.242 50.089 1.997 9.358 2.734 18.901 1.688 28.671-.987 9.217-1.935 18.364-4.358 27.32-4.199 15.521-11.176 29.589-21.535 41.982-16.808 20.108-38.584 32.147-63.156 40.134-11.469 3.727-23.139 6.339-34.926 8.461-7.297 1.312-14.776 1.708-22.195 2.217-9.449.649-18.919.999-28.38 1.477C2491.85 686.341 2491.843 686.188 2491.836 686.035zM1189.775 447.04c-19.482 0-38.973.34-58.443-.12-12.973-.307-24.752-4.525-33.073-15.196-7.395-9.483-9.812-20.202-7.232-32.174 3.347-15.535 12.771-25.059 27.893-28.824 6.225-1.551 12.752-2.579 19.149-2.626 34.467-.251 68.938-.317 103.404.014 9.205.089 18.553 1.154 27.036 5.439 13.091 6.611 20.038 17.219 20.574 31.989.255 7.05-.335 13.888-3.631 20.276-5.163 10.006-13.373 16.242-24.113 19.137-5.082 1.369-10.269 2.18-15.614 2.145-18.649-.124-37.299-.048-55.949-.048C1189.775 447.048 1189.775 447.044 1189.775 447.04z"/></g></svg>