<svg xmlns="http://www.w3.org/2000/svg" width="880" height="300" xml:space="preserve"><circle fill-rule="evenodd" clip-rule="evenodd" fill="#F1A730" cx="149.557" cy="150" r="98"/><g fill-rule="evenodd" clip-rule="evenodd" fill="#FAD04B"><circle cx="121.863" cy="46.645" r="36.999"/><circle cx="46.202" cy="122.306" r="36.999"/><circle cx="73.896" cy="225.662" r="36.998"/><circle cx="177.251" cy="253.355" r="36.999"/><circle cx="252.913" cy="177.693" r="36.999"/><circle cx="225.218" cy="74.338" r="36.999"/></g><g fill-rule="evenodd" clip-rule="evenodd" fill="#30A150"><path d="M138.89 63.824 136.561 55.131 121.863 46.646 113.378 61.343 115.708 70.036 121.364 60.238 140.517 131.716 130.719 126.06 133.048 134.753 147.745 143.238 156.23 128.542 153.901 119.848 148.244 129.646 129.092 58.167z"/><path d="M69.593 116.151 60.899 113.821 46.204 122.306 54.688 137.003 63.381 139.333 57.725 129.535 129.203 148.688 119.405 154.344 128.098 156.674 142.795 148.188 134.31 133.492 125.618 131.162 131.273 140.96 59.795 121.807z"/><path d="M81 202.326 74 208.69 74 226 90.867 226 97.23 219 85.917 219 139 166.97 139 178.284 145 171.92 145 155 127.636 155 121.273 161.338 132.956 161.327 81 213.64z"/><path d="M160.225 236.176 162.554 244.868 177.251 253.354 185.735 238.656 183.406 229.963 177.749 239.762 158.597 168.283 168.396 173.939 166.065 165.248 151.368 156.762 142.884 171.459 145.213 180.151 150.869 170.354 170.022 241.832z"/><path d="M229.521 183.85 238.214 186.18 252.91 177.693 244.426 162.996 235.732 160.667 241.39 170.466 169.91 151.312 179.708 145.655 171.016 143.327 156.318 151.811 164.805 166.508 173.496 168.838 167.84 159.041 239.318 178.193z"/><path d="M219 97.674 226 91.31 226 74 208.246 74 201.883 81 213.196 81 161 133.03 161 121.717 155 128.08 155 145 171.478 145 177.841 139 166.527 139 219 86.361z"/></g><path fill-rule="evenodd" clip-rule="evenodd" fill="#1392CF" d="M870.803 148.969c-8.102 0-15.387 0-22.748 0-.716-1.289-1.123-2.969-2.169-3.911-.829-1.183-2.188-1.171-3.271-1.173-9.607-.014-19.224-.097-28.817.31-2.821.12-6.078 1.213-5.844 5.665.603 2.14 6.783 2.903 10.505 3.088 9.645.476 19.307.589 28.946 1.138 3.791.215 7.612.923 11.289 1.898 6.338 1.682 9.553 5.755 9.673 12.281.149 8.208-2.377 15.692-6.878 22.545-2.879 4.382-7.248 6.413-12.106 7.122-6.895 1.007-13.875 2.14-20.802 2.042-12.454-.176-25-.454-37.312-2.128-12.347-1.68-16.499-10.298-12.177-22.508 7.217 0 14.507 0 22.186 0 .328 6.184 4.526 7.812 9.843 7.837 8.324.037 16.655.18 24.97-.109 5.423-.188 9.217-3.566 9.321-8.185-.604-4.007-5.542-4.618-9.33-4.683-8.663-.146-17.331.055-25.994-.091-3.977-.067-7.993-.335-11.908-1.003-9.016-1.537-13.23-6.648-13.198-15.918.043-12.777 7.6-23.951 20.87-25.758 13.788-1.877 27.558-1.695 41.361-.891 4.142.241 8.298.698 12.379 1.437 7.661 1.387 11.176 5.773 11.211 13.503C870.812 143.79 870.803 146.102 870.803 148.969zM747.054 127h23.866l-14.003 72h-23.918l2.868-13.586c-1.817 1.41-2.952 2.173-3.952 3.084-13.321 12.135-29.03 13.974-45.714 9.951-10.969-2.646-16.206-10.355-14.353-21.695 2.624-16.057 9.768-49.754 9.768-49.754h24.673c0 0-8.482 41.5-6.662 47.094 1.18 3.656 14.169 5.756 21.99 4.385 9.229-1.617 14.671-7.162 16.85-16.162C741.277 150.703 747.054 127 747.054 127zM579.411 97h25c0 0-5.418 27.447-7.78 40.031 3.093-6.364 10.264-10.987 29.715-10.987 6.813 0 13.654.302 20.425 1.009 9.38.979 14.521 6.393 14.735 15.771.368 16.084-3.583 31.342-10.564 45.714-3.801 7.823-11.289 10.728-19.456 11.011-9.455.327-18.947.012-28.408-.376-6.794-.278-12.48-3.088-16.517-9.813L584.642 199h-25.065L579.411 97zM591.153 176.022c.404.895 2.359 1.485 3.292 1.696 11.052 2.499 22.132 2.485 33.05-.509 2.087-.572 4.571-2.649 5.31-4.618 1.909-5.096 3.351-10.453 4.219-15.828.858-5.32-1.516-8.262-6.842-8.988-9.435-1.288-18.932-1.525-28.307.455-2.13.449-4.939 1.562-5.851 3.234C591.909 159.017 589.471 173.868 591.153 176.022zM528.381 137.455 536.153 97h25.486l-19.738 101.529h-25.369l1.765-9.332c-8.407 8.803-18.907 10.729-29.225 10.731-7.302.001-14.688-.041-21.885-1.1-8.891-1.308-13.59-7.262-13.761-16.309-.256-13.485 2.289-26.565 7.661-38.874 3.719-8.518 10.646-14.348 19.979-15.643 9.348-1.297 18.873-1.804 28.316-1.766C516.931 126.269 524.122 128.708 528.381 137.455zM481.09 177.746c11.518 2.979 23.04 2.644 34.369-.718 1.984-.589 4.146-2.983 4.848-5.019 1.715-4.984 3.024-10.191 3.733-15.413.591-4.348-1.009-8.482-6.442-8.731-5.96-.273-11.963-1.082-17.874-.648-16.87 1.237-17.893 1.164-21.289 19.104C477.788 169.734 477.307 176.75 481.09 177.746zM359.016 197.964c-9.749-1.589-13.567-6.671-13.589-16.611-.028-12.601 2.722-24.702 7.068-36.463 3.421-9.258 11.172-13.515 19.937-15.649 7.21-1.755 14.726-2.614 22.154-3.035 11.285-.639 22.639-.69 33.747 1.962 10.425 2.488 15.611 8.985 14.856 19.758-.871 12.449-3.354 24.643-8.288 36.246-2.094 4.925-5.627 7.988-10.454 10.041-8.539 3.633-17.479 5.195-26.658 5.607-3.985.18-7.985.03-11.979.03C385.789 200.126 367.838 199.402 359.016 197.964zM374.597 177.336c11.67 3.345 23.311 2.488 34.879-.475 1.293-.332 2.8-1.487 3.38-2.668 3.176-6.463 5.343-13.232 4.727-20.583-.25-2.976-1.83-5.111-4.85-5.513-10.398-1.384-20.796-2.127-31.168.43-3.039.749-5.264 2.329-6.019 5.291-1.467 5.753-2.777 11.556-3.85 17.393C371.395 172.854 371.057 176.332 374.597 177.336z"/><path fill-rule="evenodd" clip-rule="evenodd" fill="#1392CF" stroke="#FFF" stroke-miterlimit="10" d="M296.925 97 343.094 97 323.269 199 293.463 199 307.293 127.846 254.966 199 232.217 199 207.015 127.279 193.074 199 163.074 198.969 182.901 97 230.057 97 251.263 158.352z"/></svg>