<svg xmlns="http://www.w3.org/2000/svg" width="435" height="188" xml:space="preserve"><path d="M196.542 135.679 189.265 173.909 174.418 173.909 166.896 126.379 175.962 126.379 181.702 164.179 182.635 164.179 189.926 126.379 204.102 126.379 211.308 164.179 212.397 164.179 218.044 126.379 227.076 126.379 219.67 173.917 204.799 173.917 197.491 135.679zM43.683 161.521c-1.401 6.822-5.726 11.428-12.515 12.747-4.14.804-8.693.862-12.822.047-8.155-1.609-12.873-7.93-13.409-17.045-.273-4.646-.286-9.335-.014-13.981.665-11.334 8.163-18.163 19.676-18.208 11.477-.045 19.023 6.766 19.877 18.045C44.652 145.445 44.446 157.806 43.683 161.521zM34.743 140.782c-.969-4.562-4.605-7.223-9.375-7.529-4.846-.311-9.858 2.182-10.388 6.699-.801 6.822-.773 13.869-.02 20.701.486 4.399 4.786 6.424 10.017 6.331 5.13-.091 8.669-2.377 9.704-6.912C35.809 155.129 35.747 145.504 34.743 140.782zM59.148 169.835c0 6.106 0 17.824 0 17.824h-8.257v-47.262h7.557l.797 3.743c11.501-8.26 21.822-6.06 26.588 8.476 2.101 6.764-1.053 16.281-7.203 20.232C72.797 176.596 66.842 175.783 59.148 169.835zM77.733 157.23c.025-6.074-3.63-10.211-9.104-10.308-5.632-.1-9.648 4.298-9.543 10.452.101 5.954 4.012 10.144 9.428 10.102C73.953 167.434 77.709 163.261 77.733 157.23zM367.48 173.879h-8.432c0 0 .009-4.864-.002-7.274-.02-4.158.104-8.324-.123-12.47-.232-4.234-2.444-6.438-6.434-6.961-3.97-.521-7.564 1.377-8.772 5-.617 1.848-.811 3.899-.854 5.866-.114 5.13-.039 15.841-.039 15.841h-8.341v-47.525h8.082c0 0 0 12.19 0 18.363.304.177.608.355.912.532 2.758-3.876 6.351-5.743 10.983-5.628 6.796.168 12.276 4.058 12.863 10.798C367.996 158.125 367.48 173.879 367.48 173.879zM298.429 173.879h-7.799l-1.036-3.831c-.502.345-.941.555-1.262.882-4.5 4.578-12.402 5.642-17.805 2.324-3.412-2.095-5.062-5.187-4.835-9.201.222-3.93 2.469-6.699 5.932-7.902 3.402-1.182 7.103-1.535 10.69-2.143 2.406-.408 4.844-.627 7.396-.946.313-3.564-1.15-5.417-4.005-6.376-4.28-1.437-7.499.007-12.726 5.792-2.067-1.263-4.164-2.545-6.236-3.811 3.939-7.544 13.382-11.327 22.173-8.705 5.006 1.493 8.956 4.694 9.355 9.926C298.874 157.772 298.429 165.679 298.429 173.879zM274.652 163.29c-.343 3.902 4.646 5.641 9.264 4.289 4.288-1.255 6.062-4.147 5-8.724C284.286 160.755 275.059 158.692 274.652 163.29zM261.621 159.679H237.82c.229 4.315 2.315 6.702 5.807 7.681 4.535 1.271 8.136-.47 11.063-4.59 2.191 1.271 4.283 2.485 6.325 3.671-2.917 9.44-18.127 10.938-25.239 5.543-6.751-5.121-9.208-15.252-5.353-23.426 3.505-7.43 11.66-10.966 20.191-8.754C258.912 141.955 263.649 150.216 261.621 159.679zM238.047 153.479h15.086c-1.381-5.181-3.481-6.918-7.873-6.777C241.055 146.837 239.166 148.564 238.047 153.479zM123.387 159.658H99.238c.209 3.899 1.9 6.247 5.075 7.438 4.941 1.854 8.709-.197 11.935-4.271 2.19 1.276 4.288 2.498 6.374 3.713-4.259 7.881-13.573 10.846-22.049 7.291-8.414-3.529-12.612-13.664-9.58-23.122 2.666-8.312 10.87-12.948 19.766-11.169C119.827 141.352 124.472 148.473 123.387 159.658zM114.429 153.581c-.829-4.939-3.023-6.914-7.429-6.89-4.484.024-6.697 2.08-7.234 6.89H114.429zM382.099 159.603c2.493 9.576 9.444 10.619 17.368 3.355 2.047 1.217 4.142 2.464 6.232 3.707-5.123 8.224-14.886 10.878-23.251 6.649-7.95-4.019-11.592-14.224-8.297-23.251 3.031-8.306 11.616-12.572 20.7-10.286 8.319 2.094 12.839 9.749 11.314 19.826H382.099zM382.539 153.821h15.033c-1.353-5.47-3.49-7.248-7.872-7.121C385.486 146.822 383.519 148.625 382.539 153.821zM162.718 173.879h-8.771c0 0 .136-13.211-.049-19.663-.118-4.097-2.136-6.207-5.875-6.945-3.634-.718-7.612.822-8.925 3.923-.818 1.931-1.17 4.169-1.237 6.285-.168 5.303-.056 16.4-.056 16.4h-8.343c0 0 0-22.174 0-33.526 2.707 0 5.272 0 7.991 0 .158 1.638.297 3.088.523 5.433 3.088-4.215 6.604-6.26 11.287-6.171 7.016.133 12.096 4.244 13.22 11.146.266 1.63.22 3.32.227 4.982C162.732 161.699 162.718 173.879 162.718 173.879zM310.444 147.848l-8.507-.689v-6.85l8.46-.548v-9.838h8.304l.572 9.893 8.818.493v6.849l-8.699.67v18.71l6.87.66v6.682c-3.666 0-7.126.42-10.526.078-3.31-.332-5.093-2.592-5.222-6.225-.166-4.648-.061-9.307-.07-13.96C310.44 151.965 310.444 150.159 310.444 147.848zM412.288 140.313h7.936c0 0 .493 2.661.879 4.751 3.089-4.888 7.15-5.735 12.129-4.735 0 2.254 0 4.357 0 7.068-1.535.089-3.118.186-4.702.273-5.572.308-7.665 2.429-7.739 8.115-.078 5.94-.018 18.095-.018 18.095h-8.486V140.313z" fill-rule="evenodd" clip-rule="evenodd"/><path d="M195.858 133.8 188.581 172.03 173.734 172.03 166.211 124.5 175.278 124.5 181.018 162.3 181.951 162.3 189.242 124.5 203.418 124.5 210.624 162.3 211.713 162.3 217.36 124.5 226.392 124.5 218.986 172.038 204.115 172.038 196.807 133.8zM42.999 159.642c-1.401 6.822-5.726 11.428-12.515 12.747-4.14.804-8.693.862-12.822.047-8.155-1.609-12.873-7.93-13.409-17.045-.273-4.646-.286-9.335-.014-13.981.665-11.334 8.163-18.163 19.676-18.208 11.477-.045 19.023 6.766 19.877 18.045C43.968 143.565 43.762 155.926 42.999 159.642zM34.059 138.903c-.969-4.562-4.605-7.223-9.375-7.529-4.846-.311-9.858 2.182-10.388 6.699-.801 6.822-.773 13.869-.02 20.701.486 4.399 4.786 6.424 10.017 6.331 5.13-.091 8.669-2.377 9.704-6.912C35.125 153.25 35.062 143.625 34.059 138.903zM58.464 167.956c0 6.106 0 17.824 0 17.824h-8.257v-47.262h7.557l.797 3.743c11.501-8.26 21.822-6.06 26.588 8.476 2.101 6.764-1.053 16.281-7.203 20.232C72.113 174.717 66.158 173.904 58.464 167.956zM77.049 155.351c.025-6.074-3.63-10.211-9.104-10.308-5.632-.1-9.648 4.298-9.543 10.452.101 5.954 4.012 10.144 9.428 10.102C73.269 165.555 77.025 161.381 77.049 155.351zM366.796 172h-8.432c0 0 .009-4.864-.002-7.274-.02-4.158.104-8.324-.123-12.47-.232-4.234-2.444-6.438-6.434-6.961-3.97-.521-7.564 1.377-8.772 5-.617 1.848-.811 3.899-.854 5.866-.114 5.13-.039 15.841-.039 15.841H333.8v-47.525h8.082c0 0 0 12.19 0 18.363.304.177.608.355.912.532 2.758-3.876 6.351-5.743 10.983-5.628 6.796.168 12.276 4.058 12.863 10.798C367.312 156.246 366.796 172 366.796 172zM297.745 172h-7.799l-1.036-3.831c-.502.345-.941.555-1.262.882-4.5 4.578-12.402 5.642-17.805 2.324-3.412-2.095-5.062-5.187-4.835-9.201.222-3.93 2.469-6.699 5.932-7.902 3.402-1.182 7.103-1.535 10.69-2.143 2.406-.408 4.844-.627 7.396-.946.313-3.564-1.15-5.417-4.005-6.376-4.28-1.437-7.499.007-12.726 5.792-2.067-1.263-4.164-2.545-6.236-3.811 3.939-7.544 13.382-11.327 22.173-8.705 5.006 1.493 8.956 4.694 9.355 9.926C298.19 155.893 297.745 163.799 297.745 172zM273.968 161.41c-.343 3.902 4.646 5.641 9.264 4.289 4.288-1.255 6.062-4.147 5-8.724C283.602 158.876 274.375 156.812 273.968 161.41zM260.937 157.8h-23.801c.229 4.315 2.315 6.702 5.807 7.681 4.535 1.271 8.136-.47 11.063-4.59 2.191 1.271 4.283 2.485 6.325 3.671-2.917 9.44-18.127 10.938-25.239 5.543-6.751-5.121-9.208-15.252-5.353-23.426 3.505-7.43 11.66-10.966 20.191-8.754C258.228 140.076 262.965 148.336 260.937 157.8zM237.363 151.6h15.086c-1.381-5.181-3.481-6.918-7.873-6.777C240.371 144.958 238.482 146.685 237.363 151.6zM122.703 157.778H98.554c.209 3.899 1.9 6.247 5.075 7.438 4.941 1.854 8.709-.197 11.935-4.271 2.19 1.276 4.288 2.498 6.374 3.713-4.259 7.881-13.573 10.846-22.049 7.291-8.414-3.529-12.612-13.664-9.58-23.122 2.666-8.312 10.87-12.948 19.766-11.169C119.143 139.472 123.788 146.593 122.703 157.778zM113.745 151.702c-.829-4.939-3.023-6.914-7.429-6.89-4.484.024-6.697 2.08-7.234 6.89H113.745zM381.415 157.724c2.493 9.576 9.444 10.619 17.368 3.355 2.047 1.217 4.142 2.464 6.232 3.707-5.123 8.224-14.886 10.878-23.251 6.649-7.95-4.019-11.592-14.224-8.297-23.251 3.031-8.306 11.616-12.572 20.7-10.286 8.319 2.094 12.839 9.749 11.314 19.826H381.415zM381.854 151.942h15.033c-1.353-5.47-3.49-7.248-7.872-7.121C384.802 144.943 382.835 146.745 381.854 151.942zM162.034 172h-8.771c0 0 .136-13.211-.049-19.663-.118-4.097-2.136-6.207-5.875-6.945-3.634-.718-7.612.822-8.925 3.923-.818 1.931-1.17 4.169-1.237 6.285-.168 5.303-.056 16.4-.056 16.4h-8.343c0 0 0-22.174 0-33.526 2.707 0 5.272 0 7.991 0 .158 1.638.297 3.088.523 5.433 3.088-4.215 6.604-6.26 11.287-6.171 7.016.133 12.096 4.244 13.22 11.146.266 1.63.22 3.32.227 4.982C162.048 159.819 162.034 172 162.034 172zM309.76 145.968l-8.507-.689v-6.85l8.46-.548v-9.838h8.304l.572 9.893 8.818.493v6.849l-8.699.67v18.71l6.87.66V172c-3.666 0-7.126.42-10.526.078-3.31-.332-5.093-2.592-5.222-6.225-.166-4.648-.061-9.307-.07-13.96C309.756 150.086 309.76 148.28 309.76 145.968zM411.604 138.434h7.936c0 0 .493 2.661.879 4.751 3.089-4.888 7.15-5.735 12.129-4.735 0 2.254 0 4.357 0 7.068-1.535.089-3.118.186-4.702.273-5.572.308-7.665 2.429-7.739 8.115C420.03 159.846 420.09 172 420.09 172h-8.486V138.434z" fill-rule="evenodd" clip-rule="evenodd" fill="#F2F2F2"/><g fill-rule="evenodd" clip-rule="evenodd" fill="#EA6E4B"><path d="M163.876 96.379c-1.653 0-3.314.104-4.957-.023-2.73-.211-4.227-1.811-4.256-4.528-.026-2.453 1.292-4.341 3.704-4.538 3.774-.308 7.614-.353 11.381-.008 2.628.241 3.99 2.337 3.77 4.982-.202 2.417-1.671 3.942-4.189 4.093C167.517 96.466 165.694 96.378 163.876 96.379zM137.445 96.347c-1.819 0-3.652.136-5.456-.033-2.477-.231-3.88-1.734-4.032-4.232-.152-2.5 1.12-4.484 3.471-4.71 3.928-.378 7.941-.374 11.872-.017 2.342.212 3.698 2.158 3.581 4.645-.116 2.468-1.505 4.036-3.982 4.29-1.8.184-3.634.036-5.453.036C137.446 96.332 137.446 96.339 137.445 96.347z"/><path d="M148.705,68.401c4.639,0,8.458-0.104,12.269,0.029 c3.768,0.132,5.712,1.991,5.548,4.964c-0.151,2.733-2.036,4.417-5.581,4.437c-13.999,0.078-27.998,0.035-41.997,0.04 c-1.333,0-2.669-0.028-3.999,0.045c-2.754,0.15-4.408,1.696-4.505,4.385c-0.096,2.673,1.404,4.352,4.15,4.719l1.472,0 c4.188,0,4.971,3.219,4.971,4.714c0,1.538-1.346,4.744-4.909,4.744h-3.583c-3.965,0-5.796,1.706-5.819,4.676 c-0.023,2.998,1.822,4.636,5.775,4.677c8.665,0.09,17.332,0.025,25.998,0.038c1.332,0.002,2.687-0.07,3.989,0.148 c2.505,0.419,3.735,2.101,3.707,4.57c-0.03,2.475-1.288,4.104-3.83,4.453c-1.148,0.158-2.327,0.12-3.492,0.12 c-25.165,0.006-50.33,0.009-75.495,0c-5.423-0.002-7.337-1.167-7.467-4.445c-0.138-3.497,1.934-4.833,7.566-4.849 c4.833-0.013,9.667,0.046,14.499-0.019c4.276-0.058,6.298-1.651,6.244-4.732c-0.053-3.057-2.031-4.596-6.377-4.636H50.386 c-2.386,0-4.044-2.186-4.044-4.744c0-1.567,0-4.647,5.091-4.585c3.134,0.038,5.157-1.474,5.356-4.693 c0.175-2.822-2.047-4.5-5.901-4.564c-4.832-0.08-11.089,0.068-15.919-0.051c-3.008-0.075-4.467-2.444-4.42-4.755 c0.045-2.233,1.499-4.412,4.321-4.412l3.128,0c0,0-0.069-1.07-0.084-1.228c-1.971-20.41,4.191-37.957,20.394-51.29 c11.302-9.3,24.49-13.281,39.084-12.238c16.154,1.155,29.365,8.2,39.545,20.717C147.144,37.186,150.458,51.811,148.705,68.401z"/></g></svg>