<svg xmlns="http://www.w3.org/2000/svg" width="300" height="300" xml:space="preserve"><path fill="#123453" d="M262.761,207.689c1.028-3.981,1.577-8.461,1.577-13.404c0-31.573-22.327-70.06-49.87-85.961	c-4.63-2.672-9.104-4.518-13.357-5.621c-11.048-31.728-33.897-62.331-60.298-77.573c-20.178-11.65-38.275-11.923-50.62-2.938	l-0.005-0.006l-7.771,4.8c-0.627,0.357-1.239,0.738-1.842,1.137l-0.098,0.061l0.002,0.002C73.76,32.68,68.633,39.799,65.65,49.232	v-0.001c-11.946-4.747-22.477-3.812-30.018,1.885h-0.007l-7.262,4.548c-9.563,4.894-15.538,16.154-15.538,32.471	c0,30.423,20.732,67.253,46.883,84.125l-0.005,0.109l185.403,107.042v-0.027c0.311,0.19,0.621,0.386,0.934,0.566	c8.833,5.099,16.781,5.365,22.333,1.672l0.003,0.004l10.049-6.294l0.006-0.013c5.402-3.167,8.742-9.861,8.742-19.383	C287.174,239.044,276.682,218.906,262.761,207.689z"/><path fill="none" stroke="#000" stroke-linecap="round" stroke-linejoin="round" d="M262.761,207.689	c1.028-3.981,1.577-8.461,1.577-13.404c0-31.573-22.327-70.06-49.87-85.961c-4.63-2.672-9.104-4.518-13.357-5.621	c-11.048-31.728-33.897-62.331-60.298-77.573c-20.178-11.65-38.275-11.923-50.62-2.938l-0.005-0.006l-7.771,4.8	c-0.627,0.357-1.239,0.738-1.842,1.137l-0.098,0.061l0.002,0.002C73.76,32.68,68.633,39.799,65.65,49.232v-0.001	c-11.946-4.747-22.477-3.812-30.018,1.885h-0.007l-7.262,4.548c-9.563,4.894-15.538,16.154-15.538,32.471	c0,30.423,20.732,67.253,46.883,84.125l-0.005,0.109l185.403,107.042v-0.027c0.311,0.19,0.621,0.386,0.934,0.566	c8.833,5.099,16.781,5.365,22.333,1.672l0.003,0.004l10.049-6.294l0.006-0.013c5.402-3.167,8.742-9.861,8.742-19.383	C287.174,239.044,276.682,218.906,262.761,207.689z"/><path fill="#BDE3FF" d="M252.013,214.005c1.028-3.98,1.575-8.461,1.575-13.403c0-31.573-22.326-70.06-49.869-85.961	c-4.629-2.672-9.104-4.518-13.357-5.621c-11.048-31.728-33.896-62.331-60.297-77.573c-34.126-19.703-62.321-6.892-66.756,28.274	c-0.204-0.121-0.407-0.253-0.612-0.371c-27.543-15.902-49.87-3.197-49.87,28.376c0,30.423,20.732,67.254,46.883,84.125l-0.005,0.109	l185.403,107.042v-0.027c0.311,0.19,0.621,0.387,0.934,0.567c16.78,9.688,30.384,1.948,30.384-17.288	C276.425,245.361,265.934,225.222,252.013,214.005z"/><path fill="none" stroke="#000" stroke-miterlimit="10" d="M252.013,214.005c1.028-3.98,1.575-8.461,1.575-13.403	c0-31.573-22.326-70.06-49.869-85.961c-4.629-2.672-9.104-4.518-13.357-5.621c-11.048-31.728-33.896-62.331-60.297-77.573	c-34.126-19.703-62.321-6.892-66.756,28.274c-0.204-0.121-0.407-0.253-0.612-0.371c-27.543-15.902-49.87-3.197-49.87,28.376	c0,30.423,20.732,67.254,46.883,84.125l-0.005,0.109l185.403,107.042v-0.027c0.311,0.19,0.621,0.387,0.934,0.567	c16.78,9.688,30.384,1.948,30.384-17.288C276.425,245.361,265.934,225.222,252.013,214.005z"/><path fill="#FAFF3A" d="M163.953,155.889c0,16.626-11.757,23.317-26.261,14.943s-26.262-28.641-26.262-45.267	c0-16.626,11.758-23.317,26.262-14.943S163.953,139.263,163.953,155.889z"/><path fill="none" stroke="#000" stroke-linecap="round" stroke-linejoin="round" d="M163.953,155.889	c0,16.626-11.757,23.317-26.261,14.943s-26.262-28.641-26.262-45.267c0-16.626,11.758-23.317,26.262-14.943	S163.953,139.263,163.953,155.889z M111.774,127.362l52.001,29.806"/><path fill="none" stroke="#000" stroke-linecap="round" stroke-linejoin="round" d="M115.761,111.503	c0,0,20.889,21.31,43.438,25.079 M116.463,145.413c0,0,20.187,2.812,42.735,25.079 M137.138,170.512v-60.209"/><path fill="none" stroke="#000" stroke-linecap="round" stroke-linejoin="round" d="M126.961,162.017	c-2.199-9.955-6.432-34.722,0.344-54.893 M148.541,174.416c2.204-7.457,6.4-27.308-0.358-55.237"/><path fill="#FAFF3A" d="M174.093,131.7c1.977,4.975,0.868,9.28-2.476,9.616s-7.659-3.427-9.636-8.401	c-1.978-4.975-0.868-9.28,2.476-9.616C167.802,122.962,172.115,126.724,174.093,131.7z"/><path fill="none" stroke="#000" stroke-linecap="round" stroke-linejoin="round" d="M174.093,131.7	c1.977,4.975,0.868,9.28-2.476,9.616s-7.659-3.427-9.636-8.401c-1.978-4.975-0.868-9.28,2.476-9.616	C167.802,122.962,172.115,126.724,174.093,131.7z M114.025,160.347c-3.464-5.133-6.485-10.77-8.85-16.723	c-10.358-26.066-4.465-48.962,13.058-50.72c11.65-1.169,26.179,7.234,37.818,21.872 M172.795,149.35	c4.615,21.206-2.319,37.133-16.799,38.586c-10.299,1.032-22.469-5.451-32.856-16.267"/><path fill="#F6C718" d="M159.626,139.671l12.641-7.191l-3.163-1.826l7.345-7.367L163.77,130.7l3.164,1.826L159.626,139.671"/><path fill="none" stroke="#000" stroke-linecap="round" stroke-linejoin="round" d="M159.626,139.671l12.641-7.191l-3.163-1.826	l7.345-7.367L163.77,130.7l3.164,1.826L159.626,139.671"/></svg>