<svg xmlns="http://www.w3.org/2000/svg" width="70" height="70" xml:space="preserve"><path fill="#F0F9FF" d="M-703.7-560.509l18.75,10.749v43.151l-18.618-10.673L-703.7-560.509z" transform="translate(720 574)"/><path stroke="#000" stroke-linecap="round" stroke-linejoin="round" d="M-703.7-560.509 l18.75,10.749v43.151l-18.618-10.673L-703.7-560.509z" fill="none" transform="translate(720 574)"/><path fill="#123453" d="M-684.95-549.76l18.65-10.844v43.15l-18.65,10.845V-549.76z" transform="translate(720 574)"/><path stroke="#000" stroke-linecap="round" stroke-linejoin="round" d="M-684.95-549.76 l18.65-10.844v43.15l-18.65,10.845V-549.76z" fill="none" transform="translate(720 574)"/><path fill="#BDE3FF" d="M-703.7-560.509l18.717-10.883l18.684,10.788l-18.65,10.844L-703.7-560.509z" transform="translate(720 574)"/><path stroke="#000" stroke-linecap="round" stroke-linejoin="round" d="M-703.7-560.509 l18.717-10.883l18.684,10.788l-18.65,10.844L-703.7-560.509z" fill="none" transform="translate(720 574)"/><path fill="#123453" d="M-684.962-564.876l-9.341,5.394l9.341,5.394l9.342-5.394L-684.962-564.876z" transform="translate(720 574)"/><path stroke="#000" stroke-linecap="round" stroke-linejoin="round" d="M-684.962-564.876 l-9.341,5.394l9.341,5.394l9.342-5.394L-684.962-564.876z" fill="none" transform="translate(720 574)"/><path fill="#BDE3FF" d="M-684.962-567.12l-9.341,5.395l9.341,5.394l9.342-5.394L-684.962-567.12z" transform="translate(720 574)"/><path stroke="#000" stroke-linecap="round" stroke-linejoin="round" d="M-684.962-567.12 l-9.341,5.395l9.341,5.394l9.342-5.394L-684.962-567.12z" fill="none" transform="translate(720 574)"/><path fill="#F0F9FF" d="M-694.303-561.726v2.243l9.341,5.394v-2.243L-694.303-561.726z" transform="translate(720 574)"/><path stroke="#000" stroke-linecap="round" stroke-linejoin="round" d="M-694.303-561.726 v2.243l9.341,5.394v-2.243L-694.303-561.726z" fill="none" transform="translate(720 574)"/><path fill="#123453" d="M-675.596-561.695l-0.015,2.242l-9.376,5.336l0.015-2.243L-675.596-561.695z" transform="translate(720 574)"/><path stroke="#000" stroke-linecap="round" stroke-linejoin="round" d="M-675.596-561.695 l-0.015,2.242l-9.376,5.336l0.015-2.243L-675.596-561.695z" fill="none" transform="translate(720 574)"/><path fill="#F0F9FF" d="M-699.671-547.835l9.309,5.375" transform="translate(720 574)"/><path stroke="#000" stroke-linecap="round" stroke-linejoin="round" d="M-699.671-547.835 l9.309,5.375" fill="none" transform="translate(720 574)"/><path fill="#BDE3FF" d="M-698.334-524.216c0,0.691-0.489,0.969-1.092,0.621c-0.604-0.348-1.091-1.19-1.091-1.882 s0.487-0.969,1.091-0.621C-698.823-525.75-698.334-524.906-698.334-524.216z" transform="translate(720 574)"/><path stroke="#000" stroke-linecap="round" stroke-linejoin="round" d="M-698.334-524.216 c0,0.691-0.489,0.969-1.092,0.621c-0.604-0.348-1.091-1.19-1.091-1.882s0.487-0.969,1.091-0.621 C-698.823-525.75-698.334-524.906-698.334-524.216z" fill="none" transform="translate(720 574)"/><path fill="#BDE3FF" d="M-693.649-522.217c0,0.691-0.488,0.969-1.092,0.621c-0.603-0.348-1.092-1.189-1.092-1.881 s0.489-0.97,1.092-0.622C-694.138-523.751-693.649-522.907-693.649-522.217z" transform="translate(720 574)"/><path stroke="#000" stroke-linecap="round" stroke-linejoin="round" d="M-693.649-522.217c0,0.691-0.488,0.969-1.092,0.621c-0.603-0.348-1.092-1.189-1.092-1.881s0.489-0.97,1.092-0.622 C-694.138-523.751-693.649-522.907-693.649-522.217z" fill="none" transform="translate(720 574)"/><path fill="#BDE3FF" d="M-688.973-519.992c0,0.69-0.489,0.969-1.093,0.62c-0.603-0.348-1.091-1.19-1.091-1.882 c0-0.69,0.488-0.969,1.091-0.621C-689.462-521.526-688.973-520.684-688.973-519.992z" transform="translate(720 574)"/><path stroke="#000" stroke-linecap="round" stroke-linejoin="round" d="M-688.973-519.992 c0,0.69-0.489,0.969-1.093,0.62c-0.603-0.348-1.091-1.19-1.091-1.882c0-0.69,0.488-0.969,1.091-0.621 C-689.462-521.526-688.973-520.684-688.973-519.992z" fill="none" transform="translate(720 574)"/><path fill="#BDE3FF" d="M-690.617-528.783l-8.248-4.763v-9.455l8.248,4.763V-528.783z" transform="translate(720 574)"/><path stroke="#000" stroke-linecap="round" stroke-linejoin="round" d="M-690.617-528.783 l-8.248-4.763v-9.455l8.248,4.763V-528.783z" fill="none" transform="translate(720 574)"/><path fill="#FBFF64" d="M-700.622-530.122l8.424-4.794l-2.107-1.217l4.895-4.91l-8.449,4.941l2.108,1.217 L-700.622-530.122" transform="translate(720 574)"/><path stroke="#000" stroke-linecap="round" stroke-linejoin="round" d="M-700.622-530.122l8.424-4.794l-2.107-1.217l4.895-4.91l-8.449,4.941l2.108,1.217L-700.622-530.122" fill="none" transform="translate(720 574)"/></svg>