<svg xmlns="http://www.w3.org/2000/svg" width="100" height="100" xml:space="preserve"><path fill="#F0F9FF" d="M81.518,70.738c-17.298,9.987-45.432,9.938-62.838-0.113C1.273,60.575,1.185,44.333,18.482,34.347	c17.298-9.987,45.432-9.938,62.838,0.112C98.727,44.51,98.815,60.751,81.518,70.738z"/><path fill="none" stroke="#000" stroke-linecap="round" stroke-linejoin="round" d="M81.518,70.738	c-17.298,9.987-45.432,9.938-62.838-0.113C1.273,60.575,1.185,44.333,18.482,34.347c17.298-9.987,45.432-9.938,62.838,0.112	C98.727,44.51,98.815,60.751,81.518,70.738z"/><path fill="#F0F9FF" d="M12.438,43.51v6.945l37.396,21.439v-6.946L12.438,43.51z"/><path fill="none" stroke="#000" stroke-linecap="round" stroke-linejoin="round" d="M12.438,43.51v6.945l37.396,21.439v-6.946	L12.438,43.51z"/><path fill="#123453" d="M87.029,43.319v6.946L49.834,71.895v-6.946L87.029,43.319z"/><path fill="none" stroke="#000" stroke-linecap="round" stroke-linejoin="round" d="M87.029,43.319v6.946L49.834,71.895v-6.946	L87.029,43.319z"/><path fill="#BDE3FF" d="M12.438,43.51l37.329-21.706l37.263,21.516L49.834,64.948L12.438,43.51z"/><path fill="none" stroke="#000" stroke-linecap="round" stroke-linejoin="round" d="M12.438,43.51l37.329-21.706l37.263,21.516	L49.834,64.948L12.438,43.51z M83.606,48.697l5.44,3.143 M79.215,51.233l5.441,3.142 M74.823,53.769l5.441,3.142 M70.432,56.305	l5.441,3.141 M66.04,58.84l5.441,3.142 M61.648,61.375l5.442,3.142 M57.258,63.91l5.441,3.143 M52.866,66.445l5.441,3.142 M15.927,49.011l-5.442,3.142 M20.317,51.546l-5.44,3.143 M24.709,54.081l-5.441,3.143 M29.101,56.617l-5.441,3.142 M33.492,59.152	l-5.441,3.142 M37.884,61.688l-5.441,3.142 M42.275,64.224l-5.441,3.142 M46.666,66.759l-5.44,3.142"/><path fill="#003657" d="M39.392,36.455l0.942-0.543c0.153,0.303,0.453,0.663,1.02,0.99c0.512,0.295,1.173,0.481,1.63,0.217	c0.361-0.209,0.159-0.507-0.155-0.846l-0.271-0.29c-0.599-0.644-0.459-1.194,0.153-1.548c0.895-0.517,2.303-0.356,3.436,0.298	c0.395,0.228,0.838,0.562,1.012,0.805l-0.88,0.508c-0.188-0.273-0.577-0.594-0.977-0.823c-0.561-0.323-1.194-0.478-1.556-0.269	c-0.285,0.165-0.214,0.442,0.141,0.82l0.271,0.291c0.55,0.593,0.742,1.129-0.11,1.621c-0.859,0.496-2.357,0.387-3.49-0.268	C39.907,37.044,39.595,36.729,39.392,36.455z M45.934,40.523c-1.493-0.862-1.423-2.01,0.111-2.897	c1.533-0.886,3.516-0.921,5.01-0.06c1.492,0.862,1.43,2.007-0.104,2.893C49.416,41.346,47.427,41.385,45.934,40.523z M46.711,40.074	c0.78,0.451,2.058,0.464,3.217-0.205c1.158-0.669,1.13-1.402,0.35-1.853c-0.78-0.451-2.052-0.468-3.211,0.201	S45.932,39.624,46.711,40.074z M51.502,42.723l2.023,1.169l-0.791,0.456l-3.014-1.74l4.943-2.854l0.989,0.571L51.502,42.723z M53.398,44.73l6.811-1.776l0.993,0.574l-3.069,3.937l-1.072-0.619l0.826-0.995l-1.756-1.015l-1.724,0.478L53.398,44.73z M58.4,45.227l1.077-1.309l-2.265,0.621L58.4,45.227z M64.051,45.174l1.541,0.89c1.535,0.886,1.632,1.532,0.678,2.083	c-0.621,0.357-1.491,0.454-2.499,0.117l-0.717,2.042l-1.093-0.63l0.698-1.929l-0.545-0.313l-2.018,1.165l-0.989-0.572L64.051,45.174	z M64.249,46.2l-1.344,0.776l0.676,0.39c0.63,0.363,1.153,0.493,1.673,0.193c0.518-0.299,0.302-0.604-0.377-0.996L64.249,46.2z M35.67,43.936l1.766-3.334l-3.771,2.176l-0.933-0.539l4.943-2.853l1.285,0.741l-1.766,3.334l3.771-2.177l0.933,0.538l-4.943,2.855	L35.67,43.936z M40.564,46.863c-1.492-0.862-1.424-2.01,0.11-2.896s3.519-0.922,5.011-0.061c1.492,0.862,1.431,2.007-0.104,2.894	C44.049,47.686,42.058,47.725,40.564,46.863z M41.342,46.414c0.78,0.451,2.059,0.464,3.218-0.205s1.13-1.403,0.349-1.854	c-0.779-0.451-2.052-0.467-3.211,0.202S40.562,45.965,41.342,46.414z M50.67,46.888c1.591,0.918,2.385,1.967,0.428,3.096	c-1.964,1.134-3.78,0.676-5.37-0.242l-1.375-0.794l4.942-2.854L50.67,46.888z M49.949,47.385l-0.456-0.265l-3.362,1.942l0.457,0.262	c0.911,0.527,2.021,0.917,3.487,0.07C51.534,48.552,50.861,47.91,49.949,47.385z M54.825,49.285l3.233,1.867l-0.791,0.457	l-2.245-1.296l-1.228,0.708l2.101,1.213l-0.791,0.456l-2.101-1.212l-1.344,0.775l2.246,1.297l-0.791,0.457l-3.234-1.867	L54.825,49.285z"/></svg>