<svg xmlns="http://www.w3.org/2000/svg" width="150" height="150" xml:space="preserve"><path fill="#123453" d="M135.766,124.292l-0.524,0.258C135.424,124.489,135.599,124.401,135.766,124.292z"/><path fill="none" stroke="#000" stroke-linecap="round" stroke-linejoin="round" d="M135.766,124.292l-0.524,0.258	C135.424,124.489,135.599,124.401,135.766,124.292z"/><path fill="#123453" d="M132.912,89.588L22.696,25.954c-2.83-1.634-5.436-1.801-7.482-0.76l-0.002-0.001l-0.062,0.03	c-0.002,0.001-0.004,0.003-0.006,0.004l-5.967,2.959l2.904,0.384c-0.812,1.672-1.274,3.82-1.274,6.372l0,0	c0,8.718,5.35,18.94,11.889,22.715l110.216,63.633c1.489,0.861,2.918,1.312,4.235,1.396c-0.39,0.683-0.848,1.259-1.382,1.605	l4.059-1.99c0.344-0.131,0.673-0.292,0.987-0.485l0.013-0.006l0.001-0.002c2.436-1.502,3.976-4.831,3.976-9.506l0,0	C144.801,103.584,139.45,93.362,132.912,89.588z"/><path fill="none" stroke="#000" stroke-linecap="round" stroke-linejoin="round" d="M132.912,89.588L22.696,25.954	c-2.83-1.634-5.436-1.801-7.482-0.76l-0.002-0.001l-0.062,0.03c-0.002,0.001-0.004,0.003-0.006,0.004l-5.967,2.959l2.904,0.384	c-0.812,1.672-1.274,3.82-1.274,6.372l0,0c0,8.718,5.35,18.94,11.889,22.715l110.216,63.633c1.489,0.861,2.918,1.312,4.235,1.396	c-0.39,0.683-0.848,1.259-1.382,1.605l4.059-1.99c0.344-0.131,0.673-0.292,0.987-0.485l0.013-0.006l0.001-0.002	c2.436-1.502,3.976-4.831,3.976-9.506l0,0C144.801,103.584,139.45,93.362,132.912,89.588z"/><path fill="#BDE3FF" d="M127.304,124.044L17.089,60.411c-6.539-3.774-11.89-13.997-11.89-22.715l0,0	c0-8.718,5.351-12.763,11.89-8.988l110.215,63.634c6.539,3.774,11.888,13.997,11.888,22.715l0,0	C139.191,123.774,133.843,127.819,127.304,124.044z"/><path fill="none" stroke="#000" stroke-miterlimit="10" d="M127.304,124.044L17.089,60.411	c-6.539-3.774-11.89-13.997-11.89-22.715l0,0c0-8.718,5.351-12.763,11.89-8.988l110.215,63.634	c6.539,3.774,11.888,13.997,11.888,22.715l0,0C139.191,123.774,133.843,127.819,127.304,124.044z"/><path fill="#123453" d="M33.117 60.04v-2.291c.709.858 1.68 1.817 2.867 2.503 1.072.618 2.101.797 2.101-.315 0-.88-.753-1.696-1.695-2.572l-.812-.75c-1.796-1.668-2.649-3.489-2.649-4.982 0-2.176 1.767-2.532 4.142-1.161.826.477 1.898 1.262 2.521 1.92v2.141c-.695-.75-1.679-1.518-2.521-2.003-1.173-.678-2.114-.771-2.114.108 0 .696.579 1.528 1.637 2.505l.811.751c1.652 1.534 2.825 3.107 2.825 5.183 0 2.092-1.768 2.665-4.143 1.294C34.725 61.583 33.826 60.782 33.117 60.04zM47.357 68.876c-3.129-1.806-5.143-5.476-5.143-9.211 0-3.734 2.014-5.062 5.143-3.257 3.128 1.808 5.141 5.459 5.141 9.194S50.485 70.684 47.357 68.876zM47.357 66.983c1.637.945 2.998.204 2.998-2.618s-1.361-5.119-2.998-6.063-2.998-.221-2.998 2.602S45.721 66.039 47.357 66.983zM57.181 72.406 61.424 74.855 61.424 76.781 55.109 73.137 55.109 61.101 57.181 62.297zM62.815 77.585l3.91-9.777 2.085 1.204 3.926 14.301-2.245-1.295-.941-3.648-3.679-2.124-.941 2.562L62.815 77.585zM68.955 76.083l-1.244-4.785-1.246 3.348L68.955 76.083zM74.782 72.458l3.229 1.864c3.215 1.856 4.489 3.837 4.489 6.161 0 1.511-.738 2.347-2.403 1.9l2.954 6.886-2.289-1.322-2.767-6.512-1.144-.66v4.914l-2.07-1.195V72.458zM76.853 75.579v3.271l1.42.818c1.317.762 2.1.849 2.1-.413 0-1.263-.782-2.097-2.201-2.915L76.853 75.579zM91.498 94.146 87.299 82.54 87.299 91.722 85.344 90.593 85.344 78.557 88.037 80.11 92.237 91.717 92.237 82.535 94.192 83.664 94.192 95.7zM97.311 85.466 104.088 89.379 104.088 91.305 99.382 88.587 99.382 91.574 103.785 94.116 103.785 96.042 99.382 93.5 99.382 96.771 104.088 99.488 104.088 101.414 97.311 97.501zM109.363 94.35 106.119 92.477 106.119 90.551 114.678 95.491 114.678 97.417 111.434 95.544 111.434 105.654 109.363 104.459z"/></svg>