<?xml version="1.0" encoding="UTF-8" standalone="no"?>
<!DOCTYPE svg PUBLIC "-//W3C//DTD SVG 1.1//EN" "http://www.w3.org/Graphics/SVG/1.1/DTD/svg11.dtd">
<svg width="100%" height="100%" viewBox="0 0 120 36" version="1.1" xmlns="http://www.w3.org/2000/svg" xmlns:xlink="http://www.w3.org/1999/xlink" xml:space="preserve" xmlns:serif="http://www.serif.com/" style="fill-rule:evenodd;clip-rule:evenodd;stroke-linejoin:round;stroke-miterlimit:2;">
    <g id="kilo" transform="matrix(0.117188,0,0,0.046875,0,0)">
        <rect x="0" y="0" width="1024" height="768" style="fill:none;"/>
        <g transform="matrix(8.53333,0,0,21.3333,-430.629,158.272)">
            <g transform="matrix(24,0,0,24,64.1923,17.505)">
                <path d="M0.062,-0.755L0.062,-0L0.2,-0L0.2,-0.239L0.402,-0L0.573,-0L0.334,-0.286L0.537,-0.538L0.389,-0.538L0.2,-0.295L0.2,-0.755L0.062,-0.755Z" style="fill-rule:nonzero;"/>
            </g>
            <g transform="matrix(24,0,0,24,77.4643,17.505)">
                <path d="M0.062,-0.755L0.062,-0.627L0.2,-0.627L0.2,-0.755L0.062,-0.755ZM0.062,-0.538L0.062,-0L0.2,-0L0.2,-0.538L0.062,-0.538Z" style="fill-rule:nonzero;"/>
            </g>
            <g transform="matrix(24,0,0,24,83.7523,17.505)">
                <rect x="0.062" y="-0.755" width="0.138" height="0.755" style="fill-rule:nonzero;"/>
            </g>
            <g transform="matrix(24,0,0,24,90.0403,17.505)">
                <path d="M0.03,-0.268C0.03,-0.079 0.157,0.013 0.297,0.013C0.437,0.013 0.564,-0.079 0.564,-0.268C0.564,-0.457 0.437,-0.55 0.297,-0.55C0.157,-0.55 0.03,-0.457 0.03,-0.268ZM0.17,-0.268C0.17,-0.381 0.217,-0.442 0.297,-0.442C0.377,-0.442 0.424,-0.381 0.424,-0.268C0.424,-0.156 0.377,-0.095 0.297,-0.095C0.217,-0.095 0.17,-0.156 0.17,-0.268Z" style="fill-rule:nonzero;"/>
            </g>
            <g transform="matrix(24,0,0,24,103.552,17.505)">
                <path d="M0.536,-0.725L0.369,-0.725L0.268,-0.197L0.16,-0.725L0.012,-0.725L0.173,-0L0.342,-0L0.452,-0.54L0.562,-0L0.731,-0L0.892,-0.725L0.746,-0.725L0.647,-0.194L0.536,-0.725Z" style="fill:rgb(128,128,128);fill-rule:nonzero;"/>
            </g>
            <g transform="matrix(24,0,0,24,124.528,17.505)">
                <path d="M0.024,-0.148C0.024,-0.048 0.11,0.013 0.203,0.013C0.291,0.013 0.347,-0.015 0.379,-0.082L0.38,-0L0.505,-0C0.499,-0.065 0.498,-0.093 0.498,-0.178C0.498,-0.227 0.5,-0.324 0.5,-0.335C0.5,-0.483 0.426,-0.55 0.269,-0.55C0.205,-0.55 0.122,-0.529 0.075,-0.502L0.075,-0.385C0.114,-0.414 0.172,-0.438 0.242,-0.438C0.307,-0.438 0.357,-0.424 0.366,-0.346C0.137,-0.323 0.024,-0.27 0.024,-0.148ZM0.242,-0.081C0.189,-0.081 0.158,-0.115 0.158,-0.16C0.158,-0.221 0.223,-0.257 0.374,-0.263L0.374,-0.258C0.374,-0.132 0.31,-0.081 0.242,-0.081Z" style="fill:rgb(128,128,128);fill-rule:nonzero;"/>
            </g>
            <g transform="matrix(24,0,0,24,137.728,17.505)">
                <path d="M0.094,-0.538L0.008,-0.538L0.008,-0.443L0.094,-0.443L0.094,-0.159C0.094,-0.042 0.141,0.01 0.269,0.01C0.299,0.01 0.329,0.004 0.351,-0.004L0.351,-0.104C0.329,-0.098 0.316,-0.096 0.296,-0.096C0.251,-0.096 0.232,-0.113 0.232,-0.165L0.232,-0.443L0.354,-0.443L0.354,-0.538L0.232,-0.538L0.232,-0.679L0.094,-0.679L0.094,-0.538Z" style="fill:rgb(128,128,128);fill-rule:nonzero;"/>
            </g>
            <g transform="matrix(24,0,0,24,146.752,17.505)">
                <path d="M0.094,-0.538L0.008,-0.538L0.008,-0.443L0.094,-0.443L0.094,-0.159C0.094,-0.042 0.141,0.01 0.269,0.01C0.299,0.01 0.329,0.004 0.351,-0.004L0.351,-0.104C0.329,-0.098 0.316,-0.096 0.296,-0.096C0.251,-0.096 0.232,-0.113 0.232,-0.165L0.232,-0.443L0.354,-0.443L0.354,-0.538L0.232,-0.538L0.232,-0.679L0.094,-0.679L0.094,-0.538Z" style="fill:rgb(128,128,128);fill-rule:nonzero;"/>
            </g>
        </g>
    </g>
</svg>
