<?xml version="1.0" encoding="UTF-8" standalone="no"?>
<!DOCTYPE svg PUBLIC "-//W3C//DTD SVG 1.1//EN" "http://www.w3.org/Graphics/SVG/1.1/DTD/svg11.dtd">
<svg width="100%" height="100%" viewBox="0 0 120 36" version="1.1" xmlns="http://www.w3.org/2000/svg" xmlns:xlink="http://www.w3.org/1999/xlink" xml:space="preserve" xmlns:serif="http://www.serif.com/" style="fill-rule:evenodd;clip-rule:evenodd;stroke-linejoin:round;stroke-miterlimit:2;">
    <g id="_0energy" serif:id="0energy" transform="matrix(0.117188,0,0,0.046875,0,0)">
        <rect x="0" y="0" width="1024" height="768" style="fill:none;"/>
        <g transform="matrix(8.53333,0,0,21.3333,-467.903,158.272)">
            <g transform="matrix(24,0,0,24,64.1923,17.505)">
                <path d="M0.711,-0.717C0.639,-0.771 0.552,-0.8 0.461,-0.8C0.233,-0.8 0.047,-0.614 0.047,-0.386C0.047,-0.296 0.076,-0.209 0.13,-0.136L0.04,-0.046L0.122,0.036L0.212,-0.054C0.285,-0 0.372,0.029 0.462,0.029C0.69,0.029 0.876,-0.157 0.876,-0.385C0.876,-0.475 0.847,-0.562 0.793,-0.635L0.883,-0.725L0.801,-0.807L0.711,-0.717ZM0.213,-0.219C0.181,-0.265 0.162,-0.328 0.162,-0.387C0.162,-0.551 0.297,-0.685 0.461,-0.685C0.52,-0.685 0.582,-0.666 0.628,-0.634L0.213,-0.219ZM0.71,-0.552C0.743,-0.503 0.761,-0.445 0.761,-0.385C0.761,-0.22 0.627,-0.086 0.463,-0.086C0.404,-0.086 0.341,-0.105 0.295,-0.137L0.71,-0.552Z" style="fill-rule:nonzero;"/>
            </g>
            <g transform="matrix(24,0,0,24,86.3443,17.505)">
                <path d="M0.07,-0L0.538,-0L0.538,-0.116L0.213,-0.116L0.213,-0.313L0.517,-0.313L0.517,-0.429L0.213,-0.429L0.213,-0.609L0.538,-0.609L0.538,-0.725L0.07,-0.725L0.07,-0Z" style="fill:rgb(128,128,128);fill-rule:nonzero;"/>
            </g>
            <g transform="matrix(24,0,0,24,100.144,17.505)">
                <path d="M0.2,-0.538L0.062,-0.538L0.062,-0L0.2,-0L0.2,-0.28C0.2,-0.365 0.22,-0.439 0.311,-0.439C0.389,-0.439 0.404,-0.379 0.404,-0.309L0.404,-0L0.542,-0L0.542,-0.339C0.542,-0.471 0.485,-0.55 0.356,-0.55C0.29,-0.55 0.231,-0.521 0.2,-0.467L0.2,-0.538Z" style="fill:rgb(128,128,128);fill-rule:nonzero;"/>
            </g>
            <g transform="matrix(24,0,0,24,114.52,17.505)">
                <path d="M0.535,-0.235C0.537,-0.425 0.459,-0.552 0.29,-0.552C0.136,-0.552 0.03,-0.431 0.03,-0.271C0.03,-0.116 0.121,0.013 0.308,0.013C0.392,0.013 0.459,-0.007 0.496,-0.026L0.496,-0.142C0.44,-0.112 0.386,-0.098 0.332,-0.098C0.236,-0.098 0.176,-0.149 0.167,-0.235L0.535,-0.235ZM0.285,-0.451C0.344,-0.451 0.397,-0.418 0.401,-0.323L0.163,-0.323C0.168,-0.426 0.233,-0.451 0.285,-0.451Z" style="fill:rgb(128,128,128);fill-rule:nonzero;"/>
            </g>
            <g transform="matrix(24,0,0,24,128.032,17.505)">
                <path d="M0.369,-0.54C0.36,-0.541 0.349,-0.542 0.34,-0.542C0.278,-0.542 0.228,-0.513 0.198,-0.444L0.198,-0.538L0.062,-0.538L0.062,-0L0.2,-0L0.2,-0.282C0.2,-0.384 0.247,-0.415 0.317,-0.415C0.335,-0.415 0.35,-0.413 0.369,-0.41L0.369,-0.54Z" style="fill:rgb(128,128,128);fill-rule:nonzero;"/>
            </g>
            <g transform="matrix(24,0,0,24,136.912,17.505)">
                <path d="M0.554,-0.065L0.554,-0.538L0.417,-0.538L0.417,-0.468C0.393,-0.515 0.331,-0.55 0.263,-0.55C0.124,-0.55 0.032,-0.436 0.032,-0.28C0.032,-0.12 0.126,-0.009 0.263,-0.009C0.319,-0.009 0.382,-0.031 0.417,-0.09L0.417,-0.046C0.417,0.056 0.354,0.095 0.264,0.095C0.207,0.095 0.139,0.079 0.096,0.054L0.096,0.173C0.142,0.194 0.214,0.206 0.277,0.206C0.417,0.206 0.554,0.143 0.554,-0.065ZM0.422,-0.28C0.422,-0.182 0.375,-0.114 0.298,-0.114C0.223,-0.114 0.177,-0.187 0.177,-0.279C0.177,-0.372 0.223,-0.445 0.298,-0.445C0.375,-0.445 0.422,-0.377 0.422,-0.28Z" style="fill:rgb(128,128,128);fill-rule:nonzero;"/>
            </g>
            <g transform="matrix(24,0,0,24,151.672,17.505)">
                <path d="M0.257,0.195L0.535,-0.538L0.395,-0.538L0.27,-0.15L0.148,-0.538L-0.003,-0.538L0.203,-0.002L0.128,0.195L0.257,0.195Z" style="fill:rgb(128,128,128);fill-rule:nonzero;"/>
            </g>
        </g>
    </g>
</svg>
