<?xml version="1.0" encoding="UTF-8" standalone="no"?>
<!DOCTYPE svg PUBLIC "-//W3C//DTD SVG 1.1//EN" "http://www.w3.org/Graphics/SVG/1.1/DTD/svg11.dtd">
<svg width="100%" height="100%" viewBox="0 0 120 36" version="1.1" xmlns="http://www.w3.org/2000/svg" xmlns:xlink="http://www.w3.org/1999/xlink" xml:space="preserve" xmlns:serif="http://www.serif.com/" style="fill-rule:evenodd;clip-rule:evenodd;stroke-linejoin:round;stroke-miterlimit:2;">
    <g transform="matrix(1,0,0,1,-281.571,0)">
        <g id="Giga" transform="matrix(1,0,0,1,-158.429,0)">
            <rect x="440" y="0" width="120" height="36" style="fill:none;"/>
            <g transform="matrix(1,0,0,1,383.98,7.01098)">
                <g transform="matrix(24,0,0,24,64.1923,17.505)">
                    <path d="M0.678,-0.04L0.678,-0.405L0.372,-0.405L0.372,-0.289L0.546,-0.289L0.546,-0.125C0.509,-0.116 0.466,-0.108 0.42,-0.108C0.304,-0.108 0.183,-0.167 0.183,-0.362C0.183,-0.544 0.305,-0.615 0.422,-0.615C0.511,-0.615 0.585,-0.597 0.641,-0.57L0.641,-0.701C0.587,-0.729 0.497,-0.738 0.431,-0.738C0.23,-0.738 0.035,-0.621 0.035,-0.362C0.035,-0.12 0.195,0.013 0.412,0.013C0.494,0.013 0.585,-0.005 0.678,-0.04Z" style="fill-rule:nonzero;"/>
                </g>
                <g transform="matrix(24,0,0,24,81.5443,17.505)">
                    <path d="M0.062,-0.755L0.062,-0.627L0.2,-0.627L0.2,-0.755L0.062,-0.755ZM0.062,-0.538L0.062,-0L0.2,-0L0.2,-0.538L0.062,-0.538Z" style="fill-rule:nonzero;"/>
                </g>
                <g transform="matrix(24,0,0,24,87.8323,17.505)">
                    <path d="M0.554,-0.065L0.554,-0.538L0.417,-0.538L0.417,-0.468C0.393,-0.515 0.331,-0.55 0.263,-0.55C0.124,-0.55 0.032,-0.436 0.032,-0.28C0.032,-0.12 0.126,-0.009 0.263,-0.009C0.319,-0.009 0.382,-0.031 0.417,-0.09L0.417,-0.046C0.417,0.056 0.354,0.095 0.264,0.095C0.207,0.095 0.139,0.079 0.096,0.054L0.096,0.173C0.142,0.194 0.214,0.206 0.277,0.206C0.417,0.206 0.554,0.143 0.554,-0.065ZM0.422,-0.28C0.422,-0.182 0.375,-0.114 0.298,-0.114C0.223,-0.114 0.177,-0.187 0.177,-0.279C0.177,-0.372 0.223,-0.445 0.298,-0.445C0.375,-0.445 0.422,-0.377 0.422,-0.28Z" style="fill-rule:nonzero;"/>
                </g>
                <g transform="matrix(24,0,0,24,102.592,17.505)">
                    <path d="M0.024,-0.148C0.024,-0.048 0.11,0.013 0.203,0.013C0.291,0.013 0.347,-0.015 0.379,-0.082L0.38,-0L0.505,-0C0.499,-0.065 0.498,-0.093 0.498,-0.178C0.498,-0.227 0.5,-0.324 0.5,-0.335C0.5,-0.483 0.426,-0.55 0.269,-0.55C0.205,-0.55 0.122,-0.529 0.075,-0.502L0.075,-0.385C0.114,-0.414 0.172,-0.438 0.242,-0.438C0.307,-0.438 0.357,-0.424 0.366,-0.346C0.137,-0.323 0.024,-0.27 0.024,-0.148ZM0.242,-0.081C0.189,-0.081 0.158,-0.115 0.158,-0.16C0.158,-0.221 0.223,-0.257 0.374,-0.263L0.374,-0.258C0.374,-0.132 0.31,-0.081 0.242,-0.081Z" style="fill-rule:nonzero;"/>
                </g>
                <g transform="matrix(24,0,0,24,115.312,17.505)">
                    <path d="M0.536,-0.725L0.369,-0.725L0.268,-0.197L0.16,-0.725L0.012,-0.725L0.173,-0L0.342,-0L0.452,-0.54L0.562,-0L0.731,-0L0.892,-0.725L0.746,-0.725L0.647,-0.194L0.536,-0.725Z" style="fill:rgb(128,128,128);fill-rule:nonzero;"/>
                </g>
                <g transform="matrix(24,0,0,24,136.288,17.505)">
                    <path d="M0.024,-0.148C0.024,-0.048 0.11,0.013 0.203,0.013C0.291,0.013 0.347,-0.015 0.379,-0.082L0.38,-0L0.505,-0C0.499,-0.065 0.498,-0.093 0.498,-0.178C0.498,-0.227 0.5,-0.324 0.5,-0.335C0.5,-0.483 0.426,-0.55 0.269,-0.55C0.205,-0.55 0.122,-0.529 0.075,-0.502L0.075,-0.385C0.114,-0.414 0.172,-0.438 0.242,-0.438C0.307,-0.438 0.357,-0.424 0.366,-0.346C0.137,-0.323 0.024,-0.27 0.024,-0.148ZM0.242,-0.081C0.189,-0.081 0.158,-0.115 0.158,-0.16C0.158,-0.221 0.223,-0.257 0.374,-0.263L0.374,-0.258C0.374,-0.132 0.31,-0.081 0.242,-0.081Z" style="fill:rgb(128,128,128);fill-rule:nonzero;"/>
                </g>
                <g transform="matrix(24,0,0,24,149.488,17.505)">
                    <path d="M0.094,-0.538L0.008,-0.538L0.008,-0.443L0.094,-0.443L0.094,-0.159C0.094,-0.042 0.141,0.01 0.269,0.01C0.299,0.01 0.329,0.004 0.351,-0.004L0.351,-0.104C0.329,-0.098 0.316,-0.096 0.296,-0.096C0.251,-0.096 0.232,-0.113 0.232,-0.165L0.232,-0.443L0.354,-0.443L0.354,-0.538L0.232,-0.538L0.232,-0.679L0.094,-0.679L0.094,-0.538Z" style="fill:rgb(128,128,128);fill-rule:nonzero;"/>
                </g>
                <g transform="matrix(24,0,0,24,158.512,17.505)">
                    <path d="M0.094,-0.538L0.008,-0.538L0.008,-0.443L0.094,-0.443L0.094,-0.159C0.094,-0.042 0.141,0.01 0.269,0.01C0.299,0.01 0.329,0.004 0.351,-0.004L0.351,-0.104C0.329,-0.098 0.316,-0.096 0.296,-0.096C0.251,-0.096 0.232,-0.113 0.232,-0.165L0.232,-0.443L0.354,-0.443L0.354,-0.538L0.232,-0.538L0.232,-0.679L0.094,-0.679L0.094,-0.538Z" style="fill:rgb(128,128,128);fill-rule:nonzero;"/>
                </g>
            </g>
        </g>
    </g>
</svg>
