<?xml version="1.0" encoding="UTF-8" standalone="no"?>
<!DOCTYPE svg PUBLIC "-//W3C//DTD SVG 1.1//EN" "http://www.w3.org/Graphics/SVG/1.1/DTD/svg11.dtd">
<svg width="100%" height="100%" viewBox="0 0 120 36" version="1.1" xmlns="http://www.w3.org/2000/svg" xmlns:xlink="http://www.w3.org/1999/xlink" xml:space="preserve" xmlns:serif="http://www.serif.com/" style="fill-rule:evenodd;clip-rule:evenodd;stroke-linejoin:round;stroke-miterlimit:2;">
    <g transform="matrix(1,0,0,1,-141.454,0)">
        <g id="Mega" transform="matrix(1,0,0,1,-78.5463,0)">
            <rect x="220" y="0" width="120" height="36" style="fill:none;"/>
            <g transform="matrix(1,0,0,1,158.328,6.69898)">
                <g transform="matrix(24,0,0,24,64.1923,17.505)">
                    <path d="M0.504,-0.17L0.662,-0.545L0.662,-0L0.795,-0L0.795,-0.725L0.605,-0.725L0.434,-0.3L0.258,-0.725L0.07,-0.725L0.07,-0L0.203,-0L0.203,-0.545L0.362,-0.17L0.504,-0.17Z" style="fill-rule:nonzero;"/>
                </g>
                <g transform="matrix(24,0,0,24,84.7843,17.505)">
                    <path d="M0.535,-0.235C0.537,-0.425 0.459,-0.552 0.29,-0.552C0.136,-0.552 0.03,-0.431 0.03,-0.271C0.03,-0.116 0.121,0.013 0.308,0.013C0.392,0.013 0.459,-0.007 0.496,-0.026L0.496,-0.142C0.44,-0.112 0.386,-0.098 0.332,-0.098C0.236,-0.098 0.176,-0.149 0.167,-0.235L0.535,-0.235ZM0.285,-0.451C0.344,-0.451 0.397,-0.418 0.401,-0.323L0.163,-0.323C0.168,-0.426 0.233,-0.451 0.285,-0.451Z" style="fill-rule:nonzero;"/>
                </g>
                <g transform="matrix(24,0,0,24,98.2963,17.505)">
                    <path d="M0.554,-0.065L0.554,-0.538L0.417,-0.538L0.417,-0.468C0.393,-0.515 0.331,-0.55 0.263,-0.55C0.124,-0.55 0.032,-0.436 0.032,-0.28C0.032,-0.12 0.126,-0.009 0.263,-0.009C0.319,-0.009 0.382,-0.031 0.417,-0.09L0.417,-0.046C0.417,0.056 0.354,0.095 0.264,0.095C0.207,0.095 0.139,0.079 0.096,0.054L0.096,0.173C0.142,0.194 0.214,0.206 0.277,0.206C0.417,0.206 0.554,0.143 0.554,-0.065ZM0.422,-0.28C0.422,-0.182 0.375,-0.114 0.298,-0.114C0.223,-0.114 0.177,-0.187 0.177,-0.279C0.177,-0.372 0.223,-0.445 0.298,-0.445C0.375,-0.445 0.422,-0.377 0.422,-0.28Z" style="fill-rule:nonzero;"/>
                </g>
                <g transform="matrix(24,0,0,24,113.056,17.505)">
                    <path d="M0.024,-0.148C0.024,-0.048 0.11,0.013 0.203,0.013C0.291,0.013 0.347,-0.015 0.379,-0.082L0.38,-0L0.505,-0C0.499,-0.065 0.498,-0.093 0.498,-0.178C0.498,-0.227 0.5,-0.324 0.5,-0.335C0.5,-0.483 0.426,-0.55 0.269,-0.55C0.205,-0.55 0.122,-0.529 0.075,-0.502L0.075,-0.385C0.114,-0.414 0.172,-0.438 0.242,-0.438C0.307,-0.438 0.357,-0.424 0.366,-0.346C0.137,-0.323 0.024,-0.27 0.024,-0.148ZM0.242,-0.081C0.189,-0.081 0.158,-0.115 0.158,-0.16C0.158,-0.221 0.223,-0.257 0.374,-0.263L0.374,-0.258C0.374,-0.132 0.31,-0.081 0.242,-0.081Z" style="fill-rule:nonzero;"/>
                </g>
                <g transform="matrix(24,0,0,24,125.776,17.505)">
                    <path d="M0.536,-0.725L0.369,-0.725L0.268,-0.197L0.16,-0.725L0.012,-0.725L0.173,-0L0.342,-0L0.452,-0.54L0.562,-0L0.731,-0L0.892,-0.725L0.746,-0.725L0.647,-0.194L0.536,-0.725Z" style="fill:rgb(128,128,128);fill-rule:nonzero;"/>
                </g>
                <g transform="matrix(24,0,0,24,146.752,17.505)">
                    <path d="M0.024,-0.148C0.024,-0.048 0.11,0.013 0.203,0.013C0.291,0.013 0.347,-0.015 0.379,-0.082L0.38,-0L0.505,-0C0.499,-0.065 0.498,-0.093 0.498,-0.178C0.498,-0.227 0.5,-0.324 0.5,-0.335C0.5,-0.483 0.426,-0.55 0.269,-0.55C0.205,-0.55 0.122,-0.529 0.075,-0.502L0.075,-0.385C0.114,-0.414 0.172,-0.438 0.242,-0.438C0.307,-0.438 0.357,-0.424 0.366,-0.346C0.137,-0.323 0.024,-0.27 0.024,-0.148ZM0.242,-0.081C0.189,-0.081 0.158,-0.115 0.158,-0.16C0.158,-0.221 0.223,-0.257 0.374,-0.263L0.374,-0.258C0.374,-0.132 0.31,-0.081 0.242,-0.081Z" style="fill:rgb(128,128,128);fill-rule:nonzero;"/>
                </g>
                <g transform="matrix(24,0,0,24,159.952,17.505)">
                    <path d="M0.094,-0.538L0.008,-0.538L0.008,-0.443L0.094,-0.443L0.094,-0.159C0.094,-0.042 0.141,0.01 0.269,0.01C0.299,0.01 0.329,0.004 0.351,-0.004L0.351,-0.104C0.329,-0.098 0.316,-0.096 0.296,-0.096C0.251,-0.096 0.232,-0.113 0.232,-0.165L0.232,-0.443L0.354,-0.443L0.354,-0.538L0.232,-0.538L0.232,-0.679L0.094,-0.679L0.094,-0.538Z" style="fill:rgb(128,128,128);fill-rule:nonzero;"/>
                </g>
                <g transform="matrix(24,0,0,24,168.976,17.505)">
                    <path d="M0.094,-0.538L0.008,-0.538L0.008,-0.443L0.094,-0.443L0.094,-0.159C0.094,-0.042 0.141,0.01 0.269,0.01C0.299,0.01 0.329,0.004 0.351,-0.004L0.351,-0.104C0.329,-0.098 0.316,-0.096 0.296,-0.096C0.251,-0.096 0.232,-0.113 0.232,-0.165L0.232,-0.443L0.354,-0.443L0.354,-0.538L0.232,-0.538L0.232,-0.679L0.094,-0.679L0.094,-0.538Z" style="fill:rgb(128,128,128);fill-rule:nonzero;"/>
                </g>
            </g>
        </g>
    </g>
</svg>
