<svg width="432" height="38" xmlns="http://www.w3.org/2000/svg"><path d="m 23.957,1 h 3.686 l 5.582,36.118 h -3.58 c -1.686,0 -2.828,-0.386 -3.423,-1.158 -0.597,-0.772 -1,-1.966 -1.21,-3.58 L 24.379,28.273 H 10.9 L 5.106,37.12 H 1 Z M 13.005,24.903 h 10.952 l -2,-13.796 z M 43.965,3.947 h 7.37 l -6.844,33.17 h -7.37 l 6.85,-33.17 z m 27.17,0 c 3.437,0 6.106,0.895 8.002,2.686 1.896,1.79 2.668,4.23 2.317,7.318 -0.28,2.67 -1.422,4.76 -3.422,6.27 -2,1.51 -4.125,2.44 -6.37,2.79 l 8.318,14.11 h -3.896 c -2.038,0 -3.406,-0.24 -4.107,-0.73 -0.702,-0.49 -1.474,-1.47 -2.317,-2.94 L 63.763,21.96 c 3.72,-0.42 6.3,-1.456 7.74,-3.106 1.438,-1.65 2.228,-3.352 2.37,-5.107 0.21,-2.035 -0.158,-3.668 -1.106,-4.896 -0.948,-1.228 -2.475,-1.84 -4.58,-1.84 H 65.87 l -6.11,30.12 H 52.39 L 58.603,6.801 57.13,3.961 h 14 z m 55.81,0 h 3.896 L 124,37.117 c -1.755,0 -3.02,-0.314 -3.79,-0.946 -0.774,-0.63 -1.476,-1.54 -2.107,-2.73 l -11.48,-20.64 -5.054,24.33 h -3.79 l 6,-29.27 -2,-3.89 h 4.63 c 1.61,0 2.74,0.25 3.37,0.74 0.63,0.49 1.33,1.44 2.1,2.84 l 10.32,19.37 4.74,-22.95 z m 10.742,0 h 21.482 c -0.22,1.123 -0.6,1.948 -1.16,2.475 -0.57,0.526 -1.55,0.79 -2.95,0.79 h -10.74 l -2.22,11.162 h 11.58 l -0.63,3.265 h -11.58 l -2.53,12.21 h 11.27 c 1.33,0 2.28,0.26 2.84,0.79 0.56,0.52 0.98,1.35 1.26,2.47 h -23.48 l 6.84,-33.18 z m 63.394,0 h 3.9 l -18.32,33.17 h -3.47 l -2.53,-19.797 -10.53,19.8 h -3.58 l -4.63,-33.17 h 5.27 c 0.49,0 0.91,0.108 1.26,0.318 0.35,0.21 0.56,0.563 0.63,1.055 l 2.95,21.8 8,-15.27 -1.05,-7.898 h 5.06 c 0.49,0 0.91,0.105 1.27,0.315 0.35,0.21 0.56,0.597 0.63,1.16 l 2.53,21.692 12.64,-23.17 z m 46.55,0 c -0.14,0.912 -0.42,1.843 -0.84,2.79 -0.42,0.948 -1.3,2.194 -2.63,3.738 l -20.85,23.38 h 14.32 c 1.33,0 2.28,0.263 2.85,0.79 0.56,0.525 0.95,1.35 1.16,2.474 h -28.12 c 0.07,-1.41 0.39,-2.53 0.95,-3.37 0.56,-0.85 1.3,-1.79 2.21,-2.85 l 21.69,-23.69 h -13.69 c -1.33,0 -2.28,-0.27 -2.84,-0.79 -0.56,-0.53 -0.98,-1.35 -1.26,-2.48 h 27.07 z m 23.17,3.263 h -10.74 l -2.31,11.167 h 11.69 l -0.63,3.265 h -11.59 l -2.53,12.214 h 11.27 c 1.34,0 2.28,0.264 2.85,0.79 0.57,0.526 0.95,1.352 1.16,2.475 H 246.6 l 6.846,-33.17 h 21.48 c -0.21,1.13 -0.614,1.95 -1.21,2.48 -0.596,0.53 -1.56,0.79 -2.896,0.79 z m 21.59,-3.26 h 3.69 l 6.85,33.17 h -3.47 c -1.76,0 -2.91,-0.384 -3.48,-1.156 -0.57,-0.772 -1.01,-1.964 -1.36,-3.58 l -0.84,-4.105 h -12.32 l -5.47,8.84 h -4.11 l 20.53,-33.17 z m 0.64,20.957 -2.331,-11.587 -7.16,11.583 h 9.476 z m 30.12,8.95 c 1.34,0 2.3,0.264 2.9,0.79 0.6,0.526 1,1.352 1.21,2.475 h -20.43 l 6.85,-33.172 h 7.37 l -6.1,29.906 h 8.21 z M 349.581,3.95 h 3.69 l 6.95,33.17 h -3.58 c -1.68,0 -2.82,-0.384 -3.42,-1.156 -0.6,-0.772 -1.07,-1.964 -1.42,-3.58 l -0.84,-4.105 h -12.32 l -5.37,8.84 h -4.21 l 20.54,-33.17 z m 0.74,20.957 -2.43,-11.587 -7.16,11.583 h 9.59 z m 38.33,2 4.74,-22.956 h 3.9 l -6.84,33.17 c -1.75,0 -3.03,-0.31 -3.84,-0.94 -0.8,-0.63 -1.52,-1.54 -2.15,-2.73 L 373.081,12.811 368,37.13 h -3.79 l 6,-29.277 -2,-3.89 h 4.634 c 1.544,0 2.65,0.247 3.316,0.74 0.665,0.49 1.35,1.436 2.052,2.84 l 10.428,19.37 z M 415.5,3.95 c 4.843,0 8.74,1.472 11.687,4.42 2.95,2.95 4.04,7.024 3.267,12.218 -0.77,5.194 -3.21,9.25 -7.32,12.162 -4.104,2.912 -8.65,4.37 -13.635,4.37 h -11.17 l 6.21,-30.33 -1.48,-2.843 h 12.42 z m 7.37,16.635 c 0.562,-4.212 0.07,-7.512 -1.475,-9.898 -1.545,-2.387 -4.037,-3.58 -7.48,-3.58 h -2.11 l -5.58,26.958 h 2.106 c 3.44,0 6.57,-1.176 9.38,-3.527 2.81,-2.354 4.53,-5.67 5.16,-9.954 z"/></svg>
