<svg width="186" height="58" fill="none" xmlns="http://www.w3.org/2000/svg"><g clip-path="url(#a)" transform="translate(-97.834 -96)" fill="#000"><path d="m 262.02,135.876 v -13.604 c -0.713,-0.105 -1.364,-0.468 -1.835,-1.02 -0.471,-0.553 -0.731,-1.259 -0.731,-1.989 0,-0.152 0,-0.261 0,-0.261 0.01,-0.121 -0.019,-0.241 -0.085,-0.343 -0.149,-0.164 -0.333,-0.292 -0.536,-0.375 l -9.874,-3.842 -0.403,-0.158 c -0.287,-0.136 -0.599,-0.21 -0.917,-0.217 -0.248,0.009 -0.484,0.105 -0.671,0.272 -0.464,0.535 -1.097,0.888 -1.792,0.998 -0.694,0.11 -1.405,-0.032 -2.007,-0.399 -0.602,-0.367 -1.059,-0.937 -1.288,-1.61 -0.231,-0.674 -0.221,-1.407 0.029,-2.074 0.248,-0.666 0.72,-1.223 1.332,-1.573 0.613,-0.349 1.327,-0.47 2.017,-0.341 0.692,0.13 1.316,0.501 1.765,1.05 0.448,0.548 0.693,1.239 0.69,1.952 0.029,0.255 0.142,0.493 0.322,0.675 0.244,0.212 0.53,0.369 0.838,0.462 l 0.39,0.152 9.757,3.809 0.117,0.049 c 0.21,0.083 0.437,0.117 0.66,0.098 0.025,0.006 0.051,0.006 0.076,0 -0.07,-0.232 -0.2,-0.44 -0.377,-0.604 l -7.64,-7.493 -0.306,-0.304 c -0.216,-0.231 -0.475,-0.416 -0.763,-0.544 -0.234,-0.079 -0.488,-0.079 -0.723,0 -0.632,0.305 -1.35,0.376 -2.028,0.201 -0.678,-0.176 -1.273,-0.588 -1.683,-1.163 -0.41,-0.576 -0.608,-1.279 -0.558,-1.987 0.048,-0.707 0.341,-1.375 0.827,-1.887 0.485,-0.512 1.131,-0.835 1.827,-0.913 0.696,-0.077 1.395,0.095 1.979,0.487 0.583,0.392 1.012,0.98 1.213,1.66 0.2,0.68 0.158,1.41 -0.118,2.062 -0.074,0.245 -0.062,0.509 0.038,0.745 0.143,0.292 0.345,0.551 0.59,0.762 l 0.3,0.299 7.513,7.357 0.091,0.093 c 0.159,0.16 0.354,0.28 0.569,0.348 0.026,0.008 0.054,0.008 0.08,0 0.021,-0.241 -0.019,-0.482 -0.118,-0.702 l -4.126,-9.904 -0.167,-0.397 c -0.103,-0.306 -0.268,-0.587 -0.483,-0.827 -0.182,-0.17 -0.413,-0.275 -0.66,-0.299 -0.7,0.032 -1.39,-0.186 -1.949,-0.616 -0.558,-0.431 -0.95,-1.046 -1.106,-1.74 -0.156,-0.693 -0.068,-1.421 0.25,-2.055 0.319,-0.6335 0.846,-1.1341 1.491,-1.4139 0.645,-0.2798 1.367,-0.321 2.038,-0.1165 0.672,0.2044 1.252,0.6417 1.638,1.2354 0.387,0.594 0.555,1.306 0.477,2.013 -0.079,0.707 -0.399,1.363 -0.907,1.855 -0.159,0.199 -0.248,0.446 -0.252,0.702 0.02,0.326 0.105,0.645 0.252,0.936 l 0.167,0.386 4.078,9.757 0.054,0.119 c 0.087,0.209 0.218,0.395 0.386,0.544 l 0.069,0.038 c 0.114,-0.212 0.17,-0.45 0.167,-0.691 v -11.154 c 0.022,-0.323 -0.022,-0.648 -0.129,-0.953 -0.104,-0.228 -0.274,-0.418 -0.488,-0.544 -0.657,-0.25 -1.206,-0.725 -1.553,-1.344 -0.346,-0.619 -0.467,-1.341 -0.342,-2.0406 0.125,-0.6999 0.488,-1.333 1.027,-1.7888 0.538,-0.4559 1.218,-0.7056 1.919,-0.7056 0.701,0 1.38,0.2497 1.919,0.7056 0.538,0.4558 0.903,1.0889 1.027,1.7888 0.126,0.6996 0.004,1.4216 -0.341,2.0406 -0.346,0.619 -0.896,1.094 -1.553,1.344 -0.225,0.117 -0.403,0.31 -0.504,0.544 -0.108,0.309 -0.15,0.637 -0.128,0.963 v 11.15 c -0.006,0.228 0.044,0.454 0.145,0.658 0.011,0.01 0.026,0.015 0.042,0.015 0.016,0 0.031,-0.005 0.043,-0.015 0.169,-0.148 0.301,-0.334 0.387,-0.544 l 0.052,-0.12 4.078,-9.756 0.168,-0.386 c 0.146,-0.291 0.231,-0.61 0.251,-0.936 -0.004,-0.256 -0.093,-0.503 -0.251,-0.702 -0.507,-0.491 -0.826,-1.146 -0.905,-1.852 -0.077,-0.705 0.091,-1.416 0.477,-2.0087 0.386,-0.5923 0.965,-1.0285 1.636,-1.2324 0.669,-0.204 1.39,-0.1628 2.033,0.1165 0.644,0.2792 1.171,0.7787 1.488,1.4116 0.318,0.632 0.406,1.358 0.25,2.05 -0.156,0.692 -0.546,1.307 -1.103,1.737 -0.558,0.43 -1.245,0.648 -1.945,0.616 -0.246,0.024 -0.478,0.129 -0.66,0.299 -0.214,0.24 -0.378,0.521 -0.483,0.827 l -0.171,0.397 -4.127,9.877 c -0.092,0.208 -0.135,0.435 -0.124,0.663 0.012,0.011 0.027,0.017 0.044,0.017 0.015,0 0.03,-0.006 0.043,-0.017 0.214,-0.067 0.41,-0.186 0.569,-0.348 l 0.091,-0.092 7.512,-7.357 0.3,-0.299 c 0.249,-0.209 0.452,-0.469 0.596,-0.762 0.095,-0.238 0.106,-0.501 0.033,-0.746 -0.276,-0.652 -0.316,-1.382 -0.116,-2.062 0.201,-0.68 0.631,-1.267 1.215,-1.659 0.584,-0.391 1.285,-0.562 1.981,-0.483 0.696,0.079 1.342,0.403 1.826,0.916 0.484,0.512 0.775,1.181 0.823,1.889 0.047,0.709 -0.152,1.411 -0.562,1.986 -0.411,0.575 -1.008,0.985 -1.687,1.159 -0.678,0.174 -1.396,0.101 -2.027,-0.206 -0.233,-0.079 -0.486,-0.079 -0.719,0 -0.286,0.13 -0.545,0.314 -0.762,0.544 l -0.305,0.305 -7.604,7.504 c -0.163,0.15 -0.29,0.336 -0.37,0.544 0,0.054 0.042,0.065 0.069,0.065 0.225,0.02 0.451,-0.014 0.661,-0.098 l 0.117,-0.049 9.756,-3.809 0.392,-0.152 c 0.308,-0.093 0.593,-0.25 0.836,-0.463 0.18,-0.181 0.294,-0.419 0.322,-0.674 -10e-4,-0.71 0.243,-1.398 0.69,-1.944 0.448,-0.545 1.07,-0.915 1.758,-1.043 0.689,-0.129 1.4,-0.008 2.009,0.34 0.61,0.349 1.079,0.903 1.328,1.567 0.247,0.664 0.258,1.395 0.029,2.065 -0.229,0.671 -0.684,1.239 -1.283,1.605 -0.599,0.366 -1.306,0.507 -1.998,0.399 -0.691,-0.109 -1.324,-0.46 -1.786,-0.992 -0.186,-0.167 -0.424,-0.263 -0.671,-0.272 -0.318,0.007 -0.63,0.081 -0.918,0.217 l -0.402,0.158 -9.874,3.842 c -0.203,0.084 -0.387,0.212 -0.537,0.375 -0.069,0.124 -0.098,0.267 -0.08,0.408 v 0.196 c 0,0.73 -0.26,1.436 -0.73,1.989 -0.471,0.552 -1.123,0.914 -1.835,1.02 v 13.604 z"/><path d="M263.666 126.419c1.981-4.152 6.015-7.145 10.351-8.266 2.683-.544 6.3-.718 8.146 1.752-6.439 1.012-12.67 3.641-18.497 6.53m-2.618.609c-4.433 1.758-10.019 1.029-14.279-.859-2.045-1.029-5.367-2.982-4.293-5.785 6.439 1.159 12.685 3.81 18.578 6.644m.182-.609c-5.828-2.873-12.058-5.501-18.503-6.53 1.846-2.47 5.48-2.285 8.151-1.752 4.337 1.121 8.366 4.114 10.352 8.266m2.619.609c5.902-2.851 12.121-5.485 18.576-6.644 1.041 2.803-2.253 4.756-4.293 5.784-4.26 1.889-9.846 2.618-14.279.86M268.996 135.675c.564-.48 1.043-1.054 1.416-1.698.372.645.848 1.221 1.411 1.703 1.853 1.527 4.16 2.373 6.547 2.4 1.682-.02 3.334-.435 4.829-1.214v2.34c-1.531.645-3.171.987-4.829 1.007-2.91-.034-5.721-1.079-7.963-2.96-2.229 1.914-5.056 2.965-7.976 2.965-2.921 0-5.749-1.051-7.977-2.965-1.737 1.497-3.851 2.474-6.105 2.82-2.255.346-4.559.048-6.656-.861v-2.335c1.479.767 3.111 1.178 4.771 1.203 2.397-.03 4.714-.878 6.579-2.405.565-.48 1.044-1.054 1.416-1.698.37.645.848 1.221 1.411 1.703 1.845 1.552 4.166 2.402 6.564 2.402 2.396 0 4.717-.85 6.562-2.402m14.177 10.921c-1.537.623-3.175.951-4.829.969-2.883-.04-5.672-1.035-7.943-2.835-2.264 1.835-5.076 2.835-7.976 2.835-2.899 0-5.712-1-7.977-2.835-1.767 1.44-3.883 2.373-6.128 2.702-2.244.329-4.534.042-6.632-.831v-2.28c1.503.677 3.127 1.031 4.771 1.04 2.939-.035 5.771-1.129 7.989-3.086 2.196 1.988 5.034 3.086 7.977 3.086 2.942 0 5.782-1.098 7.976-3.086 2.206 1.96 5.031 3.054 7.963 3.086 1.664-.008 3.308-.363 4.83-1.045zm0-3.744c-2.097.88-4.389 1.171-6.635.844-2.246-.328-4.364-1.262-6.131-2.705-2.264 1.836-5.078 2.835-7.976 2.835-2.899 0-5.713-.999-7.977-2.835-1.769 1.44-3.884 2.374-6.129 2.703-2.243.329-4.533.042-6.632-.831v-2.28c1.502.677 3.127 1.031 4.771 1.04 2.941-.035 5.774-1.131 7.99-3.091 2.194 1.99 5.034 3.091 7.977 3.091 2.943 0 5.783-1.101 7.976-3.091 2.206 1.961 5.031 3.057 7.963 3.091 1.664-.008 3.308-.364 4.829-1.045zM117.095 102.7l-2.956 8.445h5.902l-2.903-8.445zm-11.091 17.347 8.585-23.023h5.12l8.483 23.023c0 0-4.867.68-5.612-1.301-.36-.952-1.283-3.809-1.283-3.809h-8.452l-1.776 5.126zm49.77-10.801c-.29-1.867-1.465-2.863-3.338-2.863-2.887 0-3.837 2.961-3.837 5.409 0 2.449.918 5.246 3.756 5.246 2.093 0 3.295-1.355 3.585-3.385h4.346c-.568 4.408-3.584 6.824-7.898 6.824-4.953 0-8.286-3.543-8.286-8.527 0-5.18 3.048-9.011 8.377-9.011 3.874 0 7.426 2.057 7.716 6.307zm5.441 10.779V97.046h4.507v12.319l5.677-5.985h5.334l-6.187 6.121 6.885 10.524h-2.023c-3.595 0-4.674-2.035-4.674-2.035l-3.268-5.398-1.744 1.703v5.73zm32.995-6.432v-1.708c-.762.674-2.35.707-3.756.963-1.406.256-2.683.773-2.683 2.448 0 1.676 1.304 2.123 2.764 2.123 3.525 0 3.648-2.835 3.648-3.809zm-5.902-5.087h-4.502c.252-4.283 4.029-5.567 7.71-5.567 3.274 0 7.207.74 7.207 4.729v8.657c0 1.513.161 3.031.569 3.7 0 0-4.889.441-4.889-1.632-1.427 1.518-3.52 2.062-5.521 2.062-3.107 0-5.581-1.578-5.581-4.984 0-3.766 2.791-4.669 5.581-5.055 2.79-.387 5.334-.322 5.334-2.177 0-1.964-1.336-2.253-2.919-2.253-1.718 0-2.823.708-2.989 2.509zm43.207 11.541c-1.326-.104-2.791-.446-2.93-1.458v-.294c-1.148 1.534-2.876 2.176-4.83 2.176-4.952 0-7.362-4.315-7.362-8.918 0-4.468 2.447-8.619 7.271-8.619.95-.036 1.893.173 2.742.606.848.433 1.576 1.076 2.114 1.869l.06-8.368h4.507v19.307c0 1.512.156 3.025.574 3.7-.714.051-1.432.051-2.146 0zm-2.764-8.364c0-2.72-.955-5.278-3.874-5.278-2.919 0-3.96 2.569-3.96 5.311 0 2.606 1.17 5.338 3.96 5.338 2.983 0 3.874-2.639 3.874-5.371zm-48.106 8.342c-.227-.017-.452-.046-.676-.087l-.279-.06-.322-.076-.386-.131c-.634-.283-.977-.604-1.047-1.088V97.046h4.502v19.301c.032 1.632.161 3.025.569 3.7-.789.063-1.582.063-2.372 0zM143.169 103.38v12.967c.043 1.365.188 3.025.601 3.7-.976.077-1.958.035-2.925-.125-1.073-.196-1.969-.621-1.969-1.486v-.724c-.561.851-1.32 1.549-2.21 2.031-.89.482-1.884.734-2.893.734-4.792 0-5.999-2.721-5.999-6.856V103.38h4.507v9.408c0 2.721.794 4.087 2.887 4.087 2.442 0 3.493-1.383 3.493-4.762v-8.733zm57.035 16.645V103.38h4.293v2.318c.559-.854 1.319-1.554 2.21-2.037.892-.483 1.887-.735 2.898-.733 4.797 0 6 2.721 6 6.856v8.075c0 1.513.171 1.513.579 2.177-.789.064-1.582.064-2.372 0-1.33-.131-2.683-.544-2.683-1.589v-7.819c0-2.721-.799-4.087-2.892-4.087-2.442 0-3.488 1.388-3.488 4.767v8.706zM117.577 123.834v4.293h-6.879v17.565c.008.452.069.902.183 1.339 0 0-5.216.31-5.216-2.013v-16.869h-6.831v-4.315zm-.112 23.186v-16.749h4.293v3.107c.468-1.043 1.218-1.932 2.163-2.562.944-.631 2.045-.978 3.176-1.002.335.007.667.063.987.163v4.277c-.531-.103-1.07-.156-1.61-.157-3.327 0-4.475 2.426-4.475 5.376v7.547zm78.381-8.358c0-5.344 3.354-8.848 8.526-8.848 5.173 0 8.586 3.504 8.586 8.848 0 5.343-3.354 8.815-8.586 8.815-5.231 0-8.526-3.499-8.526-8.815zm4.54 0c0 2.655.923 5.349 3.986 5.349 3.065 0 4.03-2.694 4.03-5.349 0-2.655-.928-5.376-4.03-5.376-3.101 0-3.986 2.688-3.986 5.376zm13.576 8.358v-16.749h4.292v3.107c.471-1.042 1.221-1.929 2.165-2.56.944-.63 2.044-.978 3.175-1.004.335.007.667.062.987.163v4.277c-.531-.103-1.07-.156-1.61-.157-3.322 0-4.47 2.426-4.47 5.376v7.547zm16.403-5.441c0 1.55.387 1.942 1.922 1.942.471.005.942-.038 1.405-.13 0 0-.214 3.754-2.656 3.754-2.774 0-5.205-.647-5.205-3.983v-17.957h4.529v5.023h3.027c2.087 0 .037 1.088-.312 3.08h-2.715v8.292zm-52.291-11.286h4.293v2.139c.539-.833 1.281-1.508 2.155-1.962.874-.454 1.849-.671 2.83-.629 5.172 0 7.512 4.245 7.512 9.006 0 4.473-2.431 8.652-7.255 8.652-.967.026-1.924-.192-2.788-.633-.863-.442-1.605-1.094-2.159-1.897l-.059 4.407v1.399c0 1.518.166 1.518.585 2.176-.799.065-1.601.065-2.399 0-1.331-.136-2.753-.593-2.753-1.632v-21.004zm8.339 13.74c2.972 0 3.927-2.596 3.927-5.317 0-2.72-1.073-5.408-3.96-5.408-2.887 0-3.928 2.688-3.928 5.408 0 2.721 1.02 5.317 3.961 5.317zm-20.322-2.177c.172 1.807 1.761 2.541 3.467 2.541 1.309 0 2.973-.544 2.973-2.138 0-1.393-1.889-1.878-5.146-2.596-2.619-.582-5.238-1.518-5.238-4.467 0-4.272 3.639-5.376 7.191-5.376 3.552 0 6.933 1.229 7.282 5.343h-4.293c-.129-1.779-1.471-2.263-3.102-2.263-1.019 0-2.522.19-2.522 1.55 0 1.633 2.554 1.878 5.146 2.498 2.592.62 5.237 1.583 5.237 4.696 0 4.407-3.756 5.833-7.539 5.833-3.783 0-7.416-1.404-7.743-5.621zm-20.884 5.142v-16.705h4.293v2.324c.563-.855 1.325-1.555 2.219-2.039.894-.484 1.892-.737 2.905-.737 4.83 0 6.026 2.721 6.026 6.878v8.097c0 1.518.167 1.518.58 2.177-.795.065-1.593.065-2.388 0-1.331-.136-2.721-.544-2.721-1.6v-7.852c0-2.721-.794-4.097-2.897-4.097-2.453 0-3.51 1.387-3.51 4.777v8.761zm-5.983-6.426v-1.714c-.767.68-2.356.713-3.756.974-1.401.261-2.683.773-2.683 2.454 0 1.681 1.304 2.133 2.769 2.133 3.536 0 3.665-2.846 3.665-3.847zm-5.903-5.104h-4.518c.252-4.293 4.046-5.589 7.738-5.589 3.284 0 7.233.74 7.233 4.751v8.706c0 1.518.161 3.036.574 3.717 0 0-4.904.435-4.904-1.633-1.438 1.518-3.536 2.068-5.543 2.068-3.123 0-5.608-1.589-5.608-5.006 0-3.809 2.801-4.685 5.608-5.077 2.806-.392 5.366-.321 5.366-2.177 0-1.975-1.336-2.263-2.935-2.263-1.717 0-2.834.713-2.995 2.519z"/></g><defs><clipPath id="a"><path fill="#fff" transform="translate(98.834 97)" d="M0 0H185V56H0z"/></clipPath></defs></svg>