<?xml version="1.0" standalone="no"?>
<!DOCTYPE svg PUBLIC "-//W3C//DTD SVG 20010904//EN"
 "http://www.w3.org/TR/2001/REC-SVG-20010904/DTD/svg10.dtd">
<svg version="1.0" xmlns="http://www.w3.org/2000/svg"
 width="1378.000000pt" height="759.000000pt" viewBox="0 0 1378.000000 759.000000"
 preserveAspectRatio="xMidYMid meet">

<g transform="translate(0.000000,759.000000) scale(0.100000,-0.100000)"
fill="#000000" stroke="none">
<path d="M3620 7039 c-568 -61 -1078 -246 -1540 -560 -639 -433 -1094 -1063
-1270 -1759 -37 -146 -67 -319 -75 -435 -3 -49 -8 -108 -10 -130 l-4 -40 19
50 c11 28 56 148 100 269 472 1275 1025 1883 2070 2274 816 306 1627 261 2435
-133 297 -144 538 -318 786 -565 185 -184 291 -312 418 -505 479 -731 638
-1634 430 -2445 -105 -408 -317 -830 -603 -1200 -102 -133 -382 -414 -506
-510 -321 -247 -680 -426 -1095 -545 -665 -190 -1284 -177 -1893 41 -164 58
-472 210 -632 311 -196 123 -441 309 -588 447 -29 27 -55 47 -58 44 -9 -10 43
-116 100 -203 414 -635 1659 -1034 2731 -876 1102 163 2076 928 2523 1981 173
407 255 817 255 1270 0 689 -197 1307 -594 1866 -149 210 -382 456 -584 618
-496 397 -1064 636 -1716 722 -145 19 -572 27 -699 13z"/>
<path d="M3680 6539 c-546 -48 -1078 -260 -1495 -596 -96 -77 -315 -294 -315
-311 0 -15 37 -43 66 -51 49 -13 82 5 187 102 213 196 384 317 612 433 633
319 1377 368 2060 134 159 -54 453 -200 591 -292 590 -396 997 -993 1134
-1669 40 -194 53 -358 47 -589 -8 -291 -41 -499 -122 -750 -279 -862 -1002
-1509 -1918 -1716 -683 -154 -1420 -16 -2022 380 -396 261 -711 616 -918 1039
-145 295 -226 569 -258 875 -17 165 -6 532 20 696 28 172 27 201 -4 230 -14
13 -41 26 -60 28 -41 5 -41 5 -75 -162 -35 -173 -45 -281 -44 -510 0 -326 39
-566 139 -865 147 -440 355 -777 679 -1100 452 -451 1021 -725 1671 -806 130
-16 470 -16 610 0 443 50 877 207 1232 444 170 113 265 190 406 327 425 411
694 937 793 1545 25 154 30 536 10 710 -41 356 -134 661 -301 982 -137 267
-280 460 -504 683 -582 581 -1405 880 -2221 809z"/>
<path d="M3678 6045 c-503 -71 -931 -277 -1282 -615 -384 -369 -619 -837 -687
-1370 -16 -120 -16 -439 0 -550 85 -610 378 -1135 836 -1502 263 -210 614
-377 938 -447 773 -167 1580 78 2126 645 333 345 541 769 617 1259 24 155 24
479 0 640 -72 481 -282 913 -611 1254 -346 359 -768 584 -1255 671 -160 29
-530 37 -682 15z m557 -230 c335 -44 682 -183 950 -383 107 -79 294 -258 378
-362 150 -185 276 -418 351 -650 138 -421 137 -861 -4 -1282 -195 -585 -649
-1054 -1231 -1271 -92 -35 -241 -77 -321 -91 l-38 -7 0 958 0 958 292 359
c269 330 294 357 317 352 98 -22 131 -26 171 -20 152 23 260 120 296 267 39
158 -36 316 -184 389 -60 30 -75 33 -152 33 -70 0 -95 -5 -141 -27 -79 -36
-133 -89 -171 -166 -30 -60 -33 -76 -33 -152 0 -78 3 -92 34 -152 l33 -66
-311 -382 -311 -381 0 -993 0 -994 -22 -6 c-13 -3 -44 -6 -70 -6 l-48 0 0
1550 c0 1468 1 1551 18 1557 99 33 178 102 220 191 23 49 27 70 27 147 -1 79
-4 97 -30 148 -34 68 -106 139 -172 169 -37 17 -69 22 -138 22 -83 1 -96 -2
-157 -32 -138 -68 -211 -211 -187 -366 12 -70 37 -123 86 -177 39 -43 126 -99
156 -99 16 0 17 -81 17 -1555 l0 -1556 -62 7 c-35 4 -66 9 -70 11 -5 2 -8 304
-8 671 l-1 667 -280 340 c-154 187 -283 345 -286 352 -2 6 7 29 20 51 32 49
57 133 57 188 0 62 -33 158 -72 208 -66 88 -166 136 -279 136 -136 0 -249 -72
-311 -197 -28 -58 -32 -75 -32 -147 0 -66 5 -91 26 -138 35 -75 98 -141 167
-175 48 -24 68 -28 141 -28 47 0 99 4 116 8 30 8 32 6 307 -329 l277 -337 0
-623 c0 -358 -4 -624 -9 -624 -25 0 -215 55 -300 87 -633 236 -1111 769 -1275
1422 -61 240 -78 563 -42 791 58 366 203 699 426 980 138 173 349 359 537 474
237 144 517 243 789 280 137 19 398 19 539 1z m-207 -464 c67 -34 102 -93 102
-171 0 -57 -15 -93 -57 -132 -99 -94 -247 -66 -304 57 -42 90 -8 188 86 246
40 25 124 25 173 0z m1120 -462 c104 -51 136 -198 60 -285 -82 -93 -202 -99
-285 -12 -58 60 -69 138 -32 216 45 92 159 128 257 81z m-2175 -697 c57 -33
90 -86 95 -151 7 -96 -44 -171 -135 -197 -157 -46 -293 113 -224 261 47 102
170 143 264 87z"/>
<path d="M9375 4485 c-16 -15 -25 -35 -25 -56 0 -17 133 -383 296 -813 217
-573 303 -787 321 -803 13 -13 37 -23 53 -23 16 0 40 10 53 23 29 26 617 1567
617 1617 0 61 -64 96 -124 69 -31 -14 -16 23 -302 -736 -131 -348 -241 -633
-244 -633 -4 0 -118 298 -256 663 -184 490 -256 669 -276 690 -34 35 -80 36
-113 2z"/>
<path d="M8106 4464 l-26 -27 0 -787 0 -787 26 -27 27 -26 442 0 c432 0 443 0
469 21 33 26 36 79 6 109 -19 19 -33 20 -410 20 l-390 0 0 310 0 310 290 0
c275 0 291 1 310 20 31 31 36 68 13 98 l-20 27 -297 3 -296 2 0 305 0 305 378
0 c354 0 380 1 395 18 25 27 22 87 -5 112 -21 19 -33 20 -454 20 l-431 0 -27
-26z"/>
<path d="M11020 4370 c-15 -15 -20 -33 -20 -74 0 -47 4 -57 26 -75 16 -13 41
-21 64 -21 23 0 48 8 64 21 22 18 26 28 26 75 0 72 -21 94 -90 94 -37 0 -55
-5 -70 -20z"/>
<path d="M12810 4370 c-15 -15 -20 -33 -20 -74 0 -47 4 -57 26 -75 16 -13 41
-21 64 -21 23 0 48 8 64 21 22 18 26 28 26 75 0 72 -21 94 -90 94 -37 0 -55
-5 -70 -20z"/>
<path d="M11853 3969 c-54 -10 -128 -43 -168 -73 -77 -59 -114 -197 -81 -308
33 -115 132 -189 359 -267 239 -82 296 -128 284 -229 -6 -58 -32 -91 -95 -124
-134 -68 -341 -37 -465 70 -55 47 -95 54 -127 22 -33 -33 -26 -80 17 -123 149
-150 417 -199 637 -116 69 25 125 74 161 140 27 48 30 63 30 144 0 81 -3 95
-29 143 -51 91 -116 132 -339 213 -173 63 -228 94 -265 149 -27 40 -26 102 3
146 37 56 170 87 280 64 72 -15 117 -37 174 -84 70 -59 141 -39 141 38 0 70
-127 164 -257 191 -74 16 -193 18 -260 4z"/>
<path d="M11061 3959 c-52 -20 -50 -6 -51 -582 l0 -538 25 -24 c15 -16 36 -25
55 -25 19 0 40 9 55 25 l25 24 0 539 c0 528 0 539 -20 560 -12 12 -25 22 -30
22 -4 0 -14 2 -22 4 -7 3 -24 0 -37 -5z"/>
<path d="M12851 3959 c-52 -20 -50 -6 -51 -582 l0 -538 25 -24 c15 -16 36 -25
55 -25 19 0 40 9 55 25 l25 24 0 539 c0 528 0 539 -20 560 -12 12 -25 22 -30
22 -4 0 -14 2 -22 4 -7 3 -24 0 -37 -5z"/>
</g>
</svg>
