<svg width="230" height="58" fill="none" xmlns="http://www.w3.org/2000/svg"><path fill-rule="evenodd" clip-rule="evenodd" d="m 57.676553,28.836107 c 0,5.505 -1.632,10.887 -4.691,15.465 -3.059,4.578 -7.407,8.145 -12.494,10.252 -5.087,2.107 -10.684,2.658 -16.084,1.584 -5.4003,-1.074 -10.3606,-3.725 -14.2539,-7.618 -3.8931998,-3.893 -6.5445998,-8.853 -7.6186998,-14.252 -1.0742,-5.4 -0.5229,-10.997 1.5841,-16.083 2.107,-5.087 5.6752,-9.434 10.2531998,-12.493 4.578,-3.0585 9.9603,-4.6911 15.4663,-4.6911 3.656,-0.0026 7.278,0.7155 10.656,2.1134 3.379,1.3977 6.449,3.4487 9.035,6.0337 2.585,2.585 4.636,5.655 6.034,9.033 1.398,3.379 2.116,7 2.113,10.656 z" fill="#000"/><path fill-rule="evenodd" clip-rule="evenodd" d="m 29.836553,54.436107 c -5.921,0.009 -11.6631,-2.037 -16.2436,-5.79 -4.5803998,-3.754 -7.7156998,-8.98 -8.8700998,-14.788 -1.1544,-5.808 -0.2564,-11.837 2.5407,-17.056 2.7970998,-5.219 7.3195998,-9.306 12.7951998,-11.561 3.0997,-1.286 6.4228,-1.9474 9.7778,-1.9474 3.356,0 6.679,0.6614 9.779,1.9474 4.653,1.94 8.627,5.214 11.423,9.409 2.796,4.194 4.288,9.123 4.288,14.164 0,5.04 -1.492,9.968 -4.288,14.163 -2.796,4.195 -6.77,7.469 -11.423,9.409 -3.1,1.287 -6.423,1.949 -9.779,1.947 z m 0,-0.902 c -5.701,-0.036 -11.2167,-2.038 -15.6135,-5.668 -4.3966998,-3.631 -7.4057998,-8.667 -8.5189998,-14.259 -1.1132,-5.592 -0.2623,-11.397 2.409,-16.434 2.6712998,-5.037 6.9992998,-8.999 12.2531998,-11.215 3.0021,-1.245 6.2203,-1.885 9.4703,-1.885 3.251,0 6.469,0.64 9.471,1.885 4.526,1.871 8.395,5.042 11.118,9.112 2.722,4.07 4.175,8.857 4.175,13.754 0,4.897 -1.453,9.683 -4.175,13.753 -2.723,4.071 -6.592,7.242 -11.118,9.112 -3.001,1.248 -6.22,1.889 -9.471,1.886" fill="#e1fc93"/><path fill-rule="evenodd" clip-rule="evenodd" d="m 33.834553,53.433107 c 1.294,-0.206 2.569,-0.514 3.813,-0.923 1.238,-0.401 2.444,-0.894 3.608,-1.475 1.159,-0.596 2.27,-1.281 3.321,-2.05 1.059,-0.764 2.054,-1.614 2.973,-2.542 0.928,-0.918 1.779,-1.912 2.542,-2.972 0.776,-1.054 1.462,-2.172 2.05,-3.341 0.594,-1.161 1.095,-2.367 1.496,-3.608 1.604,-5.006 1.604,-10.388 0,-15.394 -0.443,-1.234 -0.977,-2.433 -1.599,-3.587 -0.588,-1.163 -1.274,-2.274 -2.05,-3.32 -0.763,-1.06 -1.613,-2.054 -2.542,-2.973 -0.914,-0.933 -1.908,-1.784 -2.972,-2.541 -1.047,-0.777 -2.158,-1.462 -3.321,-2.05 -1.166,-0.56 -2.372,-1.033 -3.608,-1.415 -3.743,-1.208 -7.718,-1.5173 -11.603,-0.901 -1.287,0.196 -2.5549,0.497 -3.7923,0.901 -1.2408,0.402 -2.4473,0.902 -3.6078,1.497 -1.1697,0.587 -2.2875,1.273 -3.3414,2.05 -1.0599,0.763 -2.0541,1.613 -2.9725,2.541 -0.9229,0.924 -1.7728,1.917 -2.5418998,2.973 -0.7691,1.051 -1.4546,2.161 -2.05,3.32 -0.5811,1.164 -1.0744,2.37 -1.4759,3.608 -1.2258,3.739 -1.542,7.716 -0.9225,11.601 0.2031,1.288 0.5117,2.556 0.9225,3.793 0.4013,1.191 0.8948,2.349 1.4759,3.464 2.3944998,4.694 6.2115998,8.51 10.9057998,10.905 1.161,0.588 2.3676,1.081 3.6078,1.475 3.7313,1.228 7.7033,1.545 11.5823,0.923 z m -0.41,-2.091 c 1.187,-0.198 2.359,-0.478 3.506,-0.84 1.141,-0.379 2.252,-0.844 3.321,-1.394 1.067,-0.538 2.088,-1.162 3.054,-1.866 0.996,-0.668 1.941,-1.408 2.829,-2.213 0.855,-0.841 1.637,-1.753 2.337,-2.726 0.706,-0.976 1.336,-2.004 1.886,-3.075 0.511,-1.043 0.936,-2.126 1.271,-3.239 1.127,-3.435 1.415,-7.09 0.841,-10.659 -0.188,-1.188 -0.469,-2.36 -0.841,-3.505 -0.37,-1.164 -0.836,-2.295 -1.394,-3.382 -0.54,-1.076 -1.171,-2.105 -1.886,-3.075 -1.418,-1.937 -3.126,-3.645 -5.063,-5.063 -0.966,-0.709 -1.987,-1.34 -3.055,-1.885 -2.681,-1.368 -5.605,-2.194 -8.606,-2.429 -3,-0.236 -6.018,0.123 -8.8798,1.055 -1.1434,0.364 -2.2544,0.823 -3.3208,1.374 -1.0713,0.549 -2.0992,1.18 -3.075,1.885 -0.9737,0.7 -1.8858,1.482 -2.7264,2.337 -0.8438,0.851 -1.6248,1.762 -2.3369,2.726 -0.7073,0.975 -1.3378998,2.003 -1.8859998,3.075 -0.538,1.065 -0.997,2.168 -1.3735,3.3 -1.4641,4.608 -1.4641,9.556 0,14.164 0.3727,1.14 0.8319,2.251 1.3735,3.321 0.5575,1.067 1.1875998,2.094 1.8859998,3.075 1.4181,1.937 3.1259,3.644 5.0633,5.062 0.9762,0.699 2.0041,1.323 3.075,1.866 1.0659,0.557 2.1768,1.023 3.3208,1.394 3.4398,1.106 7.0898,1.393 10.6598,0.84" fill="#fff"/><path fill-rule="evenodd" clip-rule="evenodd" d="M203.695 21.333c.61-.004 1.213.123 1.769.375.555.251 1.05.619 1.45 1.08l.861-5.596-.82-.451c-1.356-.677-2.851-1.028-4.367-1.025-2.609 0-5.112 1.037-6.957 2.882-1.846 1.845-2.883 4.348-2.883 6.957 0 2.61 1.037 5.112 2.883 6.957 1.845 1.846 4.348 2.882 6.957 2.882 1.827.006 3.618-.506 5.166-1.476 0 0-.82-5.616-.84-5.596-.464.534-1.052.942-1.713 1.189-.661.247-1.374.324-2.073.225-.699-.1-1.361-.373-1.927-.795-.566-.422-1.018-.979-1.313-1.62-.295-.641-.425-1.346-.377-2.05.047-.704.271-1.386.649-1.981.379-.596.901-1.087 1.519-1.429.617-.342 1.31-.523 2.016-.528zM151.502 41.893h16.031v-5.862h-9.081v-4.428h8.569v-5.596h-8.569v-4.53h9.081v-5.739h-16.031zM139.101 28.12c0 .164 0 .328-.123.533l-.225 1.025c-.103.554-.287 1.414-.472 2.275 0-.471-.164-.963-.246-1.414-.082-.451-.184-.84-.287-1.25-.102-.41-.184-.779-.307-1.169l-3.28-12.442h-5.74l-3.3 12.524c-.164.615-.328 1.23-.451 1.722-.123.492-.205.902-.267 1.23-.061.328-.143.656-.205.963 0-.574-.184-1.127-.287-1.619l-.266-1.271c0-.369-.164-.697-.246-1.025l-2.993-12.524h-7.216l7.4 26.155h6.622l3.177-11.151c0-.143 0-.307.144-.491l.225-.923c.123-.512.328-1.312.512-2.05.144.636.308 1.271.431 1.763l.266 1.107c0 .267.123.451.185.635l3.218 11.151h6.622l7.38-26.155h-7.196zM112.144 21.865c-.62-1.018-1.363-1.954-2.214-2.788-.862-.807-1.827-1.496-2.87-2.05-1.063-.658-2.207-1.175-3.403-1.537-1.183-.319-2.404-.478-3.629-.472-2.456-.018-4.874.611-7.01 1.825-2.117 1.181-3.884 2.899-5.125 4.981-.612 1.029-1.075 2.14-1.374 3.3-.321 1.175-.48 2.389-.471 3.608-.005 1.21.147 2.415.451 3.587.31 1.146.779 2.243 1.394 3.259.626 1.042 1.384 2 2.255 2.849 1.725 1.78 3.899 3.062 6.293 3.71 1.169.32 2.376.479 3.587.472 1.218-.004 2.431-.162 3.608-.472 2.372-.611 4.542-1.834 6.294-3.546.861-.832 1.606-1.776 2.214-2.808.606-1.028 1.075-2.13 1.394-3.28.615-2.379.615-4.877 0-7.256-.308-1.157-.77-2.267-1.374-3.3zm-1.743 9.839c-.239.898-.598 1.759-1.066 2.562-.477.784-1.048 1.507-1.701 2.152-.672.677-1.431 1.263-2.255 1.743-.8.479-1.662.844-2.563 1.086-.904.229-1.834.346-2.767.348-.927.009-1.851-.108-2.747-.348-.897-.243-1.758-.602-2.563-1.066-.821-.492-1.579-1.084-2.254-1.763-.668-.688-1.253-1.451-1.743-2.275-.461-.806-.819-1.667-1.066-2.562-.23-.912-.347-1.848-.348-2.788.009-.941.133-1.877.369-2.788.239-.911.597-1.786 1.066-2.603.466-.828 1.046-1.587 1.722-2.255.65-.669 1.388-1.249 2.193-1.722.798-.476 1.661-.835 2.562-1.065.916-.246 1.861-.37 2.809-.369.941-.008 1.878.109 2.788.348.898.239 1.759.598 2.562 1.066 1.632.948 2.988 2.304 3.936 3.936.475.823.84 1.705 1.087 2.623.229.926.346 1.875.348 2.829.02.955-.098 1.907-.348 2.829M82.44 18.812c-.522-.706-1.168-1.31-1.907-1.783-.407-.257-.84-.47-1.291-.636-.7-.283-1.44-.456-2.194-.512-1.648-.163-3.305-.232-4.961-.205h-7.503v26.155h6.683v-8.63h3.014c1.075.005 2.149-.05 3.218-.164.615-.078 1.22-.222 1.804-.43.428-.15.84-.342 1.23-.574.533-.325 1.023-.718 1.456-1.168.45-.481.836-1.018 1.148-1.599.332-.649.58-1.338.737-2.05.192-.848.288-1.714.287-2.583.004-1.083-.155-2.161-.471-3.197-.277-.924-.714-1.791-1.291-2.563zm-5.248 6.211c-.027.187-.068.372-.123.553l-.185.431-.266.369c-.095.111-.206.207-.328.287-.13.109-.275.199-.431.266-.195.105-.401.187-.615.246-.33.086-.665.148-1.004.185-.451 0-1.025 0-1.62 0h-1.353v-6.15h1.517c.554 0 1.087 0 1.517 0 .319.029.634.084.943.164.205.046.405.115.595.205.152.058.296.134.43.226l.328.246.246.287.185.348c.061.134.116.271.164.41.013.164.013.328 0 .492.021.204.021.411 0 .615 0 .225 0 .451 0 .676M218.866 15.716c-1.946 0-3.848.577-5.467 1.658-1.618 1.082-2.879 2.618-3.625 4.416-.744 1.798-.939 3.776-.559 5.685.379 1.908 1.318 3.661 2.693 5.037 1.376 1.376 3.129 2.314 5.039 2.693 1.909.38 3.887.185 5.685-.56 1.797-.745 3.335-2.006 4.415-3.623 1.081-1.619 1.659-3.521 1.659-5.467.002-1.293-.25-2.573-.745-3.768-.492-1.195-1.217-2.281-2.131-3.195-.915-.914-2.001-1.639-3.196-2.132-1.195-.494-2.475-.746-3.768-.744zm0 12.442c-.515 0-1.019-.152-1.447-.438-.427-.286-.761-.693-.958-1.169-.197-.475-.25-.999-.149-1.504.1-.505.348-.968.713-1.333.365-.364.828-.612 1.332-.712.507-.1 1.03-.049 1.505.148.476.197.882.531 1.169.959.285.428.438.931.438 1.446 0 .691-.274 1.353-.762 1.841-.488.488-1.15.762-1.841.762zM186.885 30.599c.585-.287 1.124-.66 1.599-1.107.454-.416.841-.9 1.148-1.435.343-.586.592-1.222.738-1.886.197-.776.287-1.576.266-2.377-.001-.859-.118-1.714-.348-2.542-.224-.733-.563-1.425-1.005-2.05-.428-.639-.962-1.201-1.578-1.66-.311-.254-.648-.474-1.005-.656-.407-.21-.832-.381-1.271-.513-.662-.23-1.351-.375-2.05-.43-1.168-.123-2.952-.164-4.674-.164h-7.523v26.053h6.703v-10.249l6.007 10.249h8.036l-7.134-10.536c.71-.144 1.399-.378 2.05-.697zm-3.342-5.596c-.024.188-.065.373-.123.553l-.184.451c-.077.125-.167.242-.267.349-.081.122-.185.226-.307.307-.14.106-.291.195-.451.267l-.615.246-1.005.184c-.451 0-1.025 0-1.619 0h-1.353v-6.149h1.435c.553 0 1.086 0 1.517 0 .318.028.634.083.943.164.205.046.404.115.594.205.152.058.297.133.431.225l.328.246.246.287c.073.11.135.226.184.349.067.124.122.255.164.389.015.171.015.342 0 .513.022.204.022.41 0 .615 0 .205 0 .451 0 .656" fill="#000"/></svg>