<svg xmlns="http://www.w3.org/2000/svg" viewBox="0 0 221.69 154.07"><defs><style>.cls-1{fill:#020403;}</style></defs><title>revole-brand-black</title><g id="Layer_2" data-name="Layer 2"><g id="Layer_1-2" data-name="Layer 1"><path class="cls-1" d="M26.26,11.88a4.91,4.91,0,0,0-3.8-1.81c-1.42,0-4.25.84-4.25,4.77V35.58H7.64V.93H18V3.76A12,12,0,0,1,26.13.54a10.31,10.31,0,0,1,8.12,3.22Z"/><path class="cls-1" d="M68.71,25.64c-1.67,6-7.16,11-15.92,11-9.52,0-18-6.82-18-18.42C34.79,7.09,43.06,0,52,0c10.7,0,17.3,6.6,17.3,17.72a24.17,24.17,0,0,1-.2,3.27h-24c.21,3.89,3.75,6.67,7.85,6.67,3.83,0,6-1.81,7-4.52ZM59.12,14.18c-.14-2.64-1.95-5.84-6.95-5.84a6.58,6.58,0,0,0-6.88,5.84Z"/><path class="cls-1" d="M24.81,87.7H14.18L0,53.16H11.47l8,21.48,7.37-21.48H38Z"/><path class="cls-1" d="M74.71,70.4c0,10.7-8,18.34-18.35,18.34A17.9,17.9,0,0,1,38,70.4c0-10.71,8.06-18.28,18.35-18.28S74.71,59.69,74.71,70.4Zm-10.57,0c0-5.84-3.75-8.55-7.78-8.55s-7.78,2.71-7.78,8.55S52.4,79,56.36,79,64.14,76.23,64.14,70.4Z"/><path class="cls-1" d="M77.8,88.75,99.29,0h10.87L88.67,88.74Z"/><path class="cls-1" d="M132.26,87.7H121.63L107.45,53.16h11.47l8,21.48,7.37-21.48H145.4Z"/><path class="cls-1" d="M179.38,77.76c-1.67,6-7.16,11-15.92,11-9.52,0-18-6.81-18-18.41,0-11.12,8.27-18.21,17.24-18.21,10.7,0,17.3,6.6,17.3,17.72a24.17,24.17,0,0,1-.2,3.27H155.75c.21,3.89,3.75,6.67,7.85,6.67,3.83,0,6-1.81,7-4.52ZM169.79,66.3c-.14-2.64-1.95-5.84-6.95-5.84A6.57,6.57,0,0,0,156,66.3Z"/><path class="cls-1" d="M35.38,129.88c-1.67,6-7.16,11-15.92,11-9.52,0-18-6.81-18-18.41,0-11.12,8.27-18.21,17.24-18.21,10.7,0,17.3,6.6,17.3,17.72a22,22,0,0,1-.21,3.27h-24c.21,3.89,3.75,6.67,7.85,6.67,3.82,0,6-1.81,7-4.52Zm-9.59-11.46c-.14-2.65-1.95-5.84-7-5.84A6.56,6.56,0,0,0,12,118.42Z"/><path class="cls-1" d="M51.63,139.82H41.07V105.28H51.29v4c1.87-3.26,6.11-4.86,9.66-4.86,8.68,0,12.58,6.18,12.58,13.76v21.68H63V119.94c0-3.4-1.81-6-5.63-6-3.47,0-5.7,2.57-5.7,6Z"/><path class="cls-1" d="M112.09,129.88c-1.67,6-7.16,11-15.91,11-9.52,0-18-6.81-18-18.41,0-11.12,8.27-18.21,17.23-18.21,10.71,0,17.31,6.6,17.31,17.72a22,22,0,0,1-.21,3.27H88.46c.21,3.89,3.76,6.67,7.86,6.67,3.82,0,6-1.81,7-4.52Zm-9.59-11.46c-.14-2.65-1.94-5.84-7-5.84a6.57,6.57,0,0,0-6.88,5.84Z"/><path class="cls-1" d="M135.74,116.12a4.88,4.88,0,0,0-3.8-1.81c-1.42,0-4.25.84-4.25,4.77v20.74H117.12V105.16h10.31V108a12,12,0,0,1,8.18-3.22,10.3,10.3,0,0,1,8.12,3.22Z"/><path class="cls-1" d="M153.66,139.13a7.22,7.22,0,0,0,7.43,5.76c5.29,0,8.55-2.57,8.55-8.82v-1.6c-1.25,1.88-4.24,3.89-9.24,3.89-9.17,0-16.06-7.23-16.06-16.82,0-9.1,6.61-16.89,16.06-16.89,5.63,0,8.62,2.51,9.59,4.31v-3.68h10.08v30.23c0,9.94-5.56,18.56-18.49,18.56-9.94,0-16.26-6.12-17.24-12.3Zm16.05-17.59a7.4,7.4,0,1,0-14.8,0c0,4.73,3.2,7.65,7.44,7.65S169.71,126.27,169.71,121.54Z"/><path class="cls-1" d="M189.31,153.1l7.85-17.94-14.52-29.88h11.81l8.41,18.49,7.64-18.49h11.19L200.43,153.1Z"/></g></g></svg>